{
.appVersion = "1346";
copyright = "Copyright 2020 The Prodigy Sans Project Authors (https://github.com/weiweihuanghuang/Prodigy-Sans)";
customParameters = (
{
name = license;
value = "This Font Software is licensed under the SIL Open Font License, Version 1.1. This license is available with a FAQ at: http://scripts.sil.org/OFL";
},
{
name = licenseURL;
value = "http://scripts.sil.org/OFL";
},
{
name = "EditView Line Height";
value = 1400;
},
{
name = Axes;
value = (
{
Name = weight;
Tag = wght;
}
);
},
{
name = "Use Typo Metrics";
value = 1;
},
{
name = fsType;
value = (
);
},
{
name = "Disable Last Change";
value = 1;
},
{
name = "Use Line Breaks";
value = 1;
},
{
name = "Variable Font Origin";
value = "DBFAC7D3-9CB2-48DD-9F53-AD59A4BD1301";
},
{
name = vendorID;
value = WEI;
}
);
date = "2020-09-03 01:30:09 +0000";
designer = "Wei Huang";
designerURL = "http://weiweihuanghuang.github.io/";
familyName = "Prodigy Sans";
featurePrefixes = (
{
automatic = 1;
code = "languagesystem DFLT dflt;

languagesystem latn dflt;
languagesystem latn ROM;
languagesystem latn MOL;
";
name = Languagesystems;
}
);
features = (
{
automatic = 1;
code = "feature locl;
feature subs;
feature sinf;
feature sups;
feature numr;
feature dnom;
feature frac;
feature ordn;
feature lnum;
feature pnum;
feature tnum;
feature onum;
feature calt;
";
name = aalt;
},
{
automatic = 1;
code = "lookup ccmp_Other_1 {
	@CombiningTopAccents = [acutecomb brevecomb caroncomb circumflexcomb dieresiscomb dotaccentcomb gravecomb hungarumlautcomb macroncomb ringcomb tildecomb];
	@CombiningNonTopAccents = [cedillacomb ogonekcomb];
	sub [i j]' @CombiningTopAccents by [idotless jdotless];
	sub [i j]' @CombiningNonTopAccents @CombiningTopAccents by [idotless jdotless];
} ccmp_Other_1;
";
name = ccmp;
},
{
automatic = 1;
code = "lookup locl_latn_0 {
	script latn;
	language ROM;
	language MOL;
	sub Scedilla by Scommaaccent;
	sub scedilla by scommaaccent;
	sub Tcedilla by Tcommaaccent;
	sub tcedilla by tcommaaccent;

glyphs = (
{
color = 5;
glyphname = A;
layers = (
{
anchors = (
{
name = bottom;
position = "{268, 0}";
},
{
name = ogonek;
position = "{592, 0}";
},
{
name = top;
position = "{431, 704}";
}
);
color = 4;
layerId = "DBFAC7D3-9CB2-48DD-9F53-AD59A4BD1301";
paths = (
{
closed = 1;
nodes = (
"37 0 LINE",
"160 198 LINE",
"481 198 LINE",
"511 0 LINE",
"592 0 LINE",
"481 704 LINE",
"383 704 LINE",
"-55 0 LINE"
);
},
{
closed = 1;
nodes = (
"435 643 LINE",
"412 648 LINE",
"469 275 LINE",
"207 275 LINE"
);
}
);
width = 653;
},
{
anchors = (
{
name = bottom;
position = "{345, 0}";
},
{
name = ogonek;
position = "{723, 0}";
},
{
name = top;
position = "{493, 704}";
}
);
color = 4;
layerId = "EA77C764-8343-414A-A941-E69667BA8F3A";
paths = (
{
closed = 1;
nodes = (
"179 0 LINE",
"251 126 LINE",
"491 126 LINE",
"503 0 LINE",
"723 0 LINE",
"632 704 LINE",
"351 704 LINE",
"-63 0 LINE"
);
},
{
closed = 1;
nodes = (
"506 592 LINE",
"445 605 LINE",
"475 295 LINE",
"338 295 LINE"
);
}
);
width = 776;
},
{
anchors = (
{
name = bottom;
position = "{247, 0}";
},
{
name = ogonek;
position = "{547, 0}";
},
{
name = top;
position = "{410, 704}";
}
);
color = 4;
layerId = "F97236B5-7CBD-4FD1-81B0-6670342ADB4E";
paths = (
{
closed = 1;
nodes = (
"-33 0 LINE",
"128 250 LINE",
"486 250 LINE",
"531 0 LINE",
"547 0 LINE",
"420 704 LINE",
"401 704 LINE",
"-52 0 LINE"
);
},
{
closed = 1;
nodes = (
"411 691 LINE",
"406 692 LINE",
"483 264 LINE",
"137 264 LINE"
);
}
);
width = 611;
},
{
anchors = (
{
name = bottom;
position = "{323, 0}";
},
{
name = ogonek;
position = "{676, 0}";
},
{
name = top;
position = "{478, 704}";
}
);
color = 4;
guideLines = (
{
angle = -83.0997;
position = "{494, 157}";
},
{
angle = 59.0899;
position = "{129, 0}";
}
);
layerId = "91E16792-BB9C-4BE9-80DD-69B41C5E2CA7";
paths = (
{
closed = 1;
nodes = (
"127 0 LINE",
"222 157 LINE",
"496 157 LINE",
"518 0 LINE",
"676 0 LINE",
"567 704 LINE",
"383 704 LINE",
"-46 0 LINE"
);
},
{
closed = 1;
nodes = (
"482 588 LINE",
"435 597 LINE",
"478 289 LINE",
"301 289 LINE"
);
}
);
width = 746;
}
);
leftKerningGroup = A;
rightKerningGroup = A;
rightMetricsKey = "=|";
unicode = 0041;
},
{
color = 5;
glyphname = AE;
layers = (
{
anchors = (
{
name = bottom;
position = "{452, 0}";
},
{
name = ogonek;
position = "{891, 0}";
},
{
name = top;
position = "{615, 704}";
}
);
color = 4;
layerId = "DBFAC7D3-9CB2-48DD-9F53-AD59A4BD1301";
paths = (
{
closed = 1;
nodes = (
"30 0 LINE",
"555 630 LINE",
"557 630 LINE",
"482 307 LINE",
"238 307 LINE",
"176 230 LINE",
"464 230 LINE",
"411 0 LINE",
"891 0 LINE",
"909 77 LINE",
"512 77 LINE",
"568 319 LINE",
"859 319 LINE",
"876 394 LINE",
"585 394 LINE",
"639 627 LINE",
"1019 627 LINE",
"1037 704 LINE",
"517 704 LINE",
"-70 0 LINE"
);
}
);
width = 977;
},
{
anchors = (
{
name = bottom;
position = "{573, 0}";
},
{
name = ogonek;
position = "{1032, 0}";
},
{
name = top;
position = "{736, 704}";
}
);
color = 4;
layerId = "EA77C764-8343-414A-A941-E69667BA8F3A";
paths = (
{
closed = 1;
nodes = (
"171 0 LINE",
"574 524 LINE",
"586 524 LINE",
"545 346 LINE",
"300 346 LINE",
"223 172 LINE",
"505 172 LINE",
"465 0 LINE",
"1032 0 LINE",
"1074 180 LINE",
"712 180 LINE",
"731 264 LINE",
"1012 264 LINE",
"1053 439 LINE",
"772 439 LINE",
"791 524 LINE",
"1140 524 LINE",
"1182 704 LINE",
"487 704 LINE",
"-68 0 LINE"
);
}
);
width = 1106;
},
{
anchors = (
{
name = bottom;
position = "{422, 0}";
},
{
name = ogonek;
position = "{859, 0}";
},
{
name = top;
position = "{585, 704}";
}
);
layerId = "F97236B5-7CBD-4FD1-81B0-6670342ADB4E";
paths = (
{
closed = 1;
nodes = (
"-40 0 LINE",
"569 690 LINE",
"573 690 LINE",
"479 285 LINE",
"202 285 LINE",
"189 271 LINE",
"476 271 LINE",
"413 0 LINE",
"859 0 LINE",
"863 14 LINE",
"434 14 LINE",
"511 351 LINE",
"841 351 LINE",
"845 365 LINE",
"515 365 LINE",
"590 690 LINE",
"1002 690 LINE",
"1005 704 LINE",
"562 704 LINE",
"-63 0 LINE"
);
}
);
width = 936;
},
{
anchors = (
{
name = bottom;
position = "{531, 0}";
},
{
name = ogonek;
position = "{970, 0}";
},
{
name = top;
position = "{694, 704}";
}
);
color = 4;
layerId = "91E16792-BB9C-4BE9-80DD-69B41C5E2CA7";
paths = (
{
closed = 1;
nodes = (
"137 0 LINE",
"584 572 LINE",
"586 572 LINE",
"530 329 LINE",
"311 329 LINE",
"218 205 LINE",
"502 205 LINE",
"454 0 LINE",
"970 0 LINE",
"1001 135 LINE",
"642 135 LINE",
"678 289 LINE",
"943 289 LINE",
"973 418 LINE",
"708 418 LINE",
"743 569 LINE",
"1086 569 LINE",
"1117 704 LINE",
"507 704 LINE",
"-57 0 LINE"
);
}
);
width = 1065;
}
);
leftKerningGroup = AE;
rightKerningGroup = E;
rightMetricsKey = E;
unicode = 00C6;
},
{
color = 5;
glyphname = B;
layers = (
{
anchors = (
{
name = bottom;
position = "{235, 0}";
},
{
name = ogonek;
position = "{273, 0}";
},
{
name = top;
position = "{398, 704}";
}
);
layerId = "DBFAC7D3-9CB2-48DD-9F53-AD59A4BD1301";
paths = (
{
closed = 1;
nodes = (
"326 0 LINE SMOOTH",
"483 0 OFFCURVE",
"592 74 OFFCURVE",
"592 215 CURVE SMOOTH",
"592 282 OFFCURVE",
"547 338 OFFCURVE",
"478 349 CURVE",
"478 350 LINE",
"566 371 OFFCURVE",
"628 444 OFFCURVE",
"628 545 CURVE SMOOTH",
"628 642 OFFCURVE",
"559 704 OFFCURVE",
"441 704 CURVE SMOOTH",
"190 704 LINE",
"27 0 LINE"
);
},
{
closed = 1;
nodes = (
"183 312 LINE",
"378 312 LINE SMOOTH",
"461 312 OFFCURVE",
"505 278 OFFCURVE",
"505 215 CURVE SMOOTH",
"505 130 OFFCURVE",
"442 78 OFFCURVE",
"326 78 CURVE SMOOTH",
"129 78 LINE"
);
},
{
closed = 1;
nodes = (
"256 626 LINE",
"421 626 LINE SMOOTH",
"490 626 OFFCURVE",
"541 602 OFFCURVE",
"541 533 CURVE SMOOTH",
"541 450 OFFCURVE",
"483 390 OFFCURVE",
"381 390 CURVE SMOOTH",
"201 390 LINE"
);
}
);
width = 637;
},
{
anchors = (
{
name = bottom;
position = "{280, 0}";
},
{
name = ogonek;
position = "{375, 0}";
},
{
name = top;
position = "{443, 704}";
}
);
color = 4;
guideLines = (
{
angle = 90;
position = "{367, 303}";
showMeasurement = 1;
}
);
layerId = "EA77C764-8343-414A-A941-E69667BA8F3A";
paths = (
{
closed = 1;
nodes = (
"431 0 LINE SMOOTH",
"596 0 OFFCURVE",
"714 68 OFFCURVE",
"714 210 CURVE SMOOTH",
"714 293 OFFCURVE",
"652 350 OFFCURVE",
"576 356 CURVE",
"576 357 LINE",
"664 371 OFFCURVE",
"745 427 OFFCURVE",
"745 537 CURVE SMOOTH",
"745 641 OFFCURVE",
"659 704 OFFCURVE",
"521 704 CURVE SMOOTH",
"155 704 LINE",
"-8 0 LINE"
);
},
{
closed = 1;
nodes = (
"280 274 LINE",
"409 274 LINE SMOOTH",
"453 274 OFFCURVE",
"476 253 OFFCURVE",
"476 222 CURVE SMOOTH",
"476 178 OFFCURVE",
"443 162 OFFCURVE",
"386 162 CURVE SMOOTH",
"254 162 LINE"
);
},
{
closed = 1;
nodes = (
"342 544 LINE",
"444 544 LINE SMOOTH",
"483 544 OFFCURVE",
"508 528 OFFCURVE",
"508 494 CURVE SMOOTH",
"508 456 OFFCURVE",
"479 434 OFFCURVE",
"424 434 CURVE SMOOTH",
"317 434 LINE"
);
}
);
width = 737;
},
{
anchors = (
{
name = bottom;
position = "{215, 0}";
},
{
name = ogonek;
position = "{250, 0}";
},
{
name = top;
position = "{378, 704}";
}
);
color = 4;
guideLines = (
{
angle = 256.9483;
position = "{164, 751}";
},
{
position = "{86, 383}";
},
{
position = "{282, 16}";
},
{
position = "{272, 735}";
},
{
position = "{86, 368}";
}
);
hints = (
{
horizontal = 1;
place = "{-15, 0}";
type = Stem;
},
{
horizontal = 1;
place = "{689, -30}";
type = Stem;
},
{
place = "{27, 6}";
type = Stem;
},
{
horizontal = 1;
place = "{333, 0}";
type = Stem;
}
);
layerId = "F97236B5-7CBD-4FD1-81B0-6670342ADB4E";
paths = (
{
closed = 1;
nodes = (
"314 0 LINE SMOOTH",
"481 0 OFFCURVE",
"574 70 OFFCURVE",
"574 203 CURVE SMOOTH",
"574 281 OFFCURVE",
"521 342 OFFCURVE",
"422 352 CURVE",
"422 351 LINE",
"536 365 OFFCURVE",
"609 444 OFFCURVE",
"609 545 CURVE SMOOTH",
"609 642 OFFCURVE",
"542 704 OFFCURVE",
"413 704 CURVE SMOOTH",
"187 704 LINE",
"24 0 LINE"
);
},
{
closed = 1;
nodes = (
"121 345 LINE",
"360 345 LINE SMOOTH",
"510 345 OFFCURVE",
"557 275 OFFCURVE",
"557 203 CURVE SMOOTH",
"557 79 OFFCURVE",
"472 15 OFFCURVE",
"314 15 CURVE SMOOTH",
"44 15 LINE"
);
},
{
closed = 1;
nodes = (
"201 689 LINE",
"410 689 LINE SMOOTH",
"532 689 OFFCURVE",
"592 634 OFFCURVE",
"592 545 CURVE SMOOTH",
"592 450 OFFCURVE",
"514 359 OFFCURVE",
"377 359 CURVE SMOOTH",
"124 359 LINE"
);
}
);
width = 624;
},
{
anchors = (
{
name = bottom;
position = "{269, 0}";
},
{
name = ogonek;
position = "{338, 0}";
},
{
name = top;
position = "{432, 704}";
}
);
color = 4;
hints = (
{
horizontal = 1;
place = "{0, 0}";
type = Stem;
},
{
horizontal = 1;
place = "{0, 0}";
type = Stem;
},
{
place = "{0, 0}";
type = Stem;
},
{
horizontal = 1;
place = "{0, 0}";
type = Stem;
}
);
layerId = "91E16792-BB9C-4BE9-80DD-69B41C5E2CA7";
paths = (
{
closed = 1;
nodes = (
"385 0 LINE SMOOTH",
"547 0 OFFCURVE",
"660 71 OFFCURVE",
"660 212 CURVE SMOOTH",
"660 288 OFFCURVE",
"606 344 OFFCURVE",
"534 353 CURVE",
"534 354 LINE",
"622 371 OFFCURVE",
"693 434 OFFCURVE",
"693 540 CURVE SMOOTH",
"693 640 OFFCURVE",
"616 704 OFFCURVE",
"487 704 CURVE SMOOTH",
"182 704 LINE",
"19 0 LINE"
);
},
{
closed = 1;
nodes = (
"245 288 LINE",
"403 288 LINE SMOOTH",
"465 288 OFFCURVE",
"494 260 OFFCURVE",
"494 214 CURVE SMOOTH",
"494 151 OFFCURVE",
"450 131 OFFCURVE",
"374 131 CURVE SMOOTH",
"208 131 LINE"
);
},
{
closed = 1;
nodes = (
"303 573 LINE",
"435 573 LINE SMOOTH",
"488 573 OFFCURVE",
"527 563 OFFCURVE",
"527 512 CURVE SMOOTH",
"527 453 OFFCURVE",
"485 419 OFFCURVE",
"408 419 CURVE SMOOTH",
"274 419 LINE"
);
}
);
width = 704;
}
);
leftKerningGroup = I;
leftMetricsKey = H;
unicode = 0042;
},
{
color = 5;
glyphname = C;
layers = (
{
anchors = (
{
name = bottom;
position = "{342, 0}";
},
{
name = ogonek;
position = "{452, 0}";
},
{
name = top;
position = "{442, 704}";
}
);
layerId = "DBFAC7D3-9CB2-48DD-9F53-AD59A4BD1301";
paths = (
{
closed = 1;
nodes = (
"492 -11 OFFCURVE",
"572 48 OFFCURVE",
"631 138 CURVE",
"551 176 LINE",
"511 108 OFFCURVE",
"461 67 OFFCURVE",
"370 67 CURVE SMOOTH",
"249 67 OFFCURVE",
"154 156 OFFCURVE",
"154 304 CURVE SMOOTH",
"154 465 OFFCURVE",
"246 637 OFFCURVE",
"419 637 CURVE SMOOTH",
"515 637 OFFCURVE",
"577 594 OFFCURVE",
"602 488 CURVE",
"690 517 LINE",
"653 652 OFFCURVE",
"560 715 OFFCURVE",
"427 715 CURVE SMOOTH",
"190 715 OFFCURVE",
"66 500 OFFCURVE",
"66 291 CURVE SMOOTH",
"66 92 OFFCURVE",
"200 -11 OFFCURVE",
"364 -11 CURVE SMOOTH"
);
}
);
width = 674;
},
{
anchors = (
{
name = bottom;
position = "{323, 0}";
},
{
name = ogonek;
position = "{439, 0}";
},
{
name = top;
position = "{467, 704}";
}
);
color = 4;
layerId = "EA77C764-8343-414A-A941-E69667BA8F3A";
paths = (
{
closed = 1;
nodes = (
"567 -11 OFFCURVE",
"676 68 OFFCURVE",
"737 206 CURVE",
"516 289 LINE",
"500 229 OFFCURVE",
"464 193 OFFCURVE",
"403 193 CURVE SMOOTH",
"329 193 OFFCURVE",
"292 243 OFFCURVE",
"292 315 CURVE SMOOTH",
"292 418 OFFCURVE",
"332 511 OFFCURVE",
"434 511 CURVE SMOOTH",
"499 511 OFFCURVE",
"533 475 OFFCURVE",
"534 401 CURVE",
"762 456 LINE",
"739 631 OFFCURVE",
"613 714 OFFCURVE",
"449 714 CURVE SMOOTH",
"192 714 OFFCURVE",
"55 548 OFFCURVE",
"55 302 CURVE SMOOTH",
"55 118 OFFCURVE",
"192 -11 OFFCURVE",
"386 -11 CURVE SMOOTH"
);
}
);
width = 743;
},
{
anchors = (
{
name = bottom;
position = "{336, 0}";
},
{
name = ogonek;
position = "{440, 0}";
},
{
name = top;
position = "{435, 704}";
}
);
layerId = "F97236B5-7CBD-4FD1-81B0-6670342ADB4E";
paths = (
{
closed = 1;
nodes = (
"476 -11 OFFCURVE",
"568 43 OFFCURVE",
"623 139 CURVE",
"609 149 LINE",
"558 55 OFFCURVE",
"470 4 OFFCURVE",
"353 4 CURVE SMOOTH",
"205 4 OFFCURVE",
"82 112 OFFCURVE",
"82 299 CURVE SMOOTH",
"82 505 OFFCURVE",
"197 700 OFFCURVE",
"419 700 CURVE SMOOTH",
"536 700 OFFCURVE",
"628 635 OFFCURVE",
"664 518 CURVE",
"680 523 LINE",
"643 645 OFFCURVE",
"545 715 OFFCURVE",
"420 715 CURVE SMOOTH",
"185 715 OFFCURVE",
"65 515 OFFCURVE",
"65 295 CURVE SMOOTH",
"65 97 OFFCURVE",
"193 -11 OFFCURVE",
"352 -11 CURVE SMOOTH"
);
}
);
width = 670;
},
{
anchors = (
{
name = bottom;
position = "{336, 0}";
},
{
name = ogonek;
position = "{449, 0}";
},
{
name = top;
position = "{460, 704}";
}
);
layerId = "91E16792-BB9C-4BE9-80DD-69B41C5E2CA7";
paths = (
{
closed = 1;
nodes = (
"536 -11 OFFCURVE",
"632 59 OFFCURVE",
"692 174 CURVE",
"534 238 LINE",
"508 175 OFFCURVE",
"465 136 OFFCURVE",
"392 136 CURVE SMOOTH",
"294 136 OFFCURVE",
"229 205 OFFCURVE",
"229 312 CURVE SMOOTH",
"229 440 OFFCURVE",
"294 566 OFFCURVE",
"431 566 CURVE SMOOTH",
"511 566 OFFCURVE",
"558 528 OFFCURVE",
"570 442 CURVE",
"733 484 LINE",
"703 641 OFFCURVE",
"593 714 OFFCURVE",
"443 714 CURVE SMOOTH",
"195 714 OFFCURVE",
"64 526 OFFCURVE",
"64 297 CURVE SMOOTH",
"64 106 OFFCURVE",
"198 -11 OFFCURVE",
"380 -11 CURVE SMOOTH"
);
}
);
width = 718;
}
);
leftKerningGroup = O;
leftMetricsKey = O;
rightKerningGroup = C;
unicode = 0043;
},
{
color = 5;
glyphname = D;
layers = (
{
anchors = (
{
name = bottom;
position = "{286, 0}";
},
{
name = center;
position = "{375, 352}";
},
{
name = ogonek;
position = "{265, 0}";
},
{
name = top;
position = "{419, 704}";
}
);
layerId = "DBFAC7D3-9CB2-48DD-9F53-AD59A4BD1301";
paths = (
{
closed = 1;
nodes = (
"286 0 LINE SMOOTH",
"523 0 OFFCURVE",
"682 179 OFFCURVE",
"682 416 CURVE SMOOTH",
"682 582 OFFCURVE",
"574 704 OFFCURVE",
"394 704 CURVE SMOOTH",
"190 704 LINE",
"27 0 LINE"
);
},
{
closed = 1;
nodes = (
"256 626 LINE",
"383 626 LINE SMOOTH",
"524 626 OFFCURVE",
"592 529 OFFCURVE",
"592 403 CURVE SMOOTH",
"592 233 OFFCURVE",
"479 78 OFFCURVE",
"299 78 CURVE SMOOTH",
"128 78 LINE"
);
}
);
width = 700;
},
{
anchors = (
{
name = bottom;
position = "{288, 0}";
},
{
name = center;
position = "{-5, 46}";
},
{
name = ogonek;
position = "{328, 0}";
},
{
name = top;
position = "{448, 704}";
}
);
color = 4;
layerId = "EA77C764-8343-414A-A941-E69667BA8F3A";
paths = (
{
closed = 1;
nodes = (
"349 0 LINE SMOOTH",
"599 0 OFFCURVE",
"742 157 OFFCURVE",
"742 409 CURVE SMOOTH",
"742 583 OFFCURVE",
"637 704 OFFCURVE",
"427 704 CURVE SMOOTH",
"155 704 LINE",
"-8 0 LINE"
);
},
{
closed = 1;
nodes = (
"337 509 LINE",
"397 509 LINE SMOOTH",
"469 509 OFFCURVE",
"509 464 OFFCURVE",
"509 389 CURVE SMOOTH",
"509 277 OFFCURVE",
"448 195 OFFCURVE",
"341 195 CURVE SMOOTH",
"264 195 LINE"
);
}
);
width = 748;
},
{
anchors = (
{
name = bottom;
position = "{291, 0}";
},
{
name = center;
position = "{367, 352}";
},
{
name = ogonek;
position = "{283, 0}";
},
{
name = top;
position = "{402, 704}";
}
);
color = 4;
guideLines = (
{
angle = 256.9483;
position = "{89, 375}";
},
{
position = "{158, 735}";
}
);
layerId = "F97236B5-7CBD-4FD1-81B0-6670342ADB4E";
paths = (
{
closed = 1;
nodes = (
"283 0 LINE SMOOTH",
"523 0 OFFCURVE",
"671 179 OFFCURVE",
"671 416 CURVE SMOOTH",
"671 582 OFFCURVE",
"574 704 OFFCURVE",
"394 704 CURVE SMOOTH",
"187 704 LINE",
"24 0 LINE"
);
},
{
closed = 1;
nodes = (
"201 689 LINE",
"391 689 LINE SMOOTH",
"567 689 OFFCURVE",
"654 572 OFFCURVE",
"654 415 CURVE SMOOTH",
"654 189 OFFCURVE",
"512 15 OFFCURVE",
"284 15 CURVE SMOOTH",
"45 15 LINE"
);
}
);
width = 686;
},
{
anchors = (
{
name = bottom;
position = "{296, 0}";
},
{
name = center;
position = "{182, 189}";
},
{
name = ogonek;
position = "{308, 0}";
},
{
name = top;
position = "{444, 704}";
}
);
color = 4;
layerId = "91E16792-BB9C-4BE9-80DD-69B41C5E2CA7";
paths = (
{
closed = 1;
nodes = (
"329 0 LINE SMOOTH",
"573 0 OFFCURVE",
"723 167 OFFCURVE",
"723 412 CURVE SMOOTH",
"723 583 OFFCURVE",
"617 704 OFFCURVE",
"421 704 CURVE SMOOTH",
"182 704 LINE",
"19 0 LINE"
);
},
{
closed = 1;
nodes = (
"311 563 LINE",
"394 563 LINE SMOOTH",
"508 563 OFFCURVE",
"558 490 OFFCURVE",
"558 392 CURVE SMOOTH",
"558 252 OFFCURVE",
"472 141 OFFCURVE",
"331 141 CURVE SMOOTH",
"214 141 LINE"
);
}
);
width = 738;
}
);
leftKerningGroup = I;
leftMetricsKey = H;
rightKerningGroup = O;
rightMetricsKey = O;
unicode = 0044;
},
{
color = 5;
glyphname = Eth;
layers = (
{
components = (
{
name = D;
transform = "{1, 0, 0, 1, 25, 0}";
}
);
layerId = "DBFAC7D3-9CB2-48DD-9F53-AD59A4BD1301";
paths = (
{
closed = 1;
nodes = (
"390 314 LINE",
"407 389 LINE",
"32 389 LINE",
"15 314 LINE"
);
}
);
width = 725;
},
{
components = (
{
name = D;
transform = "{1, 0, 0, 1, 58, 0}";
}
);
layerId = "EA77C764-8343-414A-A941-E69667BA8F3A";
paths = (
{
closed = 1;
nodes = (
"422 261 LINE",
"464 442 LINE",
"61 442 LINE",
"19 261 LINE"
);
}
);
width = 806;
},
{
components = (
{
alignment = -1;
name = D;
transform = "{1, 0, 0, 1, 44, 0}";
}
);
layerId = "F97236B5-7CBD-4FD1-81B0-6670342ADB4E";
paths = (
{
closed = 1;
nodes = (
"370 345 LINE",
"373 359 LINE",
"44 359 LINE",
"41 345 LINE"
);
}
);
width = 730;
},
{
components = (
{
alignment = -1;
name = D;
transform = "{1, 0, 0, 1, 43, 0}";
}
);
layerId = "91E16792-BB9C-4BE9-80DD-69B41C5E2CA7";
paths = (
{
closed = 1;
nodes = (
"416 286 LINE",
"447 417 LINE",
"57 417 LINE",
"26 286 LINE"
);
}
);
width = 781;
}
);
leftKerningGroup = I;
rightKerningGroup = O;
rightMetricsKey = D;
unicode = 00D0;
},
{
color = 5;
glyphname = E;
layers = (
{
anchors = (
{
name = bottom;
position = "{286, 0}";
},
{
name = ogonek;
position = "{540, 0}";
},
{
name = top;
position = "{438, 704}";
}
);
layerId = "DBFAC7D3-9CB2-48DD-9F53-AD59A4BD1301";
paths = (
{
closed = 1;
nodes = (
"540 0 LINE",
"558 77 LINE",
"128 77 LINE",
"184 319 LINE",
"505 319 LINE",
"522 395 LINE",
"201 395 LINE",
"255 627 LINE",
"664 627 LINE",
"682 704 LINE",
"190 704 LINE",
"27 0 LINE"
);
}
);
width = 626;
},
{
anchors = (
{
name = bottom;
position = "{295, 0}";
},
{
name = ogonek;
position = "{588, 0}";
},
{
name = top;
position = "{443, 704}";
}
);
color = 4;
layerId = "EA77C764-8343-414A-A941-E69667BA8F3A";
paths = (
{
closed = 1;
nodes = (
"587 0 LINE",
"631 190 LINE",
"258 190 LINE",
"274 259 LINE",
"566 259 LINE",
"609 445 LINE",
"317 445 LINE",
"333 514 LINE",
"694 514 LINE",
"738 704 LINE",
"155 704 LINE",
"-8 0 LINE"
);
}
);
width = 661;
},
{
anchors = (
{
name = bottom;
position = "{273, 0}";
},
{
name = ogonek;
position = "{509, 0}";
},
{
name = top;
position = "{421, 704}";
}
);
layerId = "F97236B5-7CBD-4FD1-81B0-6670342ADB4E";
paths = (
{
closed = 1;
nodes = (
"509 0 LINE",
"513 14 LINE",
"45 14 LINE",
"123 352 LINE",
"484 352 LINE",
"487 366 LINE",
"126 366 LINE",
"201 690 LINE",
"650 690 LINE",
"653 704 LINE",
"187 704 LINE",
"24 0 LINE"
);
}
);
width = 586;
},
{
anchors = (
{
name = bottom;
position = "{300, 0}";
},
{
name = ogonek;
position = "{575, 0}";
},
{
name = top;
position = "{450, 704}";
}
);
color = 4;
layerId = "91E16792-BB9C-4BE9-80DD-69B41C5E2CA7";
paths = (
{
closed = 1;
nodes = (
"575 0 LINE",
"608 142 LINE",
"212 142 LINE",
"245 285 LINE",
"548 285 LINE",
"579 421 LINE",
"276 421 LINE",
"309 562 LINE",
"690 562 LINE",
"723 704 LINE",
"182 704 LINE",
"19 0 LINE"
);
}
);
width = 670;
}
);
leftKerningGroup = I;
leftMetricsKey = H;
rightKerningGroup = E;
unicode = 0045;
},
{
color = 5;
glyphname = F;
layers = (
{
anchors = (
{
name = bottom;
position = "{69, 0}";
},
{
name = ogonek;
position = "{110, 0}";
},
{
name = top;
position = "{433, 704}";
}
);
layerId = "DBFAC7D3-9CB2-48DD-9F53-AD59A4BD1301";
paths = (
{
closed = 1;
nodes = (
"673 704 LINE",
"190 704 LINE",
"27 0 LINE",
"110 0 LINE",
"184 318 LINE",
"515 318 LINE",
"532 394 LINE",
"201 394 LINE",
"255 627 LINE",
"655 627 LINE"
);
}
);
width = 594;
},
{
anchors = (
{
name = bottom;
position = "{110, 0}";
},
{
name = ogonek;
position = "{225, 0}";
},
{
name = top;
position = "{426, 704}";
}
);
color = 4;
guideLines = (
{
angle = 90;
position = "{442, 63}";
showMeasurement = 1;
}
);
layerId = "EA77C764-8343-414A-A941-E69667BA8F3A";
leftMetricsKey = "=I";
paths = (
{
closed = 1;
nodes = (
"729 704 LINE",
"155 704 LINE",
"-8 0 LINE",
"225 0 LINE",
"275 214 LINE",
"550 214 LINE",
"595 409 LINE",
"320 409 LINE",
"342 504 LINE",
"683 504 LINE"
);
}
);
width = 643;
},
{
anchors = (
{
name = bottom;
position = "{32, 0}";
},
{
name = ogonek;
position = "{41, 0}";
},
{
name = top;
position = "{416, 704}";
}
);
layerId = "F97236B5-7CBD-4FD1-81B0-6670342ADB4E";
paths = (
{
closed = 1;
nodes = (
"652 704 LINE",
"187 704 LINE",
"24 0 LINE",
"41 0 LINE",
"123 352 LINE",
"484 352 LINE",
"487 366 LINE",
"126 366 LINE",
"201 690 LINE",
"649 690 LINE"
);
}
);
width = 557;
},
{
anchors = (
{
name = bottom;
position = "{101, 0}";
},
{
name = ogonek;
position = "{181, 0}";
},
{
name = top;
position = "{441, 704}";
}
);
color = 4;
layerId = "91E16792-BB9C-4BE9-80DD-69B41C5E2CA7";
paths = (
{
closed = 1;
nodes = (
"711 704 LINE",
"182 704 LINE",
"19 0 LINE",
"181 0 LINE",
"242 261 LINE",
"543 261 LINE",
"576 404 LINE",
"275 404 LINE",
"311 560 LINE",
"678 560 LINE"
);
}
);
width = 640;
}
);
leftKerningGroup = I;
leftMetricsKey = H;
unicode = 0046;
},
{
color = 5;
glyphname = G;
layers = (
{
anchors = (
{
name = bottom;
position = "{389, 16}";
},
{
name = ogonek;
position = "{437, 0}";
},
{
name = top;
position = "{446, 704}";
}
);
layerId = "DBFAC7D3-9CB2-48DD-9F53-AD59A4BD1301";
paths = (
{
closed = 1;
nodes = (
"564 -9 OFFCURVE",
"695 107 OFFCURVE",
"695 357 CURVE",
"394 357 LINE",
"376 279 LINE",
"609 279 LINE",
"609 153 OFFCURVE",
"512 71 OFFCURVE",
"385 71 CURVE SMOOTH",
"239 71 OFFCURVE",
"156 173 OFFCURVE",
"156 322 CURVE SMOOTH",
"156 479 OFFCURVE",
"251 638 OFFCURVE",
"432 638 CURVE SMOOTH",
"520 638 OFFCURVE",
"599 599 OFFCURVE",
"625 497 CURVE",
"710 526 LINE",
"669 667 OFFCURVE",
"554 715 OFFCURVE",
"435 715 CURVE SMOOTH",
"197 715 OFFCURVE",
"70 518 OFFCURVE",
"70 309 CURVE SMOOTH",
"70 124 OFFCURVE",
"196 -9 OFFCURVE",
"371 -9 CURVE SMOOTH"
);
}
);
width = 722;
},
{
anchors = (
{
name = bottom;
position = "{349, 2}";
},
{
name = ogonek;
position = "{376, 0}";
},
{
name = top;
position = "{467, 704}";
}
);
layerId = "EA77C764-8343-414A-A941-E69667BA8F3A";
paths = (
{
closed = 1;
nodes = (
"632 -11 OFFCURVE",
"749 128 OFFCURVE",
"767 412 CURVE",
"399 412 LINE",
"363 255 LINE",
"539 255 LINE",
"527 201 OFFCURVE",
"490 180 OFFCURVE",
"417 180 CURVE SMOOTH",
"339 180 OFFCURVE",
"288 225 OFFCURVE",
"288 323 CURVE SMOOTH",
"288 434 OFFCURVE",
"334 521 OFFCURVE",
"449 521 CURVE SMOOTH",
"508 521 OFFCURVE",
"544 488 OFFCURVE",
"551 438 CURVE",
"772 513 LINE",
"734 645 OFFCURVE",
"606 715 OFFCURVE",
"461 715 CURVE SMOOTH",
"182 715 OFFCURVE",
"54 529 OFFCURVE",
"54 307 CURVE SMOOTH",
"54 122 OFFCURVE",
"180 -11 OFFCURVE",
"390 -11 CURVE SMOOTH"
);
}
);
width = 767;
},
{
anchors = (
{
name = bottom;
position = "{347, 0}";
},
{
name = ogonek;
position = "{381, 0}";
},
{
name = top;
position = "{438, 704}";
}
);
layerId = "F97236B5-7CBD-4FD1-81B0-6670342ADB4E";
paths = (
{
closed = 1;
nodes = (
"551 -10 OFFCURVE",
"650 135 OFFCURVE",
"659 331 CURVE",
"382 331 LINE",
"379 316 LINE",
"643 316 LINE",
"627 147 OFFCURVE",
"544 5 OFFCURVE",
"358 5 CURVE SMOOTH",
"197 5 OFFCURVE",
"82 115 OFFCURVE",
"82 308 CURVE SMOOTH",
"82 503 OFFCURVE",
"199 700 OFFCURVE",
"422 700 CURVE SMOOTH",
"539 700 OFFCURVE",
"624 637 OFFCURVE",
"661 522 CURVE",
"677 526 LINE",
"639 647 OFFCURVE",
"548 715 OFFCURVE",
"423 715 CURVE SMOOTH",
"188 715 OFFCURVE",
"65 514 OFFCURVE",
"65 305 CURVE SMOOTH",
"65 100 OFFCURVE",
"187 -10 OFFCURVE",
"358 -10 CURVE SMOOTH"
);
}
);
width = 684;
},
{
anchors = (
{
name = bottom;
position = "{371, 9}";
},
{
name = ogonek;
position = "{408, 0}";
},
{
name = top;
position = "{460, 704}";
}
);
layerId = "91E16792-BB9C-4BE9-80DD-69B41C5E2CA7";
paths = (
{
closed = 1;
nodes = (
"608 -10 OFFCURVE",
"734 125 OFFCURVE",
"740 401 CURVE",
"403 401 LINE",
"373 274 LINE",
"571 274 LINE",
"555 181 OFFCURVE",
"498 133 OFFCURVE",
"407 133 CURVE SMOOTH",
"294 133 OFFCURVE",
"231 203 OFFCURVE",
"231 323 CURVE SMOOTH",
"231 455 OFFCURVE",
"298 572 OFFCURVE",
"442 572 CURVE SMOOTH",
"515 572 OFFCURVE",
"571 537 OFFCURVE",
"589 466 CURVE",
"748 521 LINE",
"709 657 OFFCURVE",
"585 715 OFFCURVE",
"457 715 CURVE SMOOTH",
"192 715 OFFCURVE",
"65 524 OFFCURVE",
"65 308 CURVE SMOOTH",
"65 123 OFFCURVE",
"188 -10 OFFCURVE",
"391 -10 CURVE SMOOTH"
);
}
);
width = 758;
}
);
leftKerningGroup = O;
leftMetricsKey = O;
rightKerningGroup = G;
unicode = 0047;
userData = {
com.typemytype.robofont.layerData = {
background = {
anchors = (
);
components = (
);
contours = (
{
points = (
{
smooth = 0;
x = 152;
y = 670;
},
{
smooth = 0;
x = 36;
y = 539;
},
{
segmentType = curve;
smooth = 1;
x = 36;
y = 330;
},
{
smooth = 0;
x = 36;
y = 121;
},
{
smooth = 0;
x = 152;
y = "-10";
},
{
segmentType = curve;
smooth = 1;
x = 337;
y = "-10";
},
{
smooth = 0;
x = 522;
y = "-10";
},
{
smooth = 0;
x = 638;
y = 121;
},
{
segmentType = curve;
smooth = 1;
x = 638;
y = 330;
},
{
smooth = 0;
x = 638;
y = 539;
},
{
smooth = 0;
x = 522;
y = 670;
},
{
segmentType = curve;
smooth = 1;
x = 337;
y = 670;
}
);
},
{
points = (
{
smooth = 0;
x = 512;
y = 656;
},
{
smooth = 0;
x = 622;
y = 530;
},
{
segmentType = curve;
smooth = 1;
x = 622;
y = 330;
},
{
smooth = 0;
x = 622;
y = 130;
},
{
smooth = 0;
x = 512;
y = 4;
},
{
segmentType = curve;
smooth = 1;
x = 337;
y = 4;
},
{
smooth = 0;
x = 162;
y = 4;
},
{
smooth = 0;
x = 52;
y = 130;
},
{
segmentType = curve;
smooth = 1;
x = 52;
y = 330;
},
{
smooth = 0;
x = 52;
y = 530;
},
{
smooth = 0;
x = 162;
y = 656;
},
{
segmentType = curve;
smooth = 1;
x = 337;
y = 656;
}
);
}
);
lib = {
};
name = G.alt;
unicodes = (
);
width = 684;
};
};
};
},
{
color = 5;
glyphname = H;
layers = (
{
anchors = (
{
name = bottom;
position = "{304, 0}";
},
{
name = ogonek;
position = "{580, 0}";
},
{
name = top;
position = "{467, 704}";
}
);
color = 4;
guideLines = (
{
position = "{-78, 100}";
showMeasurement = 1;
}
);
layerId = "DBFAC7D3-9CB2-48DD-9F53-AD59A4BD1301";
paths = (
{
closed = 1;
nodes = (
"660 704 LINE",
"497 0 LINE",
"580 0 LINE",
"743 704 LINE"
);
},
{
closed = 1;
nodes = (
"190 704 LINE",
"27 0 LINE",
"110 0 LINE",
"273 704 LINE"
);
},
{
closed = 1;
nodes = (
"162 395 LINE",
"145 319 LINE",
"610 319 LINE",
"627 395 LINE"
);
}
);
width = 723;
},
{
anchors = (
{
name = bottom;
position = "{332, 0}";
},
{
name = ogonek;
position = "{679, 0}";
},
{
name = top;
position = "{495, 704}";
}
);
color = 4;
guideLines = (
{
position = "{0, 100}";
showMeasurement = 1;
}
);
layerId = "EA77C764-8343-414A-A941-E69667BA8F3A";
paths = (
{
closed = 1;
nodes = (
"598 704 LINE",
"435 0 LINE",
"668 0 LINE",
"831 704 LINE"
);
},
{
closed = 1;
nodes = (
"155 704 LINE",
"-8 0 LINE",
"225 0 LINE",
"388 704 LINE"
);
},
{
closed = 1;
nodes = (
"211 456 LINE",
"163 252 LINE",
"622 252 LINE",
"670 456 LINE"
);
}
);
width = 776;
},
{
anchors = (
{
name = bottom;
position = "{290, 0}";
},
{
name = ogonek;
position = "{555, 0}";
},
{
name = top;
position = "{453, 704}";
}
);
color = 4;
guideLines = (
{
position = "{-73, 100}";
showMeasurement = 1;
}
);
layerId = "F97236B5-7CBD-4FD1-81B0-6670342ADB4E";
paths = (
{
closed = 1;
nodes = (
"701 704 LINE",
"538 0 LINE",
"555 0 LINE",
"718 704 LINE"
);
},
{
closed = 1;
nodes = (
"187 704 LINE",
"24 0 LINE",
"41 0 LINE",
"204 704 LINE"
);
},
{
closed = 1;
nodes = (
"117 366 LINE",
"114 352 LINE",
"630 352 LINE",
"633 366 LINE"
);
}
);
width = 695;
},
{
anchors = (
{
name = bottom;
position = "{329, 0}";
},
{
name = ogonek;
position = "{641, 0}";
},
{
name = top;
position = "{492, 704}";
}
);
color = 4;
layerId = "91E16792-BB9C-4BE9-80DD-69B41C5E2CA7";
paths = (
{
closed = 1;
nodes = (
"638 704 LINE",
"475 0 LINE",
"637 0 LINE",
"800 704 LINE"
);
},
{
closed = 1;
nodes = (
"182 704 LINE",
"19 0 LINE",
"181 0 LINE",
"344 704 LINE"
);
},
{
closed = 1;
nodes = (
"198 427 LINE",
"165 283 LINE",
"626 283 LINE",
"659 427 LINE"
);
}
);
width = 772;
}
);
leftKerningGroup = I;
rightKerningGroup = I;
unicode = 0048;
},
{
color = 5;
glyphname = I;
layers = (
{
anchors = (
{
name = bottom;
position = "{69, 0}";
},
{
name = ogonek;
position = "{110, 0}";
},
{
name = top;
position = "{232, 704}";
}
);
guideLines = (
{
position = "{-78, 200}";
showMeasurement = 1;
}
);
layerId = "DBFAC7D3-9CB2-48DD-9F53-AD59A4BD1301";
paths = (
{
closed = 1;
nodes = (
"190 704 LINE",
"27 0 LINE",
"110 0 LINE",
"273 704 LINE"
);
}
);
width = 253;
},
{
anchors = (
{
name = bottom;
position = "{110, 0}";
},
{
name = ogonek;
position = "{225, 0}";
},
{
name = top;
position = "{272, 704}";
}
);
guideLines = (
{
position = "{0, 200}";
showMeasurement = 1;
}
);
layerId = "EA77C764-8343-414A-A941-E69667BA8F3A";
paths = (
{
closed = 1;
nodes = (
"155 704 LINE",
"-8 0 LINE",
"225 0 LINE",
"388 704 LINE"
);
}
);
width = 333;
},
{
anchors = (
{
name = bottom;
position = "{32, 0}";
},
{
name = ogonek;
position = "{41, 0}";
},
{
name = top;
position = "{195, 704}";
}
);
guideLines = (
{
position = "{-73, 199}";
showMeasurement = 1;
}
);
layerId = "F97236B5-7CBD-4FD1-81B0-6670342ADB4E";
paths = (
{
closed = 1;
nodes = (
"187 704 LINE",
"24 0 LINE",
"41 0 LINE",
"204 704 LINE"
);
}
);
width = 181;
},
{
anchors = (
{
name = bottom;
position = "{101, 0}";
},
{
name = ogonek;
position = "{181, 0}";
},
{
name = top;
position = "{263, 704}";
}
);
color = 4;
layerId = "91E16792-BB9C-4BE9-80DD-69B41C5E2CA7";
paths = (
{
closed = 1;
nodes = (
"182 704 LINE",
"19 0 LINE",
"181 0 LINE",
"344 704 LINE"
);
}
);
width = 316;
}
);
leftKerningGroup = I;
leftMetricsKey = H;
rightKerningGroup = I;
rightMetricsKey = H;
unicode = 0049;
},
{
color = 5;
glyphname = J;
layers = (
{
anchors = (
{
name = bottom;
position = "{179, 0}";
},
{
name = ogonek;
position = "{235, 0}";
},
{
name = top;
position = "{520, 704}";
}
);
layerId = "DBFAC7D3-9CB2-48DD-9F53-AD59A4BD1301";
paths = (
{
closed = 1;
nodes = (
"363 -9 OFFCURVE",
"420 98 OFFCURVE",
"449 220 CURVE SMOOTH",
"562 704 LINE",
"477 704 LINE",
"371 241 LINE SMOOTH",
"346 131 OFFCURVE",
"313 66 OFFCURVE",
"211 66 CURVE SMOOTH",
"102 66 OFFCURVE",
"67 148 OFFCURVE",
"104 260 CURVE",
"25 255 LINE",
"-27 107 OFFCURVE",
"56 -9 OFFCURVE",
"203 -9 CURVE SMOOTH"
);
}
);
width = 531;
},
{
anchors = (
{
name = bottom;
position = "{247, 0}";
},
{
name = ogonek;
position = "{331, 0}";
},
{
name = top;
position = "{602, 704}";
}
);
color = 4;
layerId = "EA77C764-8343-414A-A941-E69667BA8F3A";
paths = (
{
closed = 1;
nodes = (
"501 -11 OFFCURVE",
"579 108 OFFCURVE",
"615 264 CURVE SMOOTH",
"717 704 LINE",
"484 704 LINE",
"387 284 LINE SMOOTH",
"372 221 OFFCURVE",
"354 195 OFFCURVE",
"312 195 CURVE SMOOTH",
"260 195 OFFCURVE",
"226 229 OFFCURVE",
"262 333 CURVE",
"29 324 LINE",
"-37 151 OFFCURVE",
"55 -11 OFFCURVE",
"286 -11 CURVE SMOOTH"
);
}
);
width = 654;
},
{
anchors = (
{
name = bottom;
position = "{167, 1}";
},
{
name = ogonek;
position = "{225, -5}";
},
{
name = top;
position = "{519, 704}";
}
);
color = 4;
guideLines = (
{
angle = 3.764;
position = "{-10, 250}";
}
);
layerId = "F97236B5-7CBD-4FD1-81B0-6670342ADB4E";
paths = (
{
closed = 1;
nodes = (
"307 -11 OFFCURVE",
"379 54 OFFCURVE",
"412 199 CURVE SMOOTH",
"528 704 LINE",
"511 704 LINE",
"396 202 LINE SMOOTH",
"365 65 OFFCURVE",
"299 4 OFFCURVE",
"192 4 CURVE SMOOTH",
"65 4 OFFCURVE",
"6 93 OFFCURVE",
"47 235 CURVE",
"31 234 LINE",
"-14 84 OFFCURVE",
"55 -11 OFFCURVE",
"191 -11 CURVE SMOOTH"
);
}
);
width = 493;
},
{
anchors = (
{
name = bottom;
position = "{230, 0}";
},
{
name = ogonek;
position = "{301, 0}";
},
{
name = top;
position = "{579, 704}";
}
);
color = 4;
layerId = "91E16792-BB9C-4BE9-80DD-69B41C5E2CA7";
paths = (
{
closed = 1;
nodes = (
"452 -11 OFFCURVE",
"519 103 OFFCURVE",
"552 243 CURVE SMOOTH",
"660 704 LINE",
"498 704 LINE",
"396 264 LINE SMOOTH",
"376 179 OFFCURVE",
"350 136 OFFCURVE",
"280 136 CURVE SMOOTH",
"201 136 OFFCURVE",
"167 191 OFFCURVE",
"203 299 CURVE",
"42 292 LINE",
"-17 130 OFFCURVE",
"70 -11 OFFCURVE",
"262 -11 CURVE SMOOTH"
);
}
);
width = 617.13333;
}
);
leftKerningGroup = J;
rightKerningGroup = U;
unicode = 004A;
},
{
color = 5;
glyphname = K;
layers = (
{
anchors = (
{
name = bottom;
position = "{308, 0}";
},
{
name = ogonek;
position = "{579, 0}";
},
{
name = top;
position = "{451, 704}";
}
);
color = 4;
layerId = "DBFAC7D3-9CB2-48DD-9F53-AD59A4BD1301";
paths = (
{
closed = 1;
nodes = (
"609 704 LINE",
"137 299 LINE",
"112 180 LINE",
"355 389 LINE",
"366 396 LINE",
"721 704 LINE"
);
},
{
closed = 1;
nodes = (
"190 704 LINE",
"27 0 LINE",
"110 0 LINE",
"273 704 LINE"
);
},
{
closed = 1;
nodes = (
"311 393 LINE",
"487 0 LINE",
"579 0 LINE",
"378 444 LINE"
);
}
);
width = 630;
},
{
anchors = (
{
name = bottom;
position = "{314, 0}";
},
{
name = ogonek;
position = "{698, 0}";
},
{
name = top;
position = "{478, 704}";
}
);
color = 4;
layerId = "EA77C764-8343-414A-A941-E69667BA8F3A";
paths = (
{
closed = 1;
nodes = (
"585 704 LINE",
"186 332 LINE",
"184 103 LINE",
"400 298 LINE",
"398 275 LINE",
"850 704 LINE"
);
},
{
closed = 1;
nodes = (
"155 704 LINE",
"-8 0 LINE",
"214 0 LINE",
"377 704 LINE"
);
},
{
closed = 1;
nodes = (
"331 337 LINE",
"455 0 LINE",
"698 0 LINE",
"516 461 LINE"
);
}
);
width = 742;
},
{
anchors = (
{
name = bottom;
position = "{259, 0}";
},
{
name = ogonek;
position = "{499, 0}";
},
{
name = top;
position = "{422, 704}";
}
);
color = 4;
layerId = "F97236B5-7CBD-4FD1-81B0-6670342ADB4E";
paths = (
{
closed = 1;
nodes = (
"629 704 LINE",
"92 264 LINE",
"87 241 LINE",
"300 415 LINE",
"304 417 LINE",
"651 704 LINE"
);
},
{
closed = 1;
nodes = (
"187 704 LINE",
"24 0 LINE",
"41 0 LINE",
"204 704 LINE"
);
},
{
closed = 1;
nodes = (
"295 416 LINE",
"482 0 LINE",
"499 0 LINE",
"307 431 LINE"
);
}
);
width = 556;
},
{
anchors = (
{
name = bottom;
position = "{323, 0}";
},
{
name = ogonek;
position = "{650, 0}";
},
{
name = top;
position = "{475, 704}";
}
);
color = 4;
layerId = "91E16792-BB9C-4BE9-80DD-69B41C5E2CA7";
paths = (
{
closed = 1;
nodes = (
"600 704 LINE",
"181 323 LINE",
"159 132 LINE",
"381 329 LINE",
"388 323 LINE",
"802 704 LINE"
);
},
{
closed = 1;
nodes = (
"182 704 LINE",
"19 0 LINE",
"179 0 LINE",
"342 704 LINE"
);
},
{
closed = 1;
nodes = (
"332 368 LINE",
"475 0 LINE",
"650 0 LINE",
"460 466 LINE"
);
}
);
width = 708;
}
);
leftKerningGroup = I;
leftMetricsKey = H;
rightKerningGroup = K;
unicode = 004B;
},
{
color = 5;
glyphname = L;
layers = (
{
anchors = (
{
name = bottom;
position = "{296, 0}";
},
{
name = center;
position = "{424, 378}";
},
{
name = ogonek;
position = "{515, 0}";
},
{
name = top;
position = "{232, 704}";
},
{
name = topright;
position = "{420, 704}";
}
);
layerId = "DBFAC7D3-9CB2-48DD-9F53-AD59A4BD1301";
paths = (
{
closed = 1;
nodes = (
"273 704 LINE",
"190 704 LINE",
"27 0 LINE",
"515 0 LINE",
"533 77 LINE",
"128 77 LINE"
);
}
);
width = 593;
},
{
anchors = (
{
name = bottom;
position = "{278, 0}";
},
{
name = center;
position = "{433, 409}";
},
{
name = ogonek;
position = "{553, 0}";
},
{
name = top;
position = "{272, 704}";
},
{
name = topright;
position = "{476, 704}";
}
);
color = 4;
layerId = "EA77C764-8343-414A-A941-E69667BA8F3A";
paths = (
{
closed = 1;
nodes = (
"388 704 LINE",
"155 704 LINE",
"-8 0 LINE",
"553 0 LINE",
"601 206 LINE",
"273 206 LINE"
);
}
);
width = 634;
},
{
anchors = (
{
name = bottom;
position = "{271, 0}";
},
{
name = center;
position = "{385, 366}";
},
{
name = ogonek;
position = "{484, 0}";
},
{
name = top;
position = "{195, 704}";
},
{
name = topright;
position = "{424, 704}";
}
);
layerId = "F97236B5-7CBD-4FD1-81B0-6670342ADB4E";
paths = (
{
closed = 1;
nodes = (
"204 704 LINE",
"187 704 LINE",
"24 0 LINE",
"484 0 LINE",
"488 14 LINE",
"45 14 LINE"
);
}
);
width = 546;
},
{
anchors = (
{
name = bottom;
position = "{298, 0}";
},
{
name = center;
position = "{440, 399}";
},
{
name = ogonek;
position = "{544, 0}";
},
{
name = top;
position = "{263, 704}";
},
{
name = topright;
position = "{459, 704}";
}
);
color = 4;
layerId = "91E16792-BB9C-4BE9-80DD-69B41C5E2CA7";
paths = (
{
closed = 1;
nodes = (
"344 704 LINE",
"182 704 LINE",
"19 0 LINE",
"544 0 LINE",
"578 145 LINE",
"215 145 LINE"
);
}
);
width = 628;
}
);
leftKerningGroup = I;
leftMetricsKey = H;
rightKerningGroup = L;
unicode = 004C;
},
{
color = 5;
glyphname = Lslash;
layers = (
{
components = (
{
name = L;
transform = "{1, 0, 0, 1, 31, 0}";
}
);
guideLines = (
{
angle = 77;
position = "{-47, 271}";
}
);
layerId = "DBFAC7D3-9CB2-48DD-9F53-AD59A4BD1301";
paths = (
{
closed = 1;
nodes = (
"8 271 LINE",
"-12 183 LINE",
"411 419 LINE",
"431 507 LINE"
);
}
);
width = 624;
},
{
components = (
{
name = L;
transform = "{1, 0, 0, 1, 91, 0}";
}
);
guideLines = (
{
angle = 77;
position = "{1, 140}";
}
);
layerId = "EA77C764-8343-414A-A941-E69667BA8F3A";
paths = (
{
closed = 1;
nodes = (
"48 345 LINE",
"3 147 LINE",
"563 386 LINE",
"608 584 LINE"
);
}
);
width = 725;
},
{
components = (
{
alignment = -1;
name = L;
transform = "{1, 0, 0, 1, 11, 0}";
}
);
layerId = "F97236B5-7CBD-4FD1-81B0-6670342ADB4E";
paths = (
{
closed = 1;
nodes = (
"-10 234 LINE",
"-15 212 LINE",
"352 419 LINE",
"357 441 LINE"
);
}
);
width = 557;
},
{
components = (
{
alignment = -1;
name = L;
transform = "{1, 0, 0, 1, 63, 0}";
}
);
layerId = "91E16792-BB9C-4BE9-80DD-69B41C5E2CA7";
paths = (
{
closed = 1;
nodes = (
"39 310 LINE",
"5 164 LINE",
"501 401 LINE",
"535 548 LINE"
);
}
);
width = 691;
}
);
leftKerningGroup = I;
rightKerningGroup = L;
rightMetricsKey = L;
unicode = 0141;
},
{
color = 5;
glyphname = M;
layers = (
{
anchors = (
{
name = bottom;
position = "{368, 0}";
},
{
name = ogonek;
position = "{708, 0}";
},
{
name = top;
position = "{531, 704}";
}
);
color = 4;
layerId = "DBFAC7D3-9CB2-48DD-9F53-AD59A4BD1301";
paths = (
{
closed = 1;
nodes = (
"108 0 LINE",
"259 648 LINE",
"247 649 LINE",
"320 0 LINE",
"418 0 LINE",
"785 645 LINE",
"776 648 LINE",
"625 0 LINE",
"708 0 LINE",
"871 704 LINE",
"726 704 LINE",
"369 61 LINE",
"390 57 LINE",
"320 704 LINE",
"190 704 LINE",
"27 0 LINE"
);
}
);
width = 851;
},
{
anchors = (
{
name = bottom;
position = "{435, 0}";
},
{
name = ogonek;
position = "{891, 0}";
},
{
name = top;
position = "{595, 715}";
}
);
color = 4;
layerId = "EA77C764-8343-414A-A941-E69667BA8F3A";
leftMetricsKey = "=I";
rightMetricsKey = "=I";
paths = (
{
closed = 1;
nodes = (
"202 0 LINE",
"335 576 LINE",
"307 579 LINE",
"333 0 LINE",
"538 0 LINE",
"826 568 LINE",
"802 576 LINE",
"669 0 LINE",
"891 0 LINE",
"1054 704 LINE",
"699 704 LINE",
"452 171 LINE",
"496 161 LINE",
"492 704 LINE",
"155 704 LINE",
"-8 0 LINE"
);
}
);
width = 999;
},
{
anchors = (
{
name = bottom;
position = "{338, 0}";
},
{
name = ogonek;
position = "{651, 0}";
},
{
name = top;
position = "{501, 704}";
}
);
color = 4;
guideLines = (
{
angle = 77;
position = "{-14, 0}";
},
{
angle = 77;
position = "{580, 0}";
}
);
layerId = "F97236B5-7CBD-4FD1-81B0-6670342ADB4E";
paths = (
{
closed = 1;
nodes = (
"41 0 LINE",
"202 694 LINE",
"199 694 LINE",
"327 0 LINE",
"349 0 LINE",
"797 690 LINE",
"795 691 LINE",
"635 0 LINE",
"651 0 LINE",
"814 704 LINE",
"787 704 LINE",
"337 10 LINE",
"342 9 LINE",
"214 704 LINE",
"187 704 LINE",
"24 0 LINE"
);
}
);
width = 791;
},
{
anchors = (
{
name = bottom;
position = "{412, 0}";
},
{
name = ogonek;
position = "{805, 0}";
},
{
name = top;
position = "{561, 704}";
}
);
color = 4;
layerId = "91E16792-BB9C-4BE9-80DD-69B41C5E2CA7";
paths = (
{
closed = 1;
nodes = (
"169 0 LINE",
"309 607 LINE",
"291 609 LINE",
"330 0 LINE",
"483 0 LINE",
"813 595 LINE",
"785 601 LINE",
"646 0 LINE",
"807 0 LINE",
"970 704 LINE",
"722 702 LINE",
"410 121 LINE",
"447 113 LINE",
"413 702 LINE",
"182 704 LINE",
"19 0 LINE"
);
}
);
width = 942;
}
);
leftKerningGroup = I;
leftMetricsKey = H;
rightKerningGroup = I;
rightMetricsKey = H;
unicode = 004D;
},
{
color = 5;
glyphname = N;
layers = (
{
anchors = (
{
name = bottom;
position = "{333, 0}";
},
{
name = ogonek;
position = "{580, 0}";
},
{
name = top;
position = "{471, 704}";
}
);
color = 4;
layerId = "DBFAC7D3-9CB2-48DD-9F53-AD59A4BD1301";
paths = (
{
closed = 1;
nodes = (
"108 0 LINE",
"257 641 LINE",
"238 660 LINE",
"465 0 LINE",
"580 0 LINE",
"743 704 LINE",
"662 704 LINE",
"513 63 LINE",
"535 44 LINE",
"311 704 LINE",
"190 704 LINE",
"27 0 LINE"
);
}
);
width = 723;
},
{
anchors = (
{
name = bottom;
position = "{337, 0}";
},
{
name = ogonek;
position = "{685, 0}";
},
{
name = top;
position = "{512, 704}";
}
);
color = 4;
layerId = "EA77C764-8343-414A-A941-E69667BA8F3A";
paths = (
{
closed = 1;
nodes = (
"205 0 LINE",
"331 543 LINE",
"279 552 LINE",
"426 0 LINE",
"685 0 LINE",
"848 704 LINE",
"635 704 LINE",
"521 209 LINE",
"567 190 LINE",
"441 704 LINE",
"155 704 LINE",
"-8 0 LINE"
);
}
);
width = 793;
},
{
anchors = (
{
name = bottom;
position = "{289, 0}";
},
{
name = ogonek;
position = "{553, 0}";
},
{
name = top;
position = "{458, 704}";
}
);
color = 4;
layerId = "F97236B5-7CBD-4FD1-81B0-6670342ADB4E";
paths = (
{
closed = 1;
nodes = (
"41 0 LINE",
"201 690 LINE",
"196 689 LINE",
"534 0 LINE",
"553 0 LINE",
"716 704 LINE",
"700 704 LINE",
"540 14 LINE",
"545 15 LINE",
"207 704 LINE",
"187 704 LINE",
"24 0 LINE"
);
}
);
width = 693;
},
{
anchors = (
{
name = bottom;
position = "{345, 0}";
},
{
name = ogonek;
position = "{639, 0}";
},
{
name = top;
position = "{496, 704}";
}
);
color = 4;
layerId = "91E16792-BB9C-4BE9-80DD-69B41C5E2CA7";
paths = (
{
closed = 1;
nodes = (
"165 0 LINE",
"300 582 LINE",
"273 580 LINE",
"465 0 LINE",
"639 0 LINE",
"802 704 LINE",
"656 704 LINE",
"527 146 LINE",
"561 147 LINE",
"376 704 LINE",
"182 704 LINE",
"19 0 LINE"
);
}
);
width = 774;
}
);
leftKerningGroup = I;
leftMetricsKey = H;
rightKerningGroup = I;
rightMetricsKey = H;
unicode = 004E;
},
{
color = 5;
glyphname = O;
layers = (
{
anchors = (
{
name = bottom;
position = "{344, 0}";
},
{
name = center;
position = "{393, 352}";
},
{
name = ogonek;
position = "{456, 2}";
},
{
name = top;
position = "{444, 704}";
},
{
name = topleft;
position = "{101, 704}";
},
{
name = topright;
position = "{660, 704}";
}
);
guideLines = (
{
angle = 77;
position = "{367, 375}";
}
);
layerId = "DBFAC7D3-9CB2-48DD-9F53-AD59A4BD1301";
paths = (
{
closed = 1;
nodes = (
"593 -11 OFFCURVE",
"718 190 OFFCURVE",
"718 405 CURVE SMOOTH",
"718 603 OFFCURVE",
"586 715 OFFCURVE",
"429 715 CURVE SMOOTH",
"195 715 OFFCURVE",
"69 516 OFFCURVE",
"69 299 CURVE SMOOTH",
"69 100 OFFCURVE",
"202 -11 OFFCURVE",
"361 -11 CURVE SMOOTH"
);
},
{
closed = 1;
nodes = (
"242 68 OFFCURVE",
"155 155 OFFCURVE",
"155 304 CURVE SMOOTH",
"155 471 OFFCURVE",
"247 636 OFFCURVE",
"419 636 CURVE SMOOTH",
"544 636 OFFCURVE",
"632 548 OFFCURVE",
"632 400 CURVE SMOOTH",
"632 234 OFFCURVE",
"541 68 OFFCURVE",
"371 68 CURVE SMOOTH"
);
}
);
width = 739;
},
{
anchors = (
{
name = bottom;
position = "{355, 0}";
},
{
name = center;
position = "{413, 352}";
},
{
name = ogonek;
position = "{490, 1}";
},
{
name = top;
position = "{472, 704}";
},
{
name = topleft;
position = "{129, 704}";
},
{
name = topright;
position = "{738, 704}";
}
);
color = 4;
layerId = "EA77C764-8343-414A-A941-E69667BA8F3A";
paths = (
{
closed = 1;
nodes = (
"626 -11 OFFCURVE",
"768 165 OFFCURVE",
"768 396 CURVE SMOOTH",
"768 595 OFFCURVE",
"633 714 OFFCURVE",
"428 714 CURVE SMOOTH",
"195 714 OFFCURVE",
"54 538 OFFCURVE",
"54 306 CURVE SMOOTH",
"54 108 OFFCURVE",
"189 -11 OFFCURVE",
"393 -11 CURVE SMOOTH"
);
},
{
closed = 1;
nodes = (
"330 193 OFFCURVE",
"291 236 OFFCURVE",
"291 311 CURVE SMOOTH",
"291 419 OFFCURVE",
"335 510 OFFCURVE",
"427 510 CURVE SMOOTH",
"494 510 OFFCURVE",
"531 467 OFFCURVE",
"531 392 CURVE SMOOTH",
"531 284 OFFCURVE",
"489 193 OFFCURVE",
"397 193 CURVE SMOOTH"
);
}
);
width = 775;
},
{
anchors = (
{
name = bottom;
position = "{335, 0}";
},
{
name = center;
position = "{384, 352}";
},
{
name = ogonek;
position = "{405, -6}";
},
{
name = top;
position = "{433, 704}";
},
{
name = topleft;
position = "{92, 704}";
},
{
name = topright;
position = "{610, 704}";
}
);
layerId = "F97236B5-7CBD-4FD1-81B0-6670342ADB4E";
paths = (
{
closed = 1;
nodes = (
"584 -11 OFFCURVE",
"704 188 OFFCURVE",
"704 404 CURVE SMOOTH",
"704 604 OFFCURVE",
"577 715 OFFCURVE",
"419 715 CURVE SMOOTH",
"185 715 OFFCURVE",
"65 516 OFFCURVE",
"65 300 CURVE SMOOTH",
"65 100 OFFCURVE",
"192 -11 OFFCURVE",
"350 -11 CURVE SMOOTH"
);
},
{
closed = 1;
nodes = (
"203 4 OFFCURVE",
"82 110 OFFCURVE",
"82 300 CURVE SMOOTH",
"82 509 OFFCURVE",
"197 700 OFFCURVE",
"418 700 CURVE SMOOTH",
"566 700 OFFCURVE",
"687 594 OFFCURVE",
"687 404 CURVE SMOOTH",
"687 195 OFFCURVE",
"572 4 OFFCURVE",
"351 4 CURVE SMOOTH"
);
}
);
width = 722;
},
{
anchors = (
{
name = bottom;
position = "{353, 0}";
},
{
name = center;
position = "{407, 352}";
},
{
name = ogonek;
position = "{477, 1}";
},
{
name = top;
position = "{462, 704}";
},
{
name = topleft;
position = "{119, 704}";
},
{
name = topright;
position = "{705, 704}";
}
);
color = 10;
layerId = "91E16792-BB9C-4BE9-80DD-69B41C5E2CA7";
paths = (
{
closed = 1;
nodes = (
"614 -11 OFFCURVE",
"748 176 OFFCURVE",
"748 400 CURVE SMOOTH",
"748 599 OFFCURVE",
"614 714 OFFCURVE",
"432 714 CURVE SMOOTH",
"198 714 OFFCURVE",
"64 527 OFFCURVE",
"64 303 CURVE SMOOTH",
"64 104 OFFCURVE",
"198 -11 OFFCURVE",
"380 -11 CURVE SMOOTH"
);
},
{
closed = 1;
nodes = (
"290 136 OFFCURVE",
"229 199 OFFCURVE",
"229 307 CURVE SMOOTH",
"229 442 OFFCURVE",
"295 567 OFFCURVE",
"426 567 CURVE SMOOTH",
"522 567 OFFCURVE",
"583 504 OFFCURVE",
"583 396 CURVE SMOOTH",
"583 261 OFFCURVE",
"517 136 OFFCURVE",
"386 136 CURVE SMOOTH"
);
}
);
width = 765;
}
);
leftKerningGroup = O;
rightKerningGroup = O;
unicode = 004F;
},
{
color = 5;
glyphname = Oslash;
layers = (
{
components = (
{
name = O;
}
);
layerId = "DBFAC7D3-9CB2-48DD-9F53-AD59A4BD1301";
paths = (
{
closed = 1;
nodes = (
"101 -8 LINE",
"781 712 LINE",
"690 712 LINE",
"10 -8 LINE"
);
}
);
width = 739;
},
{
components = (
{
name = O;
}
);
layerId = "EA77C764-8343-414A-A941-E69667BA8F3A";
paths = (
{
closed = 1;
nodes = (
"118 -6 LINE",
"846 710 LINE",
"705 710 LINE",
"-23 -6 LINE"
);
}
);
width = 775;
},
{
components = (
{
alignment = -1;
name = O;
}
);
layerId = "F97236B5-7CBD-4FD1-81B0-6670342ADB4E";
paths = (
{
closed = 1;
nodes = (
"34 -10 LINE",
"756 714 LINE",
"735 714 LINE",
"13 -10 LINE"
);
}
);
width = 722;
},
{
components = (
{
alignment = -1;
name = O;
}
);
layerId = "91E16792-BB9C-4BE9-80DD-69B41C5E2CA7";
paths = (
{
closed = 1;
nodes = (
"119 -7 LINE",
"825 711 LINE",
"707 711 LINE",
"2 -7 LINE"
);
}
);
width = 765;
}
);
leftKerningGroup = O;
leftMetricsKey = O;
rightKerningGroup = O;
rightMetricsKey = O;
unicode = 00D8;
},
{
color = 5;
glyphname = OE;
layers = (
{
anchors = (
{
name = bottom;
position = "{549, 0}";
},
{
name = ogonek;
position = "{1003, 0}";
},
{
name = top;
position = "{712, 704}";
}
);
color = 4;
layerId = "DBFAC7D3-9CB2-48DD-9F53-AD59A4BD1301";
paths = (
{
closed = 1;
nodes = (
"434 -11 OFFCURVE",
"504 19 OFFCURVE",
"564 92 CURVE",
"541 0 LINE",
"1003 0 LINE",
"1022 78 LINE",
"634 78 LINE",
"691 318 LINE",
"972 318 LINE",
"990 396 LINE",
"708 396 LINE",
"762 626 LINE",
"1131 626 LINE",
"1150 704 LINE",
"704 704 LINE",
"668 547 LINE",
"638 655 OFFCURVE",
"538 715 OFFCURVE",
"428 715 CURVE SMOOTH",
"202 715 OFFCURVE",
"69 526 OFFCURVE",
"69 298 CURVE SMOOTH",
"69 101 OFFCURVE",
"202 -11 OFFCURVE",
"354 -11 CURVE SMOOTH"
);
},
{
closed = 1;
nodes = (
"242 68 OFFCURVE",
"156 156 OFFCURVE",
"156 304 CURVE SMOOTH",
"156 471 OFFCURVE",
"249 636 OFFCURVE",
"417 636 CURVE SMOOTH",
"540 636 OFFCURVE",
"622 548 OFFCURVE",
"622 400 CURVE SMOOTH",
"622 225 OFFCURVE",
"527 68 OFFCURVE",
"364 68 CURVE SMOOTH"
);
}
);
width = 1090;
},
{
anchors = (
{
name = bottom;
position = "{518, 0}";
},
{
name = ogonek;
position = "{1024, 0}";
},
{
name = top;
position = "{719, 704}";
}
);
color = 4;
guideLines = (
{
angle = 77;
position = "{810, 532}";
},
{
angle = 77;
position = "{1187, 704}";
}
);
layerId = "EA77C764-8343-414A-A941-E69667BA8F3A";
paths = (
{
closed = 1;
nodes = (
"424 -11 OFFCURVE",
"494 18 OFFCURVE",
"532 67 CURVE",
"517 0 LINE",
"1024 0 LINE",
"1067 184 LINE",
"729 184 LINE",
"748 265 LINE",
"1019 265 LINE",
"1059 437 LINE",
"788 437 LINE",
"807 520 LINE",
"1145 520 LINE",
"1187 704 LINE",
"679 704 LINE",
"657 609 LINE",
"621 675 OFFCURVE",
"545 715 OFFCURVE",
"433 715 CURVE SMOOTH",
"195 715 OFFCURVE",
"53 534 OFFCURVE",
"53 298 CURVE SMOOTH",
"53 63 OFFCURVE",
"191 -11 OFFCURVE",
"336 -11 CURVE SMOOTH"
);
},
{
closed = 1;
nodes = (
"329 193 OFFCURVE",
"290 236 OFFCURVE",
"290 311 CURVE SMOOTH",
"290 419 OFFCURVE",
"334 510 OFFCURVE",
"426 510 CURVE SMOOTH",
"493 510 OFFCURVE",
"530 467 OFFCURVE",
"530 392 CURVE SMOOTH",
"530 284 OFFCURVE",
"488 193 OFFCURVE",
"396 193 CURVE SMOOTH"
);
}
);
width = 1099;
},
{
anchors = (
{
name = bottom;
position = "{488, 0}";
},
{
name = ogonek;
position = "{999, 0}";
},
{
name = top;
position = "{641, 704}";
}
);
layerId = "F97236B5-7CBD-4FD1-81B0-6670342ADB4E";
paths = (
{
closed = 1;
nodes = (
"446 -11 OFFCURVE",
"532 48 OFFCURVE",
"585 149 CURVE",
"551 0 LINE",
"999 0 LINE",
"1004 15 LINE",
"573 15 LINE",
"649 352 LINE",
"976 352 LINE",
"980 367 LINE",
"654 367 LINE",
"727 689 LINE",
"1138 689 LINE",
"1142 704 LINE",
"715 704 LINE",
"648 420 LINE",
"654 594 OFFCURVE",
"583 715 OFFCURVE",
"408 715 CURVE SMOOTH",
"200 715 OFFCURVE",
"65 519 OFFCURVE",
"65 303 CURVE SMOOTH",
"65 103 OFFCURVE",
"168 -11 OFFCURVE",
"327 -11 CURVE SMOOTH"
);
},
{
closed = 1;
nodes = (
"181 4 OFFCURVE",
"82 113 OFFCURVE",
"82 303 CURVE SMOOTH",
"82 506 OFFCURVE",
"209 700 OFFCURVE",
"407 700 CURVE SMOOTH",
"578 700 OFFCURVE",
"641 572 OFFCURVE",
"633 407 CURVE SMOOTH",
"621 181 OFFCURVE",
"521 4 OFFCURVE",
"327 4 CURVE SMOOTH"
);
}
);
width = 1077;
},
{
anchors = (
{
name = bottom;
position = "{536, 0}";
},
{
name = ogonek;
position = "{1017, 0}";
},
{
name = top;
position = "{719, 704}";
}
);
layerId = "91E16792-BB9C-4BE9-80DD-69B41C5E2CA7";
paths = (
{
closed = 1;
nodes = (
"432 -11 OFFCURVE",
"502 18 OFFCURVE",
"550 79 CURVE",
"531 0 LINE",
"1017 0 LINE",
"1049 135 LINE",
"688 135 LINE",
"725 290 LINE",
"1000 290 LINE",
"1030 418 LINE",
"754 418 LINE",
"789 569 LINE",
"1142 569 LINE",
"1173 704 LINE",
"694 704 LINE",
"665 580 LINE",
"632 666 OFFCURVE",
"545 715 OFFCURVE",
"434 715 CURVE SMOOTH",
"202 715 OFFCURVE",
"64 530 OFFCURVE",
"64 298 CURVE SMOOTH",
"64 81 OFFCURVE",
"199 -11 OFFCURVE",
"348 -11 CURVE SMOOTH"
);
},
{
closed = 1;
nodes = (
"292 135 OFFCURVE",
"231 199 OFFCURVE",
"231 308 CURVE SMOOTH",
"231 443 OFFCURVE",
"298 569 OFFCURVE",
"425 569 CURVE SMOOTH",
"518 569 OFFCURVE",
"576 505 OFFCURVE",
"576 396 CURVE SMOOTH",
"576 256 OFFCURVE",
"509 135 OFFCURVE",
"384 135 CURVE SMOOTH"
);
}
);
width = 1113;
}
);
leftKerningGroup = O;
leftMetricsKey = O;
rightKerningGroup = E;
rightMetricsKey = E;
unicode = 0152;
},
{
color = 5;
glyphname = P;
layers = (
{
anchors = (
{
name = bottom;
position = "{69, 0}";
},
{
name = ogonek;
position = "{110, 0}";
},
{
name = top;
position = "{408, 704}";
}
);
layerId = "DBFAC7D3-9CB2-48DD-9F53-AD59A4BD1301";
paths = (
{
closed = 1;
nodes = (
"110 0 LINE",
"256 626 LINE",
"388 626 LINE SMOOTH",
"483 626 OFFCURVE",
"534 579 OFFCURVE",
"534 507 CURVE SMOOTH",
"534 422 OFFCURVE",
"477 350 OFFCURVE",
"364 350 CURVE SMOOTH",
"156 350 LINE",
"139 272 LINE",
"345 272 LINE SMOOTH",
"510 272 OFFCURVE",
"620 372 OFFCURVE",
"620 511 CURVE SMOOTH",
"620 626 OFFCURVE",
"535 704 OFFCURVE",
"394 704 CURVE SMOOTH",
"190 704 LINE",
"27 0 LINE"
);
}
);
width = 591;
},
{
anchors = (
{
name = bottom;
position = "{106, 0}";
},
{
name = ogonek;
position = "{219, 0}";
},
{
name = top;
position = "{447, 704}";
}
);
color = 4;
layerId = "EA77C764-8343-414A-A941-E69667BA8F3A";
paths = (
{
closed = 1;
nodes = (
"219 0 LINE",
"338 514 LINE",
"427 514 LINE SMOOTH",
"477 514 OFFCURVE",
"504 493 OFFCURVE",
"504 449 CURVE SMOOTH",
"504 398 OFFCURVE",
"469 364 OFFCURVE",
"403 364 CURVE SMOOTH",
"288 364 LINE",
"244 175 LINE",
"412 175 LINE SMOOTH",
"622 175 OFFCURVE",
"737 286 OFFCURVE",
"737 470 CURVE SMOOTH",
"737 603 OFFCURVE",
"644 704 OFFCURVE",
"472 704 CURVE SMOOTH",
"155 704 LINE",
"-8 0 LINE"
);
}
);
width = 708;
},
{
anchors = (
{
name = bottom;
position = "{32, 0}";
},
{
name = ogonek;
position = "{41, 0}";
},
{
name = top;
position = "{391, 704}";
}
);
color = 4;
guideLines = (
{
angle = 256.9483;
position = "{77, 375}";
}
);
layerId = "F97236B5-7CBD-4FD1-81B0-6670342ADB4E";
paths = (
{
closed = 1;
nodes = (
"41 0 LINE",
"201 689 LINE",
"369 689 LINE SMOOTH",
"496 689 OFFCURVE",
"573 626 OFFCURVE",
"573 526 CURVE SMOOTH",
"573 409 OFFCURVE",
"487 314 OFFCURVE",
"333 314 CURVE SMOOTH",
"104 314 LINE",
"104 299 LINE",
"331 299 LINE SMOOTH",
"497 299 OFFCURVE",
"590 396 OFFCURVE",
"590 526 CURVE SMOOTH",
"590 638 OFFCURVE",
"503 704 OFFCURVE",
"369 704 CURVE SMOOTH",
"187 704 LINE",
"24 0 LINE"
);
}
);
width = 567;
},
{
anchors = (
{
name = bottom;
position = "{99, 0}";
},
{
name = ogonek;
position = "{182, 0}";
},
{
name = top;
position = "{439, 704}";
}
);
color = 4;
layerId = "91E16792-BB9C-4BE9-80DD-69B41C5E2CA7";
paths = (
{
closed = 1;
nodes = (
"182 0 LINE",
"312 562 LINE",
"426 562 LINE SMOOTH",
"497 562 OFFCURVE",
"529 530 OFFCURVE",
"529 473 CURVE SMOOTH",
"529 406 OFFCURVE",
"485 359 OFFCURVE",
"397 359 CURVE SMOOTH",
"238 359 LINE",
"205 217 LINE",
"391 217 LINE SMOOTH",
"580 217 OFFCURVE",
"693 317 OFFCURVE",
"693 486 CURVE SMOOTH",
"693 611 OFFCURVE",
"612 704 OFFCURVE",
"455 704 CURVE SMOOTH",
"182 704 LINE",
"19 0 LINE"
);
}
);
width = 681;
}
);
leftKerningGroup = I;
leftMetricsKey = H;
unicode = 0050;
},
{
color = 5;
glyphname = Thorn;
layers = (
{
anchors = (
{
name = bottom;
position = "{69, 0}";
},
{
name = ogonek;
position = "{110, 0}";
},
{
name = top;
position = "{232, 704}";
}
);
layerId = "DBFAC7D3-9CB2-48DD-9F53-AD59A4BD1301";
paths = (
{
closed = 1;
nodes = (
"334 141 LINE SMOOTH",
"490 141 OFFCURVE",
"599 242 OFFCURVE",
"599 382 CURVE SMOOTH",
"599 496 OFFCURVE",
"515 573 OFFCURVE",
"374 573 CURVE SMOOTH",
"214 573 LINE",
"194 495 LINE",
"367 495 LINE SMOOTH",
"459 495 OFFCURVE",
"513 452 OFFCURVE",
"513 384 CURVE SMOOTH",
"513 297 OFFCURVE",
"460 219 OFFCURVE",
"344 219 CURVE SMOOTH",
"132 219 LINE",
"115 141 LINE"
);
},
{
closed = 1;
nodes = (
"110 0 LINE",
"274 704 LINE",
"190 704 LINE",
"27 0 LINE"
);
}
);
width = 604;
},
{
anchors = (
{
name = bottom;
position = "{109, 0}";
},
{
name = ogonek;
position = "{226, 0}";
},
{
name = top;
position = "{272, 704}";
}
);
color = 4;
layerId = "EA77C764-8343-414A-A941-E69667BA8F3A";
leftMetricsKey = "=I";
paths = (
{
closed = 1;
nodes = (
"394 105 LINE SMOOTH",
"611 105 OFFCURVE",
"726 220 OFFCURVE",
"726 394 CURVE SMOOTH",
"726 535 OFFCURVE",
"633 614 OFFCURVE",
"478 614 CURVE SMOOTH",
"263 614 LINE",
"223 424 LINE",
"422 424 LINE SMOOTH",
"476 424 OFFCURVE",
"497 405 OFFCURVE",
"497 367 CURVE SMOOTH",
"497 324 OFFCURVE",
"468 295 OFFCURVE",
"401 295 CURVE SMOOTH",
"191 295 LINE",
"154 105 LINE"
);
},
{
closed = 1;
nodes = (
"220 0 LINE",
"383 704 LINE",
"156 704 LINE",
"-8 0 LINE"
);
}
);
width = 721;
},
{
anchors = (
{
name = bottom;
position = "{32, 0}";
},
{
name = ogonek;
position = "{41, 0}";
},
{
name = top;
position = "{195, 704}";
}
);
color = 4;
layerId = "F97236B5-7CBD-4FD1-81B0-6670342ADB4E";
paths = (
{
closed = 1;
nodes = (
"303 143 LINE SMOOTH",
"471 143 OFFCURVE",
"561 242 OFFCURVE",
"561 370 CURVE SMOOTH",
"561 482 OFFCURVE",
"474 548 OFFCURVE",
"340 548 CURVE SMOOTH",
"162 548 LINE",
"162 533 LINE",
"340 533 LINE SMOOTH",
"467 533 OFFCURVE",
"544 470 OFFCURVE",
"544 370 CURVE SMOOTH",
"544 253 OFFCURVE",
"458 158 OFFCURVE",
"304 158 CURVE SMOOTH",
"73 158 LINE",
"73 143 LINE"
);
},
{
closed = 1;
nodes = (
"41 0 LINE",
"204 704 LINE",
"187 704 LINE",
"24 0 LINE"
);
}
);
width = 564;
},
{
anchors = (
{
name = bottom;
position = "{101, 0}";
},
{
name = ogonek;
position = "{182, 0}";
},
{
name = top;
position = "{264, 704}";
}
);
color = 4;
layerId = "91E16792-BB9C-4BE9-80DD-69B41C5E2CA7";
paths = (
{
closed = 1;
nodes = (
"376 122 LINE SMOOTH",
"565 122 OFFCURVE",
"677 230 OFFCURVE",
"677 388 CURVE SMOOTH",
"677 517 OFFCURVE",
"588 597 OFFCURVE",
"440 597 CURVE SMOOTH",
"250 597 LINE",
"220 459 LINE",
"406 459 LINE SMOOTH",
"477 459 OFFCURVE",
"514 427 OFFCURVE",
"514 375 CURVE SMOOTH",
"514 311 OFFCURVE",
"474 261 OFFCURVE",
"384 261 CURVE SMOOTH",
"174 261 LINE",
"146 122 LINE"
);
},
{
closed = 1;
nodes = (
"182 0 LINE",
"345 704 LINE",
"182 704 LINE",
"19 0 LINE"
);
}
);
width = 686;
}
);
leftKerningGroup = I;
leftMetricsKey = H;
unicode = 00DE;
},
{
color = 5;
glyphname = Q;
layers = (
{
anchors = (
{
name = bottom;
position = "{468, -210}";
},
{
name = ogonek;
position = "{523, -205}";
}
);
components = (
{
name = O;
}
);
hints = (
{
horizontal = 1;
place = "{-215, 61}";
type = Stem;
}
);
layerId = "DBFAC7D3-9CB2-48DD-9F53-AD59A4BD1301";
paths = (
{
closed = 1;
nodes = (
"508 -213 OFFCURVE",
"557 -205 OFFCURVE",
"597 -183 CURVE",
"579 -107 LINE",
"547 -124 OFFCURVE",
"518 -134 OFFCURVE",
"477 -134 CURVE SMOOTH",
"399 -134 OFFCURVE",
"353 -76 OFFCURVE",
"372 8 CURVE SMOOTH",
"381 47 LINE",
"299 30 LINE",
"293 4 LINE SMOOTH",
"263 -125 OFFCURVE",
"354 -213 OFFCURVE",
"468 -213 CURVE SMOOTH"
);
}
);
width = 739;
},
{
anchors = (
{
name = bottom;
position = "{259, -210}";
},
{
name = ogonek;
position = "{478, -202}";
}
);
color = 4;
components = (
{
name = O;
}
);
guideLines = (
{
angle = 90;
position = "{692, 57}";
}
);
hints = (
{
horizontal = 1;
place = "{-210, 170}";
type = Stem;
}
);
layerId = "EA77C764-8343-414A-A941-E69667BA8F3A";
leftMetricsKey = "=O";
rightMetricsKey = "=O";
paths = (
{
closed = 1;
nodes = (
"552 -231 OFFCURVE",
"598 -220 OFFCURVE",
"643 -203 CURVE",
"621 -39 LINE",
"584 -50 OFFCURVE",
"556 -58 OFFCURVE",
"504 -58 CURVE SMOOTH",
"453 -58 OFFCURVE",
"417 -33 OFFCURVE",
"426 7 CURVE SMOOTH",
"448 102 LINE",
"264 102 LINE",
"245 23 LINE SMOOTH",
"201 -158 OFFCURVE",
"336 -231 OFFCURVE",
"466 -231 CURVE SMOOTH"
);
}
);
width = 775;
},
{
anchors = (
{
name = bottom;
position = "{449, -203}";
},
{
name = ogonek;
position = "{563, -181}";
}
);
components = (
{
alignment = -1;
name = O;
}
);
hints = (
{
horizontal = 1;
place = "{-195, 14}";
type = Stem;
}
);
layerId = "F97236B5-7CBD-4FD1-81B0-6670342ADB4E";
paths = (
{
closed = 1;
nodes = (
"527 -205 OFFCURVE",
"581 -186 OFFCURVE",
"623 -144 CURVE",
"613 -132 LINE",
"572 -175 OFFCURVE",
"515 -191 OFFCURVE",
"460 -191 CURVE SMOOTH",
"342 -191 OFFCURVE",
"290 -114 OFFCURVE",
"315 -19 CURVE SMOOTH",
"319 -4 LINE",
"305 2 LINE",
"299 -22 LINE SMOOTH",
"274 -122 OFFCURVE",
"334 -205 OFFCURVE",
"458 -205 CURVE SMOOTH"
);
}
);
width = 722;
},
{
anchors = (
{
name = bottom;
position = "{366, -210}";
},
{
name = ogonek;
position = "{508, -203}";
}
);
components = (
{
alignment = -1;
name = O;
}
);
hints = (
{
horizontal = 1;
place = "{-203, 128.467}";
type = Stem;
}
);
layerId = "91E16792-BB9C-4BE9-80DD-69B41C5E2CA7";
paths = (
{
closed = 1;
nodes = (
"541 -223 OFFCURVE",
"587 -213 OFFCURVE",
"635 -193 CURVE",
"611 -64 LINE",
"579 -79 OFFCURVE",
"548 -88 OFFCURVE",
"501 -88 CURVE SMOOTH",
"430 -88 OFFCURVE",
"392 -53 OFFCURVE",
"406 7 CURVE SMOOTH",
"422 76 LINE",
"286 68 LINE",
"273 14 LINE SMOOTH",
"235 -143 OFFCURVE",
"339 -223 OFFCURVE",
"476 -223 CURVE SMOOTH"
);
}
);
width = 765;
}
);
leftKerningGroup = O;
leftMetricsKey = O;
widthMetricsKey = O;
rightKerningGroup = O;
unicode = 0051;
},
{
color = 5;
glyphname = R;
layers = (
{
anchors = (
{
name = bottom;
position = "{308, 0}";
},
{
name = ogonek;
position = "{569, 0}";
},
{
name = top;
position = "{406, 704}";
}
);
color = 4;
layerId = "DBFAC7D3-9CB2-48DD-9F53-AD59A4BD1301";
paths = (
{
closed = 1;
nodes = (
"110 0 LINE",
"256 626 LINE",
"404 626 LINE SMOOTH",
"488 626 OFFCURVE",
"541 588 OFFCURVE",
"541 516 CURVE SMOOTH",
"541 432 OFFCURVE",
"486 363 OFFCURVE",
"372 363 CURVE SMOOTH",
"178 363 LINE",
"160 285 LINE",
"380 285 LINE",
"432 292 LINE",
"536 309 OFFCURVE",
"627 395 OFFCURVE",
"627 514 CURVE SMOOTH",
"627 633 OFFCURVE",
"547 704 OFFCURVE",
"421 704 CURVE SMOOTH",
"190 704 LINE",
"27 0 LINE"
);
},
{
closed = 1;
nodes = (
"569 0 LINE",
"442 311 LINE",
"358 301 LINE",
"478 0 LINE"
);
}
);
width = 622;
},
{
anchors = (
{
name = bottom;
position = "{332, 0}";
},
{
name = ogonek;
position = "{664, 0}";
},
{
name = top;
position = "{451, 704}";
}
);
color = 4;
layerId = "EA77C764-8343-414A-A941-E69667BA8F3A";
paths = (
{
closed = 1;
nodes = (
"220 0 LINE",
"340 523 LINE",
"438 523 LINE SMOOTH",
"483 523 OFFCURVE",
"516 506 OFFCURVE",
"516 460 CURVE SMOOTH",
"516 408 OFFCURVE",
"478 386 OFFCURVE",
"413 386 CURVE SMOOTH",
"295 386 LINE",
"254 209 LINE",
"397 209 LINE",
"450 219 LINE",
"610 221 OFFCURVE",
"746 314 OFFCURVE",
"746 483 CURVE SMOOTH",
"746 623 OFFCURVE",
"646 704 OFFCURVE",
"484 704 CURVE SMOOTH",
"155 704 LINE",
"-8 0 LINE"
);
},
{
closed = 1;
nodes = (
"664 0 LINE",
"545 342 LINE",
"327 307 LINE",
"420 0 LINE"
);
}
);
width = 726;
},
{
anchors = (
{
name = bottom;
position = "{282, 0}";
},
{
name = ogonek;
position = "{525, 0}";
},
{
name = top;
position = "{381, 704}";
}
);
color = 4;
guideLines = (
{
angle = 256.9483;
position = "{504, 0}";
}
);
layerId = "F97236B5-7CBD-4FD1-81B0-6670342ADB4E";
paths = (
{
closed = 1;
nodes = (
"41 0 LINE",
"201 689 LINE",
"402 689 LINE SMOOTH",
"529 689 OFFCURVE",
"590 624 OFFCURVE",
"590 530 CURVE SMOOTH",
"590 419 OFFCURVE",
"517 331 OFFCURVE",
"364 331 CURVE SMOOTH",
"105 331 LINE",
"105 316 LINE",
"362 316 LINE",
"362 316 LINE SMOOTH",
"528 316 OFFCURVE",
"607 409 OFFCURVE",
"607 532 CURVE SMOOTH",
"607 638 OFFCURVE",
"536 704 OFFCURVE",
"402 704 CURVE SMOOTH",
"187 704 LINE",
"24 0 LINE"
);
},
{
closed = 1;
nodes = (
"525 0 LINE",
"397 329 LINE",
"379 329 LINE",
"507 0 LINE"
);
}
);
width = 607;
},
{
anchors = (
{
name = bottom;
position = "{331, 0}";
},
{
name = ogonek;
position = "{630, 0}";
},
{
name = top;
position = "{440, 704}";
}
);
color = 4;
layerId = "91E16792-BB9C-4BE9-80DD-69B41C5E2CA7";
paths = (
{
closed = 1;
nodes = (
"179 0 LINE",
"309 563 LINE",
"436 563 LINE SMOOTH",
"501 563 OFFCURVE",
"538 534 OFFCURVE",
"538 481 CURVE SMOOTH",
"538 418 OFFCURVE",
"495 381 OFFCURVE",
"407 381 CURVE SMOOTH",
"251 381 LINE",
"220 242 LINE",
"399 242 LINE",
"448 249 LINE",
"593 249 OFFCURVE",
"701 349 OFFCURVE",
"701 494 CURVE SMOOTH",
"701 625 OFFCURVE",
"610 704 OFFCURVE",
"465 704 CURVE SMOOTH",
"182 704 LINE",
"19 0 LINE"
);
},
{
closed = 1;
nodes = (
"630 0 LINE",
"507 328 LINE",
"352 304 LINE",
"457 0 LINE"
);
}
);
width = 693;
}
);
leftKerningGroup = I;
leftMetricsKey = H;
rightKerningGroup = R;
unicode = 0052;
},
{
color = 5;
glyphname = S;
layers = (
{
anchors = (
{
name = bottom;
position = "{274, 0}";
},
{
name = ogonek;
position = "{314, 0}";
},
{
name = top;
position = "{392, 704}";
}
);
layerId = "DBFAC7D3-9CB2-48DD-9F53-AD59A4BD1301";
paths = (
{
closed = 1;
nodes = (
"467 -9 OFFCURVE",
"582 77 OFFCURVE",
"582 208 CURVE SMOOTH",
"582 287 OFFCURVE",
"532 342 OFFCURVE",
"429 372 CURVE SMOOTH",
"303 409 LINE SMOOTH",
"241 427 OFFCURVE",
"200 458 OFFCURVE",
"200 517 CURVE SMOOTH",
"200 589 OFFCURVE",
"256 638 OFFCURVE",
"362 638 CURVE SMOOTH",
"445 638 OFFCURVE",
"528 613 OFFCURVE",
"556 502 CURVE",
"639 543 LINE",
"598 659 OFFCURVE",
"504 716 OFFCURVE",
"367 716 CURVE SMOOTH",
"212 716 OFFCURVE",
"113 625 OFFCURVE",
"113 506 CURVE SMOOTH",
"113 421 OFFCURVE",
"174 357 OFFCURVE",
"283 326 CURVE SMOOTH",
"396 294 LINE SMOOTH",
"451 278 OFFCURVE",
"495 254 OFFCURVE",
"495 195 CURVE SMOOTH",
"495 129 OFFCURVE",
"440 69 OFFCURVE",
"336 69 CURVE SMOOTH",
"223 69 OFFCURVE",
"130 116 OFFCURVE",
"95 241 CURVE",
"12 199 LINE",
"58 64 OFFCURVE",
"171 -9 OFFCURVE",
"328 -9 CURVE SMOOTH"
);
}
);
width = 628;
},
{
anchors = (
{
name = bottom;
position = "{288, 0}";
},
{
name = ogonek;
position = "{326, 0}";
},
{
name = top;
position = "{420, 704}";
}
);
layerId = "EA77C764-8343-414A-A941-E69667BA8F3A";
paths = (
{
closed = 1;
nodes = (
"551 -11 OFFCURVE",
"656 87 OFFCURVE",
"656 237 CURVE SMOOTH",
"656 350 OFFCURVE",
"594 398 OFFCURVE",
"483 429 CURVE SMOOTH",
"375 459 LINE SMOOTH",
"334 470 OFFCURVE",
"309 482 OFFCURVE",
"309 503 CURVE SMOOTH",
"309 523 OFFCURVE",
"328 532 OFFCURVE",
"367 532 CURVE SMOOTH",
"436 532 OFFCURVE",
"541 489 OFFCURVE",
"607 429 CURVE",
"722 594 LINE",
"633 667 OFFCURVE",
"517 715 OFFCURVE",
"384 715 CURVE SMOOTH",
"213 715 OFFCURVE",
"78 645 OFFCURVE",
"78 476 CURVE SMOOTH",
"78 357 OFFCURVE",
"170 300 OFFCURVE",
"271 272 CURVE SMOOTH",
"358 248 LINE SMOOTH",
"411 233 OFFCURVE",
"425 228 OFFCURVE",
"425 207 CURVE SMOOTH",
"425 188 OFFCURVE",
"411 177 OFFCURVE",
"366 177 CURVE SMOOTH",
"266 177 OFFCURVE",
"172 233 OFFCURVE",
"109 289 CURVE",
"-13 118 LINE",
"80 35 OFFCURVE",
"204 -11 OFFCURVE",
"355 -11 CURVE SMOOTH"
);
}
);
width = 678;
},
{
anchors = (
{
name = bottom;
position = "{263, 0}";
},
{
name = ogonek;
position = "{303, 0}";
},
{
name = top;
position = "{373, 704}";
}
);
guideLines = (
{
angle = 256.9483;
position = "{550, 223}";
},
{
angle = 256.9483;
position = "{21, 375}";
}
);
layerId = "F97236B5-7CBD-4FD1-81B0-6670342ADB4E";
paths = (
{
closed = 1;
nodes = (
"439 -9 OFFCURVE",
"555 55 OFFCURVE",
"555 181 CURVE SMOOTH",
"555 260 OFFCURVE",
"489 316 OFFCURVE",
"368 348 CURVE SMOOTH",
"289 369 LINE SMOOTH",
"187 396 OFFCURVE",
"134 454 OFFCURVE",
"134 533 CURVE SMOOTH",
"134 627 OFFCURVE",
"220 701 OFFCURVE",
"355 701 CURVE SMOOTH",
"478 701 OFFCURVE",
"564 651 OFFCURVE",
"594 540 CURVE",
"610 545 LINE",
"581 660 OFFCURVE",
"484 716 OFFCURVE",
"356 716 CURVE SMOOTH",
"206 716 OFFCURVE",
"117 636 OFFCURVE",
"117 532 CURVE SMOOTH",
"117 445 OFFCURVE",
"177 381 OFFCURVE",
"284 353 CURVE SMOOTH",
"367 331 LINE SMOOTH",
"476 302 OFFCURVE",
"538 253 OFFCURVE",
"538 179 CURVE SMOOTH",
"538 65 OFFCURVE",
"426 6 OFFCURVE",
"305 6 CURVE SMOOTH",
"164 6 OFFCURVE",
"51 87 OFFCURVE",
"38 203 CURVE",
"21 197 LINE",
"39 75 OFFCURVE",
"153 -9 OFFCURVE",
"305 -9 CURVE SMOOTH"
);
}
);
width = 599;
},
{
anchors = (
{
name = bottom;
position = "{287, 0}";
},
{
name = ogonek;
position = "{326, 0}";
},
{
name = top;
position = "{413, 704}";
}
);
color = 4;
layerId = "91E16792-BB9C-4BE9-80DD-69B41C5E2CA7";
paths = (
{
closed = 1;
nodes = (
"518 -10 OFFCURVE",
"627 81 OFFCURVE",
"627 222 CURVE SMOOTH",
"627 319 OFFCURVE",
"573 375 OFFCURVE",
"466 404 CURVE SMOOTH",
"347 436 LINE SMOOTH",
"298 449 OFFCURVE",
"264 470 OFFCURVE",
"264 506 CURVE SMOOTH",
"264 549 OFFCURVE",
"301 574 OFFCURVE",
"371 574 CURVE SMOOTH",
"443 574 OFFCURVE",
"522 545 OFFCURVE",
"582 482 CURVE",
"689 596 LINE",
"606 671 OFFCURVE",
"513 715 OFFCURVE",
"382 715 CURVE SMOOTH",
"219 715 OFFCURVE",
"100 636 OFFCURVE",
"100 490 CURVE SMOOTH",
"100 387 OFFCURVE",
"174 323 OFFCURVE",
"279 294 CURVE SMOOTH",
"382 266 LINE SMOOTH",
"434 252 OFFCURVE",
"463 237 OFFCURVE",
"463 198 CURVE SMOOTH",
"463 160 OFFCURVE",
"429 132 OFFCURVE",
"358 132 CURVE SMOOTH",
"257 132 OFFCURVE",
"170 177 OFFCURVE",
"101 259 CURVE",
"-5 140 LINE",
"79 49 OFFCURVE",
"199 -10 OFFCURVE",
"348 -10 CURVE SMOOTH"
);
}
);
width = 668;
}
);
leftKerningGroup = S;
rightKerningGroup = S;
unicode = 0053;
},
{
color = 5;
glyphname = T;
layers = (
{
anchors = (
{
name = bottom;
position = "{246, 0}";
},
{
name = center;
position = "{326, 344}";
},
{
name = ogonek;
position = "{287, 0}";
},
{
name = top;
position = "{409, 704}";
}
);
layerId = "DBFAC7D3-9CB2-48DD-9F53-AD59A4BD1301";
paths = (
{
closed = 1;
nodes = (
"121 704 LINE",
"103 628 LINE",
"350 628 LINE",
"205 0 LINE",
"287 0 LINE",
"432 628 LINE",
"680 628 LINE",
"698 704 LINE"
);
}
);
width = 609;
},
{
anchors = (
{
name = bottom;
position = "{301, 0}";
},
{
name = center;
position = "{374, 315}";
},
{
name = ogonek;
position = "{419, 0}";
},
{
name = top;
position = "{464, 704}";
}
);
color = 4;
layerId = "EA77C764-8343-414A-A941-E69667BA8F3A";
paths = (
{
closed = 1;
nodes = (
"125 704 LINE",
"77 498 LINE",
"301 498 LINE",
"186 0 LINE",
"419 0 LINE",
"534 498 LINE",
"755 498 LINE",
"803 704 LINE"
);
}
);
width = 718;
},
{
anchors = (
{
name = bottom;
position = "{225, 0}";
},
{
name = center;
position = "{309, 364}";
},
{
name = ogonek;
position = "{234, 0}";
},
{
name = top;
position = "{388, 704}";
}
);
layerId = "F97236B5-7CBD-4FD1-81B0-6670342ADB4E";
paths = (
{
closed = 1;
nodes = (
"111 704 LINE",
"108 690 LINE",
"378 690 LINE",
"218 0 LINE",
"234 0 LINE",
"394 690 LINE",
"664 690 LINE",
"667 704 LINE"
);
}
);
width = 568;
},
{
anchors = (
{
name = bottom;
position = "{283, 0}";
},
{
name = center;
position = "{358, 324}";
},
{
name = ogonek;
position = "{363, 0}";
},
{
name = top;
position = "{446, 704}";
}
);
color = 4;
layerId = "91E16792-BB9C-4BE9-80DD-69B41C5E2CA7";
paths = (
{
closed = 1;
nodes = (
"130 704 LINE",
"96 559 LINE",
"330 559 LINE",
"201 0 LINE",
"363 0 LINE",
"492 559 LINE",
"725 559 LINE",
"759 704 LINE"
);
}
);
width = 680;
}
);
leftKerningGroup = T;
rightKerningGroup = T;
unicode = 0054;
},
{
color = 5;
glyphname = Tcedilla;
layers = (
{
anchors = (
{
name = _bottom;
position = "{241, 0}";
},
{
name = bottom;
position = "{208, -215}";
}
);
components = (
{
name = T;
}
);
layerId = "DBFAC7D3-9CB2-48DD-9F53-AD59A4BD1301";
paths = (
{
closed = 1;
nodes = (
"248 -19 OFFCURVE",
"274 -44 OFFCURVE",
"274 -87 CURVE SMOOTH",
"274 -125 OFFCURVE",
"248 -152 OFFCURVE",
"209 -152 CURVE SMOOTH",
"181 -152 OFFCURVE",
"154 -142 OFFCURVE",
"136 -121 CURVE",
"104 -171 LINE",
"120 -193 OFFCURVE",
"159 -215 OFFCURVE",
"206 -215 CURVE SMOOTH",
"273 -215 OFFCURVE",
"336 -173 OFFCURVE",
"336 -90 CURVE SMOOTH",
"336 -34 OFFCURVE",
"303 4 OFFCURVE",
"245 29 CURVE",
"200 0 LINE"
);
}
);
width = 609;
},
{
anchors = (
{
name = _bottom;
position = "{301, 0}";
},
{
name = bottom;
position = "{247, -215}";
}
);
components = (
{
name = T;
}
);
layerId = "EA77C764-8343-414A-A941-E69667BA8F3A";
leftMetricsKey = "=T";
rightMetricsKey = "=T";
paths = (
{
closed = 1;
nodes = (
"290 0 OFFCURVE",
"307 -31 OFFCURVE",
"307 -55 CURVE SMOOTH",
"307 -78 OFFCURVE",
"294 -100 OFFCURVE",
"255 -100 CURVE SMOOTH",
"234 -100 OFFCURVE",
"217 -94 OFFCURVE",
"202 -82 CURVE",
"145 -175 LINE",
"176 -202 OFFCURVE",
"214 -215 OFFCURVE",
"267 -215 CURVE SMOOTH",
"356 -215 OFFCURVE",
"417 -161 OFFCURVE",
"417 -81 CURVE SMOOTH",
"417 -20 OFFCURVE",
"369 21 OFFCURVE",
"285 29 CURVE",
"232 0 LINE"
);
}
);
width = 718;
},
{
anchors = (
{
name = _bottom;
position = "{215, 0}";
},
{
name = bottom;
position = "{162, -199}";
}
);
components = (
{
name = T;
}
);
layerId = "F97236B5-7CBD-4FD1-81B0-6670342ADB4E";
paths = (
{
closed = 1;
nodes = (
"240 -26 OFFCURVE",
"260 -60 OFFCURVE",
"260 -99 CURVE SMOOTH",
"260 -154 OFFCURVE",
"223 -188 OFFCURVE",
"173 -188 CURVE SMOOTH",
"130 -188 OFFCURVE",
"110 -168 OFFCURVE",
"98 -144 CURVE",
"88 -155 LINE",
"100 -179 OFFCURVE",
"123 -201 OFFCURVE",
"173 -201 CURVE SMOOTH",
"232 -201 OFFCURVE",
"275 -162 OFFCURVE",
"275 -98 CURVE SMOOTH",
"275 -56 OFFCURVE",
"252 -22 OFFCURVE",
"223 2 CURVE",
"208 0 LINE"
);
}
);
width = 568;
},
{
anchors = (
{
name = _bottom;
position = "{282, 0}";
},
{
name = bottom;
position = "{238, -215}";
}
);
components = (
{
alignment = -1;
name = T;
}
);
layerId = "91E16792-BB9C-4BE9-80DD-69B41C5E2CA7";
paths = (
{
closed = 1;
nodes = (
"280 -9 OFFCURVE",
"301 -37 OFFCURVE",
"301 -70 CURVE SMOOTH",
"301 -100 OFFCURVE",
"282 -124 OFFCURVE",
"243 -124 CURVE SMOOTH",
"219 -124 OFFCURVE",
"197 -116 OFFCURVE",
"181 -100 CURVE",
"135 -173 LINE",
"159 -198 OFFCURVE",
"198 -215 OFFCURVE",
"248 -215 CURVE SMOOTH",
"327 -215 OFFCURVE",
"389 -167 OFFCURVE",
"389 -85 CURVE SMOOTH",
"389 -27 OFFCURVE",
"348 13 OFFCURVE",
"276 29 CURVE",
"226 0 LINE"
);
}
);
width = 680;
}
);
leftKerningGroup = T;
leftMetricsKey = T;
rightKerningGroup = T;
rightMetricsKey = T;
unicode = 0162;
},
{
color = 5;
glyphname = U;
layers = (
{
anchors = (
{
name = bottom;
position = "{308, 0}";
},
{
name = ogonek;
position = "{403, 2}";
},
{
name = top;
position = "{437, 682}";
},
{
name = top_ring;
position = "{419, 649}";
},
{
name = topright;
position = "{729, 704}";
}
);
layerId = "DBFAC7D3-9CB2-48DD-9F53-AD59A4BD1301";
paths = (
{
closed = 1;
nodes = (
"479 -11 OFFCURVE",
"578 90 OFFCURVE",
"613 242 CURVE SMOOTH",
"719 704 LINE",
"637 704 LINE",
"535 266 LINE SMOOTH",
"506 142 OFFCURVE",
"442 67 OFFCURVE",
"330 67 CURVE SMOOTH",
"206 67 OFFCURVE",
"132 141 OFFCURVE",
"165 285 CURVE SMOOTH",
"261 704 LINE",
"177 704 LINE",
"84 305 LINE SMOOTH",
"38 107 OFFCURVE",
"138 -11 OFFCURVE",
"325 -11 CURVE SMOOTH"
);
}
);
width = 686;
},
{
anchors = (
{
name = bottom;
position = "{325, 0}";
},
{
name = ogonek;
position = "{474, -1}";
},
{
name = top;
position = "{481, 702}";
},
{
name = top_ring;
position = "{477, 693}";
},
{
name = topright;
position = "{814, 704}";
}
);
color = 4;
guideLines = (
{
angle = 77.0266;
position = "{380, 704}";
},
{
angle = 77.0266;
position = "{491, 309}";
}
);
layerId = "EA77C764-8343-414A-A941-E69667BA8F3A";
paths = (
{
closed = 1;
nodes = (
"587 -11 OFFCURVE",
"673 96 OFFCURVE",
"716 280 CURVE SMOOTH",
"814 704 LINE",
"583 704 LINE",
"490 304 LINE SMOOTH",
"473 231 OFFCURVE",
"446 195 OFFCURVE",
"383 195 CURVE SMOOTH",
"315 195 OFFCURVE",
"273 240 OFFCURVE",
"291 317 CURVE SMOOTH",
"380 704 LINE",
"147 704 LINE",
"61 334 LINE SMOOTH",
"9 112 OFFCURVE",
"131 -11 OFFCURVE",
"364 -11 CURVE SMOOTH"
);
}
);
width = 751;
},
{
anchors = (
{
name = bottom;
position = "{249, 0}";
},
{
name = ogonek;
position = "{345, -9}";
},
{
name = top;
position = "{431, 661}";
},
{
name = top_ring;
position = "{426, 638}";
},
{
name = topright;
position = "{719, 704}";
}
);
color = 4;
layerId = "F97236B5-7CBD-4FD1-81B0-6670342ADB4E";
paths = (
{
closed = 1;
nodes = (
"466 -11 OFFCURVE",
"553 90 OFFCURVE",
"593 261 CURVE SMOOTH",
"696 704 LINE",
"678 704 LINE",
"577 267 LINE SMOOTH",
"538 98 OFFCURVE",
"456 4 OFFCURVE",
"310 4 CURVE SMOOTH",
"143 4 OFFCURVE",
"52 109 OFFCURVE",
"94 289 CURVE SMOOTH",
"191 704 LINE",
"174 704 LINE",
"78 294 LINE SMOOTH",
"34 107 OFFCURVE",
"125 -11 OFFCURVE",
"310 -11 CURVE SMOOTH"
);
}
);
width = 659;
},
{
anchors = (
{
name = bottom;
position = "{325, 0}";
},
{
name = ogonek;
position = "{449, 0}";
},
{
name = top;
position = "{469, 693}";
},
{
name = top_ring;
position = "{458, 672}";
},
{
name = topright;
position = "{783, 704}";
}
);
color = 4;
layerId = "91E16792-BB9C-4BE9-80DD-69B41C5E2CA7";
paths = (
{
closed = 1;
nodes = (
"547 -11 OFFCURVE",
"637 93 OFFCURVE",
"676 262 CURVE SMOOTH",
"778 704 LINE",
"617 704 LINE",
"518 276 LINE SMOOTH",
"495 177 OFFCURVE",
"449 136 OFFCURVE",
"366 136 CURVE SMOOTH",
"273 136 OFFCURVE",
"212 194 OFFCURVE",
"237 302 CURVE SMOOTH",
"330 704 LINE",
"169 704 LINE",
"80 320 LINE SMOOTH",
"31 110 OFFCURVE",
"145 -11 OFFCURVE",
"356 -11 CURVE SMOOTH"
);
}
);
width = 737.2;
}
);
leftKerningGroup = U;
rightKerningGroup = U;
rightMetricsKey = "=|";
unicode = 0055;
},
{
color = 5;
glyphname = V;
layers = (
{
anchors = (
{
name = bottom;
position = "{262, 0}";
},
{
name = ogonek;
position = "{315, 0}";
},
{
name = top;
position = "{425, 704}";
}
);
color = 4;
guideLines = (
{
angle = 180;
position = "{253, 230}";
}
);
layerId = "DBFAC7D3-9CB2-48DD-9F53-AD59A4BD1301";
paths = (
{
closed = 1;
nodes = (
"315 0 LINE",
"745 704 LINE",
"652 704 LINE",
"260 64 LINE",
"284 64 LINE",
"189 704 LINE",
"108 704 LINE",
"212 0 LINE"
);
}
);
width = 643;
},
{
anchors = (
{
name = bottom;
position = "{322, 0}";
},
{
name = ogonek;
position = "{464, 0}";
},
{
name = top;
position = "{492, 704}";
}
);
color = 4;
layerId = "EA77C764-8343-414A-A941-E69667BA8F3A";
paths = (
{
closed = 1;
nodes = (
"466 0 LINE",
"885 704 LINE",
"639 704 LINE",
"302 107 LINE",
"390 108 LINE",
"339 704 LINE",
"102 704 LINE",
"180 0 LINE"
);
}
);
width = 777;
},
{
anchors = (
{
name = bottom;
position = "{243, 0}";
},
{
name = ogonek;
position = "{253, 0}";
},
{
name = top;
position = "{406, 704}";
}
);
color = 4;
layerId = "F97236B5-7CBD-4FD1-81B0-6670342ADB4E";
paths = (
{
closed = 1;
nodes = (
"253 0 LINE",
"698 704 LINE",
"679 704 LINE",
"243 13 LINE",
"247 13 LINE",
"129 704 LINE",
"113 704 LINE",
"232 0 LINE"
);
}
);
width = 601;
},
{
anchors = (
{
name = bottom;
position = "{306, 0}";
},
{
name = ogonek;
position = "{402, 0}";
},
{
name = top;
position = "{456, 704}";
}
);
color = 4;
layerId = "91E16792-BB9C-4BE9-80DD-69B41C5E2CA7";
paths = (
{
closed = 1;
nodes = (
"401 0 LINE",
"818 704 LINE",
"641 704 LINE",
"284 98 LINE",
"347 98 LINE",
"277 704 LINE",
"114 704 LINE",
"206 0 LINE"
);
}
);
width = 722;
}
);
rightMetricsKey = "=|";
unicode = 0056;
},
{
color = 5;
glyphname = W;
layers = (
{
anchors = (
{
name = bottom;
position = "{429, 0}";
},
{
name = ogonek;
position = "{704, 0}";
},
{
name = top;
position = "{592, 704}";
}
);
color = 4;
guideLines = (
{
angle = 180;
position = "{261, 230}";
}
);
layerId = "DBFAC7D3-9CB2-48DD-9F53-AD59A4BD1301";
paths = (
{
closed = 1;
nodes = (
"266 0 LINE",
"591 631 LINE",
"574 635 LINE",
"596 0 LINE",
"704 0 LINE",
"1067 704 LINE",
"980 704 LINE",
"655 74 LINE",
"672 70 LINE",
"646 704 LINE",
"542 704 LINE",
"214 62 LINE",
"232 58 LINE",
"195 704 LINE",
"118 704 LINE",
"157 0 LINE"
);
}
);
width = 975;
},
{
anchors = (
{
name = bottom;
position = "{479, 0}";
},
{
name = ogonek;
position = "{832, 0}";
},
{
name = top;
position = "{631, 704}";
}
);
color = 4;
layerId = "EA77C764-8343-414A-A941-E69667BA8F3A";
paths = (
{
closed = 1;
nodes = (
"383 0 LINE",
"614 523 LINE",
"571 532 LINE",
"579 0 LINE",
"832 0 LINE",
"1177 704 LINE",
"944 704 LINE",
"695 176 LINE",
"748 167 LINE",
"735 704 LINE",
"521 704 LINE",
"289 179 LINE",
"329 169 LINE",
"323 704 LINE",
"108 704 LINE",
"125 0 LINE"
);
}
);
width = 1075;
},
{
anchors = (
{
name = bottom;
position = "{416, 0}";
},
{
name = ogonek;
position = "{648, 0}";
},
{
name = top;
position = "{579, 704}";
}
);
color = 4;
layerId = "F97236B5-7CBD-4FD1-81B0-6670342ADB4E";
paths = (
{
closed = 1;
nodes = (
"207 0 LINE",
"580 692 LINE",
"576 693 LINE",
"626 0 LINE",
"648 0 LINE",
"1040 704 LINE",
"1021 704 LINE",
"638 14 LINE",
"642 13 LINE",
"590 704 LINE",
"569 704 LINE",
"196 15 LINE",
"200 14 LINE",
"134 704 LINE",
"118 704 LINE",
"185 0 LINE"
);
}
);
width = 948;
},
{
anchors = (
{
name = bottom;
position = "{465, 0}";
},
{
name = ogonek;
position = "{782, 0}";
},
{
name = top;
position = "{632, 704}";
}
);
color = 4;
layerId = "91E16792-BB9C-4BE9-80DD-69B41C5E2CA7";
paths = (
{
closed = 1;
nodes = (
"333 0 LINE",
"608 563 LINE",
"591 570 LINE",
"598 0 LINE",
"782 0 LINE",
"1138 704 LINE",
"968 704 LINE",
"680 118 LINE",
"730 111 LINE",
"722 704 LINE",
"535 704 LINE",
"254 126 LINE",
"293 119 LINE",
"278 704 LINE",
"120 704 LINE",
"150 0 LINE"
);
}
);
width = 1048;
}
);
leftKerningGroup = W;
rightKerningGroup = W;
rightMetricsKey = "=|";
unicode = 0057;
},
{
color = 5;
glyphname = X;
layers = (
{
anchors = (
{
name = bottom;
position = "{241, 0}";
},
{
name = ogonek;
position = "{532, 0}";
},
{
name = top;
position = "{404, 704}";
}
);
color = 4;
layerId = "DBFAC7D3-9CB2-48DD-9F53-AD59A4BD1301";
paths = (
{
closed = 1;
nodes = (
"50 0 LINE",
"328 314 LINE",
"295 321 LINE",
"440 0 LINE",
"533 0 LINE",
"355 389 LINE",
"351 331 LINE",
"682 704 LINE",
"577 704 LINE",
"316 409 LINE",
"348 402 LINE",
"217 704 LINE",
"121 704 LINE",
"290 334 LINE",
"293 392 LINE",
"-56 0 LINE"
);
}
);
width = 593;
},
{
anchors = (
{
name = bottom;
position = "{303, 0}";
},
{
name = ogonek;
position = "{689, 0}";
},
{
name = top;
position = "{466, 704}";
}
);
color = 4;
guideLines = (
{
angle = 77;
position = "{-62, 0}";
},
{
angle = 77;
position = "{689, 0}";
},
{
angle = -65.7587;
position = "{112, 704}";
},
{
angle = -65.7587;
position = "{689, 0}";
}
);
layerId = "EA77C764-8343-414A-A941-E69667BA8F3A";
paths = (
{
closed = 1;
nodes = (
"209 0 LINE",
"413 246 LINE",
"325 277 LINE",
"429 0 LINE",
"689 0 LINE",
"486 451 LINE",
"479 276 LINE",
"842 704 LINE",
"594 704 LINE",
"393 448 LINE",
"470 442 LINE",
"372 704 LINE",
"112 704 LINE",
"308 270 LINE",
"318 422 LINE",
"-62 0 LINE"
);
}
);
width = 743;
},
{
anchors = (
{
name = bottom;
position = "{222, 0}";
},
{
name = ogonek;
position = "{485, 0}";
},
{
name = top;
position = "{385, 704}";
}
);
layerId = "F97236B5-7CBD-4FD1-81B0-6670342ADB4E";
paths = (
{
closed = 1;
nodes = (
"-25 0 LINE",
"306 355 LINE",
"298 356 LINE",
"467 0 LINE",
"485 0 LINE",
"310 370 LINE",
"310 358 LINE",
"631 704 LINE",
"610 704 LINE",
"302 373 LINE",
"309 370 LINE",
"152 704 LINE",
"134 704 LINE",
"297 357 LINE",
"297 369 LINE",
"-46 0 LINE"
);
}
);
width = 555;
},
{
anchors = (
{
name = bottom;
position = "{288, 0}";
},
{
name = ogonek;
position = "{632, 0}";
},
{
name = top;
position = "{451, 704}";
}
);
color = 4;
layerId = "91E16792-BB9C-4BE9-80DD-69B41C5E2CA7";
paths = (
{
closed = 1;
nodes = (
"151 0 LINE",
"394 286 LINE",
"334 278 LINE",
"447 0 LINE",
"630 0 LINE",
"442 413 LINE",
"441 316 LINE",
"775 704 LINE",
"585 704 LINE",
"367 443 LINE",
"425 433 LINE",
"313 704 LINE",
"133 704 LINE",
"309 327 LINE",
"319 413 LINE",
"-50 0 LINE"
);
}
);
width = 696;
}
);
rightMetricsKey = "=|";
unicode = 0058;
},
{
color = 5;
glyphname = Y;
layers = (
{
anchors = (
{
name = bottom;
position = "{230, 0}";
},
{
name = ogonek;
position = "{272, 0}";
},
{
name = top;
position = "{388, 682}";
}
);
color = 4;
layerId = "DBFAC7D3-9CB2-48DD-9F53-AD59A4BD1301";
paths = (
{
closed = 1;
nodes = (
"273 0 LINE",
"337 274 LINE",
"688 704 LINE",
"591 704 LINE",
"280 328 LINE",
"316 328 LINE",
"186 704 LINE",
"101 704 LINE",
"253 274 LINE",
"189 0 LINE"
);
}
);
width = 579;
},
{
anchors = (
{
name = bottom;
position = "{313, 0}";
},
{
name = ogonek;
position = "{430, 0}";
},
{
name = top;
position = "{460, 701}";
}
);
color = 4;
layerId = "EA77C764-8343-414A-A941-E69667BA8F3A";
paths = (
{
closed = 1;
nodes = (
"431 0 LINE",
"489 250 LINE",
"851 704 LINE",
"600 704 LINE",
"342 375 LINE",
"446 357 LINE",
"343 704 LINE",
"105 704 LINE",
"256 253 LINE",
"198 0 LINE"
);
}
);
width = 746;
},
{
anchors = (
{
name = bottom;
position = "{203, 0}";
},
{
name = ogonek;
position = "{212, 0}";
},
{
name = top;
position = "{356, 662}";
}
);
color = 4;
layerId = "F97236B5-7CBD-4FD1-81B0-6670342ADB4E";
paths = (
{
closed = 1;
nodes = (
"212 0 LINE",
"275 273 LINE",
"623 704 LINE",
"602 704 LINE",
"266 287 LINE",
"273 283 LINE",
"127 704 LINE",
"110 704 LINE",
"258 273 LINE",
"195 0 LINE"
);
}
);
width = 523;
},
{
anchors = (
{
name = bottom;
position = "{271, 0}";
},
{
name = ogonek;
position = "{352, 0}";
},
{
name = top;
position = "{432, 694}";
}
);
color = 4;
layerId = "91E16792-BB9C-4BE9-80DD-69B41C5E2CA7";
paths = (
{
closed = 1;
nodes = (
"352 0 LINE",
"412 259 LINE",
"767 704 LINE",
"570 704 LINE",
"298 346 LINE",
"386 347 LINE",
"274 704 LINE",
"103 704 LINE",
"250 259 LINE",
"190 0 LINE"
);
}
);
width = 660;
}
);
leftKerningGroup = Y;
rightKerningGroup = Y;
unicode = 0059;
},
{
color = 5;
glyphname = Z;
layers = (
{
anchors = (
{
name = bottom;
position = "{241, 0}";
},
{
name = ogonek;
position = "{527, 0}";
},
{
name = top;
position = "{404, 704}";
}
);
color = 4;
layerId = "DBFAC7D3-9CB2-48DD-9F53-AD59A4BD1301";
paths = (
{
closed = 1;
nodes = (
"684 645 LINE",
"651 598 LINE",
"676 704 LINE",
"148 704 LINE",
"130 627 LINE",
"586 627 LINE",
"580 647 LINE",
"-34 59 LINE",
"-1 106 LINE",
"-26 0 LINE",
"527 0 LINE",
"545 77 LINE",
"65 77 LINE",
"72 57 LINE"
);
}
);
width = 605;
},
{
anchors = (
{
name = bottom;
position = "{259, 0}";
},
{
name = ogonek;
position = "{591, 0}";
},
{
name = top;
position = "{444, 704}";
}
);
color = 4;
layerId = "EA77C764-8343-414A-A941-E69667BA8F3A";
paths = (
{
closed = 1;
nodes = (
"773 597 LINE",
"672 434 LINE",
"734 704 LINE",
"133 704 LINE",
"92 526 LINE",
"507 526 LINE",
"484 596 LINE",
"-74 119 LINE",
"27 270 LINE",
"-37 0 LINE",
"591 0 LINE",
"632 178 LINE",
"200 178 LINE",
"223 121 LINE"
);
}
);
width = 665;
},
{
anchors = (
{
name = bottom;
position = "{228, 0}";
},
{
name = ogonek;
position = "{496, 0}";
},
{
name = top;
position = "{391, 704}";
}
);
color = 4;
layerId = "F97236B5-7CBD-4FD1-81B0-6670342ADB4E";
paths = (
{
closed = 1;
nodes = (
"640 695 LINE",
"633 683 LINE",
"638 704 LINE",
"135 704 LINE",
"132 690 LINE",
"624 690 LINE",
"619 695 LINE",
"-37 11 LINE",
"-30 21 LINE",
"-36 0 LINE",
"496 0 LINE",
"500 14 LINE",
"-21 14 LINE",
"-15 11 LINE"
);
}
);
width = 574;
},
{
anchors = (
{
name = bottom;
position = "{263, 0}";
},
{
name = ogonek;
position = "{580, 0}";
},
{
name = top;
position = "{438, 704}";
}
);
color = 4;
layerId = "91E16792-BB9C-4BE9-80DD-69B41C5E2CA7";
paths = (
{
closed = 1;
nodes = (
"741 611 LINE",
"673 504 LINE",
"719 704 LINE",
"151 704 LINE",
"119 566 LINE",
"561 566 LINE",
"546 616 LINE",
"-39 93 LINE",
"29 201 LINE",
"-18 0 LINE",
"580 0 LINE",
"612 138 LINE",
"152 138 LINE",
"165 88 LINE"
);
}
);
width = 665;
}
);
leftKerningGroup = Z;
rightKerningGroup = Z;
unicode = 005A;
},
{
export = 0;
glyphname = Eng;
layers = (
{
layerId = "DBFAC7D3-9CB2-48DD-9F53-AD59A4BD1301";
paths = (
{
closed = 1;
nodes = (
"434 -215 OFFCURVE",
"496 -173 OFFCURVE",
"518 -78 CURVE SMOOTH",
"689 660 LINE",
"613 660 LINE",
"520 255 LINE",
"494 119 LINE",
"492 119 LINE",
"435 263 LINE",
"276 660 LINE",
"180 660 LINE",
"27 0 LINE",
"103 0 LINE",
"211 466 LINE",
"232 572 LINE",
"233 572 LINE",
"280 442 LINE",
"462 1 LINE",
"448 -57 LINE SMOOTH",
"432 -119 OFFCURVE",
"406 -135 OFFCURVE",
"366 -135 CURVE SMOOTH",
"340 -135 OFFCURVE",
"312 -123 OFFCURVE",
"294 -107 CURVE",
"266 -179 LINE",
"289 -203 OFFCURVE",
"332 -215 OFFCURVE",
"372 -215 CURVE SMOOTH"
);
}
);
width = 679;
},
{
layerId = "EA77C764-8343-414A-A941-E69667BA8F3A";
paths = (
{
closed = 1;
nodes = (
"526 -215 OFFCURVE",
"602 -155 OFFCURVE",
"635 -13 CURVE SMOOTH",
"791 660 LINE",
"589 660 LINE",
"525 386 LINE",
"504 287 LINE",
"503 287 LINE",
"470 381 LINE",
"366 660 LINE",
"145 660 LINE",
"-8 0 LINE",
"194 0 LINE",
"251 245 LINE",
"278 381 LINE",
"280 381 LINE",
"325 268 LINE",
"438 7 LINE",
"438 7 LINE",
"427 -41 OFFCURVE",
"405 -59 OFFCURVE",
"372 -59 CURVE SMOOTH",
"345 -59 OFFCURVE",
"327 -53 OFFCURVE",
"315 -45 CURVE",
"257 -192 LINE",
"291 -209 OFFCURVE",
"332 -215 OFFCURVE",
"391 -215 CURVE SMOOTH"
);
}
);
width = 746;
},
{
hints = (
{
horizontal = 1;
place = "{-215, 14}";
type = Stem;
},
{
horizontal = 1;
place = "{500, -20}";
target = down;
type = TopGhost;
},
{
horizontal = 1;
place = "{598, 44}";
type = Stem;
},
{
place = "{779, 16}";
type = Stem;
}
);
layerId = "F97236B5-7CBD-4FD1-81B0-6670342ADB4E";
paths = (
{
closed = 1;
nodes = (
"430 -215 OFFCURVE",
"474 -159 OFFCURVE",
"494 -73 CURVE SMOOTH",
"663 660 LINE",
"647 660 LINE",
"509 65 LINE",
"500 24 LINE",
"500 24 LINE",
"488 53 LINE",
"199 660 LINE",
"177 660 LINE",
"24 0 LINE",
"40 0 LINE",
"176 587 LINE",
"189 645 LINE",
"189 645 LINE",
"206 607 LINE",
"495 0 LINE",
"480 -65 LINE SMOOTH",
"459 -156 OFFCURVE",
"415 -201 OFFCURVE",
"347 -201 CURVE SMOOTH",
"325 -201 OFFCURVE",
"305 -194 OFFCURVE",
"290 -182 CURVE",
"282 -196 LINE",
"297 -207 OFFCURVE",
"320 -215 OFFCURVE",
"347 -215 CURVE SMOOTH"
);
}
);
width = 651;
},
{
hints = (
{
horizontal = 1;
place = "{0, 0}";
type = Stem;
},
{
horizontal = 1;
place = "{0, -20}";
target = down;
type = TopGhost;
},
{
horizontal = 1;
place = "{0, 0}";
type = Stem;
},
{
place = "{0, 0}";
type = Stem;
}
);
layerId = "91E16792-BB9C-4BE9-80DD-69B41C5E2CA7";
paths = (
{
closed = 1;
nodes = (
"493 -215 OFFCURVE",
"563 -163 OFFCURVE",
"591 -43 CURVE SMOOTH",
"754 660 LINE",
"611 660 LINE",
"533 325 LINE",
"510 209 LINE",
"508 209 LINE",
"464 326 LINE",
"334 660 LINE",
"172 660 LINE",
"19 0 LINE",
"162 0 LINE",
"243 348 LINE",
"267 470 LINE",
"268 470 LINE",
"314 349 LINE",
"460 4 LINE",
"453 -23 LINE",
"440 -77 OFFCURVE",
"416 -94 OFFCURVE",
"380 -94 CURVE SMOOTH",
"353 -94 OFFCURVE",
"330 -86 OFFCURVE",
"316 -74 CURVE",
"272 -186 LINE",
"300 -206 OFFCURVE",
"342 -215 OFFCURVE",
"392 -215 CURVE SMOOTH"
);
}
);
width = 736;
}
);
leftKerningGroup = I;
leftMetricsKey = I;
rightKerningGroup = I;
rightMetricsKey = I;
unicode = 014A;
},
{
export = 0;
glyphname = Germandbls;
layers = (
{
anchors = (
{
name = bottom;
position = "{302, 0}";
},
{
name = ogonek;
position = "{447, 0}";
},
{
name = top;
position = "{455, 660}";
}
);
layerId = "DBFAC7D3-9CB2-48DD-9F53-AD59A4BD1301";
paths = (
{
closed = 1;
nodes = (
"520 -5 OFFCURVE",
"610 74 OFFCURVE",
"610 199 CURVE SMOOTH",
"610 305 OFFCURVE",
"541 367 OFFCURVE",
"448 367 CURVE SMOOTH",
"431 367 LINE",
"678 585 LINE",
"696 660 LINE",
"388 660 LINE SMOOTH",
"244 660 OFFCURVE",
"169 581 OFFCURVE",
"143 469 CURVE SMOOTH",
"35 0 LINE",
"115 0 LINE",
"219 450 LINE SMOOTH",
"238 533 OFFCURVE",
"276 585 OFFCURVE",
"371 585 CURVE SMOOTH",
"574 585 LINE",
"342 375 LINE",
"325 303 LINE",
"412 303 LINE SMOOTH",
"490 303 OFFCURVE",
"529 267 OFFCURVE",
"529 194 CURVE SMOOTH",
"529 113 OFFCURVE",
"473 67 OFFCURVE",
"407 67 CURVE SMOOTH",
"349 67 OFFCURVE",
"305 90 OFFCURVE",
"280 123 CURVE",
"239 57 LINE",
"272 22 OFFCURVE",
"334 -5 OFFCURVE",
"399 -5 CURVE SMOOTH"
);
}
);
width = 646;
},
{
anchors = (
{
name = bottom;
position = "{304, 0}";
},
{
name = ogonek;
position = "{535, 2}";
},
{
name = top;
position = "{457, 660}";
}
);
layerId = "EA77C764-8343-414A-A941-E69667BA8F3A";
paths = (
{
closed = 1;
nodes = (
"607 -5 OFFCURVE",
"705 68 OFFCURVE",
"705 205 CURVE SMOOTH",
"705 298 OFFCURVE",
"639 350 OFFCURVE",
"571 351 CURVE",
"571 351 LINE",
"760 514 LINE",
"794 660 LINE",
"411 660 LINE SMOOTH",
"250 660 OFFCURVE",
"109 565 OFFCURVE",
"69 390 CURVE SMOOTH",
"-21 0 LINE",
"212 0 LINE",
"298 378 LINE SMOOTH",
"315 454 OFFCURVE",
"369 494 OFFCURVE",
"432 494 CURVE SMOOTH",
"531 494 LINE",
"367 355 LINE",
"341 242 LINE",
"422 242 LINE SMOOTH",
"469 242 OFFCURVE",
"489 231 OFFCURVE",
"489 205 CURVE SMOOTH",
"489 167 OFFCURVE",
"458 151 OFFCURVE",
"420 151 CURVE SMOOTH",
"399 151 OFFCURVE",
"359 159 OFFCURVE",
"333 175 CURVE",
"262 50 LINE",
"320 14 OFFCURVE",
"377 -5 OFFCURVE",
"467 -5 CURVE SMOOTH"
);
}
);
width = 738;
},
{
anchors = (
{
name = bottom;
position = "{271, 0}";
},
{
name = ogonek;
position = "{422, 0}";
},
{
name = top;
position = "{409, 660}";
}
);
guideLines = (
{
angle = 46.1853;
position = "{624, 652}";
},
{
angle = 76.6331;
position = "{355, 354}";
},
{
angle = 180;
position = "{339, 303}";
},
{
angle = 77.0322;
position = "{575, 235}";
}
);
layerId = "F97236B5-7CBD-4FD1-81B0-6670342ADB4E";
paths = (
{
closed = 1;
nodes = (
"500 -5 OFFCURVE",
"578 76 OFFCURVE",
"578 186 CURVE SMOOTH",
"578 302 OFFCURVE",
"505 354 OFFCURVE",
"385 354 CURVE SMOOTH",
"347 354 LINE",
"653 645 LINE",
"656 660 LINE",
"362 660 LINE SMOOTH",
"225 660 OFFCURVE",
"162 581 OFFCURVE",
"136 469 CURVE SMOOTH",
"28 0 LINE",
"44 0 LINE",
"151 463 LINE SMOOTH",
"176 570 OFFCURVE",
"233 646 OFFCURVE",
"361 646 CURVE SMOOTH",
"632 646 LINE",
"325 353 LINE",
"322 340 LINE",
"383 340 LINE SMOOTH",
"496 340 OFFCURVE",
"562 293 OFFCURVE",
"562 186 CURVE SMOOTH",
"562 86 OFFCURVE",
"489 9 OFFCURVE",
"370 9 CURVE SMOOTH",
"312 9 OFFCURVE",
"260 33 OFFCURVE",
"232 73 CURVE",
"220 62 LINE",
"250 20 OFFCURVE",
"305 -5 OFFCURVE",
"370 -5 CURVE SMOOTH"
);
}
);
width = 626;
},
{
anchors = (
{
name = bottom;
position = "{303, 0}";
},
{
name = ogonek;
position = "{494, 1}";
},
{
name = top;
position = "{456, 660}";
}
);
layerId = "91E16792-BB9C-4BE9-80DD-69B41C5E2CA7";
paths = (
{
closed = 1;
nodes = (
"566 -5 OFFCURVE",
"661 71 OFFCURVE",
"661 202 CURVE SMOOTH",
"661 301 OFFCURVE",
"593 358 OFFCURVE",
"514 358 CURVE",
"506 358 LINE",
"722 547 LINE",
"748 660 LINE",
"400 660 LINE SMOOTH",
"247 660 OFFCURVE",
"137 572 OFFCURVE",
"104 427 CURVE SMOOTH",
"5 0 LINE",
"167 0 LINE",
"261 412 LINE SMOOTH",
"279 491 OFFCURVE",
"326 536 OFFCURVE",
"404 536 CURVE SMOOTH",
"551 536 LINE",
"355 364 LINE",
"334 270 LINE",
"417 270 LINE SMOOTH",
"479 270 OFFCURVE",
"508 248 OFFCURVE",
"508 200 CURVE SMOOTH",
"508 142 OFFCURVE",
"465 112 OFFCURVE",
"414 112 CURVE SMOOTH",
"376 112 OFFCURVE",
"334 127 OFFCURVE",
"308 151 CURVE",
"251 53 LINE",
"298 18 OFFCURVE",
"357 -5 OFFCURVE",
"435 -5 CURVE SMOOTH"
);
}
);
width = 695.06667;
}
);
leftKerningGroup = Germandbls;
rightKerningGroup = Germandbls;
unicode = 1E9E;
},
{
export = 0;
glyphname = Schwa;
layers = (
{
anchors = (
{
name = bottom;
position = "{304, 0}";
},
{
name = top;
position = "{457, 660}";
}
);
layerId = "DBFAC7D3-9CB2-48DD-9F53-AD59A4BD1301";
paths = (
{
closed = 1;
nodes = (
"567 -10 OFFCURVE",
"679 184 OFFCURVE",
"674 393 CURVE SMOOTH",
"671 570 OFFCURVE",
"553 670 OFFCURVE",
"410 670 CURVE SMOOTH",
"288 670 OFFCURVE",
"189 625 OFFCURVE",
"133 523 CURVE",
"202 483 LINE",
"243 563 OFFCURVE",
"315 594 OFFCURVE",
"400 594 CURVE SMOOTH",
"518 594 OFFCURVE",
"590 513 OFFCURVE",
"590 375 CURVE SMOOTH",
"590 368 OFFCURVE",
"590 362 OFFCURVE",
"590 355 CURVE",
"96 355 LINE",
"89 322 OFFCURVE",
"85 290 OFFCURVE",
"85 260 CURVE SMOOTH",
"85 106 OFFCURVE",
"176 -10 OFFCURVE",
"341 -10 CURVE SMOOTH"
);
},
{
closed = 1;
nodes = (
"226 66 OFFCURVE",
"165 152 OFFCURVE",
"169 275 CURVE",
"580 275 LINE",
"554 160 OFFCURVE",
"482 66 OFFCURVE",
"351 66 CURVE SMOOTH"
);
}
);
width = 701;
},
{
anchors = (
{
name = bottom;
position = "{299, 0}";
},
{
name = top;
position = "{452, 660}";
}
);
layerId = "EA77C764-8343-414A-A941-E69667BA8F3A";
paths = (
{
closed = 1;
nodes = (
"571 -10 OFFCURVE",
"706 148 OFFCURVE",
"706 377 CURVE SMOOTH",
"706 562 OFFCURVE",
"575 670 OFFCURVE",
"393 670 CURVE SMOOTH",
"225 670 OFFCURVE",
"118 598 OFFCURVE",
"69 476 CURVE",
"278 411 LINE",
"299 466 OFFCURVE",
"330 495 OFFCURVE",
"385 495 CURVE SMOOTH",
"438 495 OFFCURVE",
"476 463 OFFCURVE",
"476 392 CURVE SMOOTH",
"476 381 OFFCURVE",
"476 370 OFFCURVE",
"475 359 CURVE",
"54 359 LINE",
"47 335 OFFCURVE",
"46 312 OFFCURVE",
"46 278 CURVE SMOOTH",
"46 98 OFFCURVE",
"167 -10 OFFCURVE",
"348 -10 CURVE SMOOTH"
);
},
{
closed = 1;
nodes = (
"294 167 OFFCURVE",
"270 192 OFFCURVE",
"267 244 CURVE",
"453 244 LINE",
"435 199 OFFCURVE",
"403 167 OFFCURVE",
"349 167 CURVE SMOOTH"
);
}
);
width = 718;
},
{
anchors = (
{
name = bottom;
position = "{286, 0}";
},
{
name = top;
position = "{439, 660}";
}
);
guideLines = (
{
position = "{628, 310}";
},
{
position = "{363, 324}";
},
{
angle = 149.8987;
position = "{189, 503}";
}
);
layerId = "F97236B5-7CBD-4FD1-81B0-6670342ADB4E";
paths = (
{
closed = 1;
nodes = (
"542 -10 OFFCURVE",
"650 173 OFFCURVE",
"650 383 CURVE SMOOTH",
"650 569 OFFCURVE",
"536 670 OFFCURVE",
"384 670 CURVE SMOOTH",
"256 670 OFFCURVE",
"155 605 OFFCURVE",
"111 515 CURVE",
"124 506 LINE",
"169 595 OFFCURVE",
"263 656 OFFCURVE",
"383 656 CURVE SMOOTH",
"526 656 OFFCURVE",
"634 561 OFFCURVE",
"634 380 CURVE SMOOTH",
"634 361 OFFCURVE",
"633 342 OFFCURVE",
"631 324 CURVE",
"67 324 LINE",
"65 306 OFFCURVE",
"64 287 OFFCURVE",
"64 270 CURVE SMOOTH",
"64 112 OFFCURVE",
"154 -10 OFFCURVE",
"319 -10 CURVE SMOOTH"
);
},
{
closed = 1;
nodes = (
"158 4 OFFCURVE",
"67 130 OFFCURVE",
"82 310 CURVE",
"630 310 LINE",
"608 141 OFFCURVE",
"505 4 OFFCURVE",
"320 4 CURVE SMOOTH"
);
}
);
width = 673;
},
{
anchors = (
{
name = bottom;
position = "{301, 0}";
},
{
name = top;
position = "{454, 660}";
}
);
layerId = "91E16792-BB9C-4BE9-80DD-69B41C5E2CA7";
paths = (
{
closed = 1;
nodes = (
"569 -10 OFFCURVE",
"693 165 OFFCURVE",
"691 384 CURVE SMOOTH",
"690 566 OFFCURVE",
"565 670 OFFCURVE",
"401 670 CURVE SMOOTH",
"254 670 OFFCURVE",
"151 611 OFFCURVE",
"99 498 CURVE",
"243 445 LINE",
"273 511 OFFCURVE",
"323 541 OFFCURVE",
"392 541 CURVE SMOOTH",
"475 541 OFFCURVE",
"529 486 OFFCURVE",
"529 384 CURVE SMOOTH",
"529 375 OFFCURVE",
"529 366 OFFCURVE",
"529 357 CURVE",
"74 357 LINE",
"67 329 OFFCURVE",
"64 302 OFFCURVE",
"64 270 CURVE SMOOTH",
"64 102 OFFCURVE",
"171 -10 OFFCURVE",
"345 -10 CURVE SMOOTH"
);
},
{
closed = 1;
nodes = (
"262 120 OFFCURVE",
"221 173 OFFCURVE",
"221 258 CURVE",
"512 258 LINE",
"491 181 OFFCURVE",
"440 120 OFFCURVE",
"350 120 CURVE SMOOTH"
);
}
);
width = 713;
}
);
leftKerningGroup = O;
rightKerningGroup = O;
rightMetricsKey = O;
unicode = 018F;
},
{
export = 0;
glyphname = R.ss03;
layers = (
{
anchors = (
{
name = bottom;
position = "{310, 0}";
},
{
name = ogonek;
position = "{523, 0}";
},
{
name = top;
position = "{395, 660}";
}
);
layerId = "DBFAC7D3-9CB2-48DD-9F53-AD59A4BD1301";
paths = (
{
closed = 1;
nodes = (
"127 0 LINE",
"191 277 LINE",
"354 277 LINE SMOOTH",
"422 277 OFFCURVE",
"475 249 OFFCURVE",
"454 140 CURVE SMOOTH",
"439 64 OFFCURVE",
"443 18 OFFCURVE",
"446 0 CURVE",
"524 0 LINE",
"524 3 LINE",
"521 22 OFFCURVE",
"511 45 OFFCURVE",
"533 163 CURVE SMOOTH",
"549 246 OFFCURVE",
"513 299 OFFCURVE",
"439 309 CURVE",
"439 309 LINE",
"550 327 OFFCURVE",
"612 400 OFFCURVE",
"609 497 CURVE SMOOTH",
"606 599 OFFCURVE",
"532 660 OFFCURVE",
"400 660 CURVE SMOOTH",
"200 660 LINE",
"47 0 LINE"
);
},
{
closed = 1;
nodes = (
"263 585 LINE",
"385 585 LINE SMOOTH",
"481 585 OFFCURVE",
"524 552 OFFCURVE",
"526 489 CURVE SMOOTH",
"528 412 OFFCURVE",
"477 352 OFFCURVE",
"369 352 CURVE SMOOTH",
"209 352 LINE"
);
}
);
width = 635;
},
{
anchors = (
{
name = bottom;
position = "{304, 0}";
},
{
name = ogonek;
position = "{634, 0}";
},
{
name = top;
position = "{429, 660}";
}
);
layerId = "EA77C764-8343-414A-A941-E69667BA8F3A";
paths = (
{
closed = 1;
nodes = (
"220 0 LINE",
"271 219 LINE",
"330 219 LINE SMOOTH",
"379 219 OFFCURVE",
"400 202 OFFCURVE",
"400 151 CURVE SMOOTH",
"400 86 OFFCURVE",
"387 45 OFFCURVE",
"393 0 CURVE",
"634 0 LINE",
"635 5 LINE",
"621 48 OFFCURVE",
"630 86 OFFCURVE",
"633 175 CURVE SMOOTH",
"635 228 OFFCURVE",
"618 269 OFFCURVE",
"557 287 CURVE",
"558 289 LINE",
"647 311 OFFCURVE",
"713 370 OFFCURVE",
"713 476 CURVE SMOOTH",
"713 594 OFFCURVE",
"631 660 OFFCURVE",
"490 660 CURVE SMOOTH",
"145 660 LINE",
"-8 0 LINE"
);
},
{
closed = 1;
nodes = (
"334 494 LINE",
"413 494 LINE SMOOTH",
"462 494 OFFCURVE",
"487 479 OFFCURVE",
"487 440 CURVE SMOOTH",
"487 395 OFFCURVE",
"453 372 OFFCURVE",
"405 372 CURVE SMOOTH",
"306 372 LINE"
);
}
);
width = 705;
},
{
anchors = (
{
name = bottom;
position = "{281, 0}";
},
{
name = ogonek;
position = "{487, 0}";
},
{
name = top;
position = "{374, 660}";
}
);
layerId = "F97236B5-7CBD-4FD1-81B0-6670342ADB4E";
paths = (
{
closed = 1;
nodes = (
"55 0 LINE",
"125 302 LINE",
"346 302 LINE SMOOTH",
"479 302 OFFCURVE",
"499 249 OFFCURVE",
"479 140 CURVE SMOOTH",
"462 45 OFFCURVE",
"464 15 OFFCURVE",
"471 0 CURVE",
"487 0 LINE",
"487 2 LINE",
"482 16 OFFCURVE",
"475 31 OFFCURVE",
"495 140 CURVE SMOOTH",
"516 252 OFFCURVE",
"478 304 OFFCURVE",
"405 308 CURVE",
"402 308 LINE",
"493 316 OFFCURVE",
"585 367 OFFCURVE",
"585 501 CURVE SMOOTH",
"585 618 OFFCURVE",
"497 660 OFFCURVE",
"396 660 CURVE SMOOTH",
"192 660 LINE",
"39 0 LINE"
);
},
{
closed = 1;
nodes = (
"204 646 LINE",
"392 646 LINE SMOOTH",
"488 646 OFFCURVE",
"569 612 OFFCURVE",
"569 501 CURVE SMOOTH",
"569 361 OFFCURVE",
"467 316 OFFCURVE",
"345 316 CURVE SMOOTH",
"128 316 LINE"
);
}
);
width = 594;
},
{
anchors = (
{
name = bottom;
position = "{307, 0}";
},
{
name = ogonek;
position = "{582, 0}";
},
{
name = top;
position = "{413, 660}";
}
);
layerId = "91E16792-BB9C-4BE9-80DD-69B41C5E2CA7";
paths = (
{
closed = 1;
nodes = (
"177 0 LINE",
"234 246 LINE",
"341 246 LINE SMOOTH",
"399 246 OFFCURVE",
"435 224 OFFCURVE",
"425 146 CURVE SMOOTH",
"418 76 OFFCURVE",
"413 32 OFFCURVE",
"418 0 CURVE",
"583 0 LINE",
"583 4 LINE",
"574 36 OFFCURVE",
"574 67 OFFCURVE",
"586 169 CURVE SMOOTH",
"595 236 OFFCURVE",
"569 283 OFFCURVE",
"502 297 CURVE",
"502 298 LINE",
"602 318 OFFCURVE",
"666 384 OFFCURVE",
"664 486 CURVE SMOOTH",
"663 596 OFFCURVE",
"585 660 OFFCURVE",
"448 660 CURVE SMOOTH",
"171 660 LINE",
"18 0 LINE"
);
},
{
closed = 1;
nodes = (
"301 536 LINE",
"400 536 LINE SMOOTH",
"471 536 OFFCURVE",
"504 513 OFFCURVE",
"505 463 CURVE SMOOTH",
"506 403 OFFCURVE",
"464 363 OFFCURVE",
"388 363 CURVE SMOOTH",
"261 363 LINE"
);
}
);
width = 672.33333;
}
);
leftKerningGroup = I;
rightKerningGroup = R;
userData = {
com.typemytype.robofont.layerData = {
background = {
anchors = (
);
components = (
{
baseGlyph = R;
transformation = (
1,
0,
0,
1,
"-600",
0
);
}
);
contours = (
{
points = (
{
segmentType = line;
smooth = 0;
x = 114;
y = 300;
},
{
segmentType = line;
smooth = 1;
x = 356;
y = 300;
},
{
smooth = 0;
x = 464;
y = 300;
},
{
smooth = 0;
x = 515;
y = 245;
},
{
segmentType = curve;
smooth = 1;
x = 518;
y = 157;
},
{
smooth = 0;
x = 521;
y = 25;
},
{
smooth = 0;
x = 536;
y = 6;
},
{
segmentType = curve;
smooth = 0;
x = 542;
y = 0;
},
{
segmentType = line;
smooth = 0;
x = 558;
y = 0;
},
{
segmentType = line;
smooth = 0;
x = 558;
y = 2;
},
{
smooth = 0;
x = 550;
y = 10;
},
{
smooth = 0;
x = 535;
y = 22;
},
{
segmentType = curve;
smooth = 1;
x = 531;
y = 160;
},
{
smooth = 0;
x = 529;
y = 243;
},
{
smooth = 0;
x = 483;
y = 294;
},
{
segmentType = curve;
smooth = 0;
x = 401;
y = 308;
},
{
smooth = 0;
x = 495;
y = 325;
},
{
smooth = 0;
x = 545;
y = 391;
},
{
segmentType = curve;
smooth = 1;
x = 545;
y = 484;
},
{
smooth = 0;
x = 545;
y = 598;
},
{
smooth = 0;
x = 457;
y = 660;
},
{
segmentType = curve;
smooth = 1;
x = 336;
y = 660;
},
{
segmentType = line;
smooth = 0;
x = 100;
y = 660;
},
{
segmentType = line;
smooth = 0;
x = 100;
y = 0;
},
{
segmentType = line;
smooth = 0;
x = 114;
y = 0;
}
);
},
{
points = (
{
segmentType = line;
smooth = 0;
x = 114;
y = 647;
},
{
segmentType = line;
smooth = 1;
x = 336;
y = 647;
},
{
smooth = 0;
x = 450;
y = 647;
},
{
smooth = 0;
x = 531;
y = 588;
},
{
segmentType = curve;
smooth = 1;
x = 531;
y = 484;
},
{
smooth = 0;
x = 531;
y = 375;
},
{
smooth = 0;
x = 462;
y = 313;
},
{
segmentType = curve;
smooth = 1;
x = 330;
y = 313;
},
{
segmentType = line;
smooth = 0;
x = 114;
y = 313;
}
);
}
);
lib = {
};
name = R.alt;
unicodes = (
);
width = 612;
};
};
};
},
{
export = 0;
glyphname = IJ.ss05;
layers = (
{
layerId = "DBFAC7D3-9CB2-48DD-9F53-AD59A4BD1301";
paths = (
{
closed = 1;
nodes = (
"419 -8 OFFCURVE",
"478 84 OFFCURVE",
"507 207 CURVE SMOOTH",
"612 660 LINE",
"531 660 LINE",
"431 227 LINE SMOOTH",
"405 110 OFFCURVE",
"373 64 OFFCURVE",
"275 64 CURVE SMOOTH",
"201 64 OFFCURVE",
"156 104 OFFCURVE",
"168 193 CURVE",
"92 193 LINE",
"68 69 OFFCURVE",
"148 -8 OFFCURVE",
"266 -8 CURVE SMOOTH"
);
},
{
closed = 1;
nodes = (
"188 287 LINE",
"274 660 LINE",
"194 660 LINE",
"108 287 LINE"
);
}
);
width = 591;
},
{
layerId = "EA77C764-8343-414A-A941-E69667BA8F3A";
paths = (
{
closed = 1;
nodes = (
"513 -10 OFFCURVE",
"596 93 OFFCURVE",
"633 252 CURVE SMOOTH",
"727 660 LINE",
"494 660 LINE",
"408 289 LINE SMOOTH",
"388 201 OFFCURVE",
"370 165 OFFCURVE",
"323 165 CURVE SMOOTH",
"284 165 OFFCURVE",
"253 187 OFFCURVE",
"269 246 CURVE",
"38 246 LINE",
"10 97 OFFCURVE",
"109 -10 OFFCURVE",
"312 -10 CURVE SMOOTH"
);
},
{
closed = 1;
nodes = (
"278 292 LINE",
"363 660 LINE",
"130 660 LINE",
"45 292 LINE"
);
}
);
width = 668;
},
{
layerId = "F97236B5-7CBD-4FD1-81B0-6670342ADB4E";
paths = (
{
closed = 1;
nodes = (
"347 -10 OFFCURVE",
"415 51 OFFCURVE",
"446 187 CURVE SMOOTH",
"555 660 LINE",
"539 660 LINE",
"431 189 LINE SMOOTH",
"402 62 OFFCURVE",
"336 4 OFFCURVE",
"234 4 CURVE SMOOTH",
"132 4 OFFCURVE",
"67 63 OFFCURVE",
"85 163 CURVE",
"70 163 LINE",
"50 56 OFFCURVE",
"120 -10 OFFCURVE",
"233 -10 CURVE SMOOTH"
);
},
{
closed = 1;
nodes = (
"107 262 LINE",
"199 660 LINE",
"183 660 LINE",
"91 262 LINE"
);
}
);
width = 530;
},
{
layerId = "91E16792-BB9C-4BE9-80DD-69B41C5E2CA7";
paths = (
{
closed = 1;
nodes = (
"469 -9 OFFCURVE",
"541 89 OFFCURVE",
"574 231 CURVE SMOOTH",
"673 660 LINE",
"511 660 LINE",
"419 260 LINE SMOOTH",
"396 159 OFFCURVE",
"371 118 OFFCURVE",
"301 118 CURVE SMOOTH",
"245 118 OFFCURVE",
"208 148 OFFCURVE",
"222 221 CURVE",
"63 221 LINE",
"37 84 OFFCURVE",
"127 -9 OFFCURVE",
"291 -9 CURVE SMOOTH"
);
},
{
closed = 1;
nodes = (
"236 290 LINE",
"321 660 LINE",
"160 660 LINE",
"74 290 LINE"
);
}
);
width = 640;
}
);
leftKerningGroup = I;
rightKerningGroup = I;
rightMetricsKey = J;
},
{
color = 5;
export = 0;
glyphname = G.ss10;
layers = (
{
anchors = (
{
name = bottom;
position = "{371, 0}";
},
{
name = ogonek;
position = "{355, 0}";
},
{
name = top;
position = "{453, 704}";
}
);
layerId = "DBFAC7D3-9CB2-48DD-9F53-AD59A4BD1301";
paths = (
{
closed = 1;
nodes = (
"450 -9 OFFCURVE",
"523 42 OFFCURVE",
"564 132 CURVE",
"554 143 LINE",
"525 0 LINE",
"590 0 LINE",
"676 349 LINE",
"381 349 LINE",
"363 271 LINE",
"584 271 LINE",
"576 238 LINE SMOOTH",
"552 138 OFFCURVE",
"478 71 OFFCURVE",
"360 71 CURVE SMOOTH",
"234 71 OFFCURVE",
"154 156 OFFCURVE",
"154 303 CURVE SMOOTH",
"154 468 OFFCURVE",
"250 638 OFFCURVE",
"428 638 CURVE SMOOTH",
"529 638 OFFCURVE",
"598 594 OFFCURVE",
"623 497 CURVE",
"708 526 LINE",
"667 667 OFFCURVE",
"558 715 OFFCURVE",
"434 715 CURVE SMOOTH",
"196 715 OFFCURVE",
"67 511 OFFCURVE",
"67 293 CURVE SMOOTH",
"67 103 OFFCURVE",
"192 -9 OFFCURVE",
"343 -9 CURVE SMOOTH"
);
}
);
width = 723;
},
{
anchors = (
{
name = bottom;
position = "{347, 0}";
},
{
name = ogonek;
position = "{367, 0}";
},
{
name = top;
position = "{469, 704}";
}
);
layerId = "EA77C764-8343-414A-A941-E69667BA8F3A";
paths = (
{
closed = 1;
nodes = (
"455 -11 OFFCURVE",
"523 48 OFFCURVE",
"561 158 CURVE",
"541 178 LINE",
"502 0 LINE",
"651 0 LINE",
"750 389 LINE",
"427 389 LINE",
"393 246 LINE",
"536 246 LINE",
"527 226 LINE SMOOTH",
"509 186 OFFCURVE",
"472 158 OFFCURVE",
"414 158 CURVE SMOOTH",
"321 158 OFFCURVE",
"284 220 OFFCURVE",
"284 313 CURVE SMOOTH",
"284 445 OFFCURVE",
"356 538 OFFCURVE",
"447 538 CURVE SMOOTH",
"510 538 OFFCURVE",
"538 497 OFFCURVE",
"540 444 CURVE",
"756 479 LINE",
"741 625 OFFCURVE",
"619 715 OFFCURVE",
"450 715 CURVE SMOOTH",
"195 715 OFFCURVE",
"52 528 OFFCURVE",
"52 297 CURVE SMOOTH",
"52 108 OFFCURVE",
"173 -11 OFFCURVE",
"335 -11 CURVE SMOOTH"
);
}
);
width = 760;
},
{
anchors = (
{
name = bottom;
position = "{360, 0}";
},
{
name = ogonek;
position = "{380, 0}";
},
{
name = top;
position = "{433, 704}";
}
);
layerId = "F97236B5-7CBD-4FD1-81B0-6670342ADB4E";
paths = (
{
closed = 1;
nodes = (
"475 -10 OFFCURVE",
"592 45 OFFCURVE",
"629 212 CURVE",
"621 198 LINE",
"574 0 LINE",
"591 0 LINE",
"666 324 LINE",
"397 324 LINE",
"394 309 LINE",
"645 309 LINE",
"632 250 LINE SMOOTH",
"591 64 OFFCURVE",
"470 5 OFFCURVE",
"352 5 CURVE SMOOTH",
"204 5 OFFCURVE",
"81 111 OFFCURVE",
"81 298 CURVE SMOOTH",
"81 503 OFFCURVE",
"199 700 OFFCURVE",
"432 700 CURVE SMOOTH",
"546 700 OFFCURVE",
"636 639 OFFCURVE",
"682 524 CURVE",
"698 528 LINE",
"651 650 OFFCURVE",
"555 715 OFFCURVE",
"433 715 CURVE SMOOTH",
"188 715 OFFCURVE",
"64 514 OFFCURVE",
"64 294 CURVE SMOOTH",
"64 96 OFFCURVE",
"192 -10 OFFCURVE",
"351 -10 CURVE SMOOTH"
);
}
);
width = 712;
},
{
anchors = (
{
name = bottom;
position = "{361, 0}";
},
{
name = ogonek;
position = "{365, 0}";
},
{
name = top;
position = "{465, 704}";
}
);
layerId = "91E16792-BB9C-4BE9-80DD-69B41C5E2CA7";
paths = (
{
closed = 1;
nodes = (
"456 -10 OFFCURVE",
"526 45 OFFCURVE",
"566 146 CURVE",
"550 162 LINE",
"516 0 LINE",
"626 0 LINE",
"719 370 LINE",
"409 370 LINE",
"382 258 LINE",
"562 258 LINE",
"553 232 LINE SMOOTH",
"532 164 OFFCURVE",
"478 117 OFFCURVE",
"392 117 CURVE SMOOTH",
"284 117 OFFCURVE",
"227 190 OFFCURVE",
"227 308 CURVE SMOOTH",
"227 456 OFFCURVE",
"310 585 OFFCURVE",
"441 585 CURVE SMOOTH",
"522 585 OFFCURVE",
"569 542 OFFCURVE",
"582 469 CURVE",
"737 501 LINE",
"710 645 OFFCURVE",
"594 715 OFFCURVE",
"446 715 CURVE SMOOTH",
"199 715 OFFCURVE",
"62 520 OFFCURVE",
"62 295 CURVE SMOOTH",
"62 106 OFFCURVE",
"185 -10 OFFCURVE",
"342 -10 CURVE SMOOTH"
);
}
);
width = 746;
}
);
leftKerningGroup = O;
leftMetricsKey = O;
rightKerningGroup = G;
},
{
color = 5;
glyphname = a;
layers = (
{
anchors = (
{
name = bottom;
position = "{233, 0}";
},
{
name = ogonek;
position = "{449, 0}";
},
{
name = top;
position = "{310, 500}";
}
);
guideLines = (
{
angle = 77;
position = "{482, 730}";
}
);
layerId = "DBFAC7D3-9CB2-48DD-9F53-AD59A4BD1301";
leftMetricsKey = "=o";
rightMetricsKey = "=u";
paths = (
{
closed = 1;
nodes = (
"308 -8 OFFCURVE",
"378 40 OFFCURVE",
"406 115 CURVE",
"402 127 LINE",
"379 0 LINE",
"449 0 LINE",
"565 500 LINE",
"485 500 LINE",
"451 354 LINE",
"463 364 LINE",
"453 452 OFFCURVE",
"387 510 OFFCURVE",
"290 510 CURVE SMOOTH",
"142 510 OFFCURVE",
"35 378 OFFCURVE",
"35 212 CURVE SMOOTH",
"35 82 OFFCURVE",
"115 -8 OFFCURVE",
"231 -8 CURVE SMOOTH"
);
},
{
closed = 1;
nodes = (
"162 60 OFFCURVE",
"114 115 OFFCURVE",
"114 213 CURVE SMOOTH",
"114 341 OFFCURVE",
"189 441 OFFCURVE",
"295 441 CURVE SMOOTH",
"375 441 OFFCURVE",
"427 383 OFFCURVE",
"427 293 CURVE SMOOTH",
"427 162 OFFCURVE",
"346 60 OFFCURVE",
"252 60 CURVE SMOOTH"
);
}
);
width = 576;
},
{
anchors = (
{
name = bottom;
position = "{261, 0}";
},
{
name = ogonek;
position = "{523, 0}";
},
{
name = top;
position = "{353, 500}";
}
);
color = 4;
guideLines = (
{
position = "{323, 339}";
},
{
position = "{249, 162}";
},
{
angle = 77.0472;
position = "{386, 400}";
}
);
layerId = "EA77C764-8343-414A-A941-E69667BA8F3A";
rightMetricsKey = "=u";
paths = (
{
closed = 1;
nodes = (
"272 -10 OFFCURVE",
"328 60 OFFCURVE",
"358 170 CURVE",
"348 196 LINE",
"313 0 LINE",
"523 0 LINE",
"639 500 LINE",
"409 500 LINE",
"362 296 LINE",
"381 297 LINE",
"407 442 OFFCURVE",
"349 510 OFFCURVE",
"255 510 CURVE SMOOTH",
"97 510 OFFCURVE",
"15 341 OFFCURVE",
"15 183 CURVE SMOOTH",
"15 56 OFFCURVE",
"78 -10 OFFCURVE",
"169 -10 CURVE SMOOTH"
);
},
{
closed = 1;
nodes = (
"256 162 OFFCURVE",
"243 182 OFFCURVE",
"243 213 CURVE SMOOTH",
"243 258 OFFCURVE",
"262 339 OFFCURVE",
"316 339 CURVE SMOOTH",
"343 339 OFFCURVE",
"357 322 OFFCURVE",
"357 293 CURVE SMOOTH",
"357 237 OFFCURVE",
"335 162 OFFCURVE",
"287 162 CURVE SMOOTH"
);
}
);
width = 619;
},
{
anchors = (
{
name = bottom;
position = "{227, 0}";
},
{
name = ogonek;
position = "{425, 0}";
},
{
name = top;
position = "{300, 500}";
}
);
guideLines = (
{
angle = 77;
position = "{470, 500}";
}
);
layerId = "F97236B5-7CBD-4FD1-81B0-6670342ADB4E";
leftMetricsKey = "=o";
rightMetricsKey = "=u";
paths = (
{
closed = 1;
nodes = (
"340 -10 OFFCURVE",
"404 52 OFFCURVE",
"440 130 CURVE",
"440 133 LINE",
"409 0 LINE",
"425 0 LINE",
"541 500 LINE",
"525 500 LINE",
"480 309 LINE",
"482 311 LINE",
"485 427 OFFCURVE",
"414 510 OFFCURVE",
"289 510 CURVE SMOOTH",
"131 510 OFFCURVE",
"33 381 OFFCURVE",
"33 217 CURVE SMOOTH",
"33 85 OFFCURVE",
"110 -10 OFFCURVE",
"238 -10 CURVE SMOOTH"
);
},
{
closed = 1;
nodes = (
"133 4 OFFCURVE",
"49 82 OFFCURVE",
"49 216 CURVE SMOOTH",
"49 380 OFFCURVE",
"145 496 OFFCURVE",
"288 496 CURVE SMOOTH",
"384 496 OFFCURVE",
"471 441 OFFCURVE",
"471 302 CURVE SMOOTH",
"471 159 OFFCURVE",
"383 4 OFFCURVE",
"242 4 CURVE SMOOTH"
);
}
);
width = 552;
},
{
anchors = (
{
name = bottom;
position = "{255, 0}";
},
{
name = ogonek;
position = "{496, 0}";
},
{
name = top;
position = "{340, 500}";
}
);
color = 4;
layerId = "91E16792-BB9C-4BE9-80DD-69B41C5E2CA7";
paths = (
{
closed = 1;
nodes = (
"317 -9 OFFCURVE",
"369 52 OFFCURVE",
"391 140 CURVE",
"381 164 LINE",
"351 0 LINE",
"496 0 LINE",
"612 500 LINE",
"452 500 LINE",
"411 323 LINE",
"438 334 LINE",
"450 459 OFFCURVE",
"375 510 OFFCURVE",
"286 510 CURVE SMOOTH",
"112 510 OFFCURVE",
"32 358 OFFCURVE",
"32 209 CURVE SMOOTH",
"32 82 OFFCURVE",
"107 -9 OFFCURVE",
"224 -9 CURVE SMOOTH"
);
},
{
closed = 1;
nodes = (
"214 124 OFFCURVE",
"193 170 OFFCURVE",
"193 226 CURVE SMOOTH",
"193 315 OFFCURVE",
"237 377 OFFCURVE",
"308 377 CURVE SMOOTH",
"371 377 OFFCURVE",
"394 333 OFFCURVE",
"394 278 CURVE SMOOTH",
"394 198 OFFCURVE",
"354 124 OFFCURVE",
"284 124 CURVE SMOOTH"
);
}
);
width = 616;
}
);
leftKerningGroup = o;
leftMetricsKey = d;
rightKerningGroup = u;
unicode = 0061;
},
{
color = 5;
glyphname = ae;
layers = (
{
anchors = (
{
name = bottom;
position = "{349, 0}";
},
{
name = ogonek;
position = "{638, 0}";
},
{
name = top;
position = "{441, 500}";
}
);
hints = (
{
horizontal = 1;
place = "{-30, 50}";
type = Stem;
},
{
horizontal = 1;
place = "{490, 50}";
type = Stem;
}
);
layerId = "DBFAC7D3-9CB2-48DD-9F53-AD59A4BD1301";
paths = (
{
closed = 1;
nodes = (
"308 -10 OFFCURVE",
"386 74 OFFCURVE",
"395 160 CURVE",
"379 148 LINE",
"379 66 OFFCURVE",
"457 -9 OFFCURVE",
"572 -9 CURVE SMOOTH",
"661 -9 OFFCURVE",
"733 31 OFFCURVE",
"777 95 CURVE",
"714 137 LINE",
"686 90 OFFCURVE",
"643 60 OFFCURVE",
"579 60 CURVE SMOOTH",
"495 60 OFFCURVE",
"438 120 OFFCURVE",
"438 209 CURVE SMOOTH",
"438 319 OFFCURVE",
"486 440 OFFCURVE",
"621 440 CURVE SMOOTH",
"684 440 OFFCURVE",
"729 392 OFFCURVE",
"729 320 CURVE SMOOTH",
"729 314 OFFCURVE",
"729 307 OFFCURVE",
"728 301 CURVE",
"432 301 LINE",
"423 231 LINE",
"793 231 LINE",
"802 261 OFFCURVE",
"807 290 OFFCURVE",
"807 317 CURVE SMOOTH",
"807 427 OFFCURVE",
"739 509 OFFCURVE",
"629 509 CURVE SMOOTH",
"536 509 OFFCURVE",
"461 468 OFFCURVE",
"421 405 CURVE",
"434 401 LINE",
"429 456 OFFCURVE",
"364 509 OFFCURVE",
"277 509 CURVE SMOOTH",
"173 509 OFFCURVE",
"98 466 OFFCURVE",
"57 388 CURVE",
"115 347 LINE",
"149 412 OFFCURVE",
"195 440 OFFCURVE",
"269 440 CURVE SMOOTH",
"349 440 OFFCURVE",
"393 385 OFFCURVE",
"376 309 CURVE SMOOTH",
"350 194 LINE SMOOTH",
"331 109 OFFCURVE",
"284 58 OFFCURVE",
"203 58 CURVE SMOOTH",
"136 58 OFFCURVE",
"104 96 OFFCURVE",
"104 143 CURVE SMOOTH",
"104 199 OFFCURVE",
"129 234 OFFCURVE",
"210 234 CURVE SMOOTH",
"394 234 LINE",
"397 299 LINE",
"204 299 LINE SMOOTH",
"85 299 OFFCURVE",
"24 232 OFFCURVE",
"24 142 CURVE SMOOTH",
"24 64 OFFCURVE",
"77 -10 OFFCURVE",
"196 -10 CURVE SMOOTH"
);
}
);
width = 835;
},
{
anchors = (
{
name = bottom;
position = "{360, 0}";
},
{
name = ogonek;
position = "{691, 5}";
},
{
name = top;
position = "{471, 500}";
}
);
hints = (
{
horizontal = 1;
origin = "{0, 39}";
target = "{0, 22}";
type = Stem;
},
{
horizontal = 1;
origin = "{0, 11}";
target = "{0, 28}";
type = Stem;
}
);
layerId = "EA77C764-8343-414A-A941-E69667BA8F3A";
rightMetricsKey = "=e";
paths = (
{
closed = 1;
nodes = (
"319 -10 OFFCURVE",
"392 63 OFFCURVE",
"412 143 CURVE",
"363 150 LINE",
"378 39 OFFCURVE",
"486 -9 OFFCURVE",
"597 -9 CURVE SMOOTH",
"735 -9 OFFCURVE",
"829 63 OFFCURVE",
"852 138 CURVE",
"664 200 LINE",
"655 171 OFFCURVE",
"634 153 OFFCURVE",
"588 153 CURVE SMOOTH",
"543 153 OFFCURVE",
"523 183 OFFCURVE",
"523 235 CURVE SMOOTH",
"523 311 OFFCURVE",
"541 352 OFFCURVE",
"597 352 CURVE SMOOTH",
"619 352 OFFCURVE",
"646 342 OFFCURVE",
"646 302 CURVE SMOOTH",
"646 299 OFFCURVE",
"646 297 OFFCURVE",
"645 294 CURVE",
"519 294 LINE",
"508 211 LINE",
"854 211 LINE",
"862 236 OFFCURVE",
"864 264 OFFCURVE",
"864 287 CURVE SMOOTH",
"864 418 OFFCURVE",
"775 510 OFFCURVE",
"633 510 CURVE SMOOTH",
"524 510 OFFCURVE",
"467 466 OFFCURVE",
"417 404 CURVE",
"469 387 LINE",
"453 466 OFFCURVE",
"389 510 OFFCURVE",
"279 510 CURVE SMOOTH",
"125 510 OFFCURVE",
"49 436 OFFCURVE",
"24 350 CURVE",
"225 300 LINE",
"231 332 OFFCURVE",
"247 355 OFFCURVE",
"278 355 CURVE SMOOTH",
"319 355 OFFCURVE",
"326 329 OFFCURVE",
"318 293 CURVE SMOOTH",
"287 161 LINE SMOOTH",
"281 137 OFFCURVE",
"262 126 OFFCURVE",
"241 126 CURVE SMOOTH",
"216 126 OFFCURVE",
"204 140 OFFCURVE",
"204 161 CURVE SMOOTH",
"204 186 OFFCURVE",
"222 197 OFFCURVE",
"252 197 CURVE SMOOTH",
"315 197 LINE",
"337 285 LINE",
"180 285 LINE SMOOTH",
"72 285 OFFCURVE",
"-6 236 OFFCURVE",
"-6 139 CURVE SMOOTH",
"-6 51 OFFCURVE",
"65 -10 OFFCURVE",
"183 -10 CURVE SMOOTH"
);
}
);
width = 884;
},
{
anchors = (
{
name = bottom;
position = "{346, 0}";
},
{
name = ogonek;
position = "{632, 0}";
},
{
name = top;
position = "{427, 500}";
}
);
guideLines = (
{
angle = 77;
position = "{-65, 161}";
}
);
hints = (
{
horizontal = 1;
place = "{-25, -1}";
type = Stem;
},
{
horizontal = 1;
place = "{495, -1}";
type = Stem;
},
{
horizontal = 1;
place = "{-25, -1}";
type = Stem;
},
{
horizontal = 1;
place = "{495, -1}";
type = Stem;
},
{
horizontal = 1;
place = "{-25, -1}";
type = Stem;
},
{
horizontal = 1;
place = "{495, -29}";
type = Stem;
},
{
horizontal = 1;
place = "{203, -20}";
target = down;
type = TopGhost;
}
);
layerId = "F97236B5-7CBD-4FD1-81B0-6670342ADB4E";
paths = (
{
closed = 1;
nodes = (
"263 -10 OFFCURVE",
"343 43 OFFCURVE",
"377 210 CURVE",
"374 207 LINE",
"377 98 OFFCURVE",
"436 -9 OFFCURVE",
"577 -9 CURVE SMOOTH",
"672 -9 OFFCURVE",
"728 41 OFFCURVE",
"768 106 CURVE",
"755 114 LINE",
"717 50 OFFCURVE",
"662 5 OFFCURVE",
"577 5 CURVE SMOOTH",
"446 5 OFFCURVE",
"388 102 OFFCURVE",
"388 217 CURVE SMOOTH",
"388 379 OFFCURVE",
"483 495 OFFCURVE",
"611 495 CURVE SMOOTH",
"714 495 OFFCURVE",
"774 410 OFFCURVE",
"774 303 CURVE SMOOTH",
"774 293 OFFCURVE",
"774 283 OFFCURVE",
"772 274 CURVE",
"387 274 LINE",
"387 260 LINE",
"785 260 LINE",
"788 275 OFFCURVE",
"789 291 OFFCURVE",
"789 306 CURVE SMOOTH",
"789 423 OFFCURVE",
"722 509 OFFCURVE",
"611 509 CURVE SMOOTH",
"508 509 OFFCURVE",
"436 445 OFFCURVE",
"402 362 CURVE",
"406 362 LINE",
"406 455 OFFCURVE",
"344 509 OFFCURVE",
"244 509 CURVE SMOOTH",
"149 509 OFFCURVE",
"98 465 OFFCURVE",
"63 392 CURVE",
"75 385 LINE",
"109 457 OFFCURVE",
"157 495 OFFCURVE",
"244 495 CURVE SMOOTH",
"353 495 OFFCURVE",
"408 426 OFFCURVE",
"387 322 CURVE SMOOTH",
"368 228 LINE SMOOTH",
"334 60 OFFCURVE",
"262 4 OFFCURVE",
"155 4 CURVE SMOOTH",
"73 4 OFFCURVE",
"22 53 OFFCURVE",
"22 130 CURVE SMOOTH",
"22 214 OFFCURVE",
"92 260 OFFCURVE",
"189 260 CURVE SMOOTH",
"384 260 LINE",
"384 274 LINE",
"185 274 LINE SMOOTH",
"84 274 OFFCURVE",
"6 220 OFFCURVE",
"6 130 CURVE SMOOTH",
"6 50 OFFCURVE",
"58 -10 OFFCURVE",
"153 -10 CURVE SMOOTH"
);
}
);
width = 818;
},
{
anchors = (
{
name = bottom;
position = "{364, 0}";
},
{
name = ogonek;
position = "{676, 3}";
},
{
name = top;
position = "{466, 500}";
}
);
hints = (
{
horizontal = 1;
origin = "{0, 39}";
target = "{0, 22}";
type = Stem;
},
{
horizontal = 1;
origin = "{0, 11}";
target = "{0, 28}";
type = Stem;
}
);
layerId = "91E16792-BB9C-4BE9-80DD-69B41C5E2CA7";
paths = (
{
closed = 1;
nodes = (
"323 -10 OFFCURVE",
"399 68 OFFCURVE",
"413 151 CURVE",
"380 149 LINE",
"388 52 OFFCURVE",
"482 -9 OFFCURVE",
"595 -9 CURVE SMOOTH",
"710 -9 OFFCURVE",
"794 48 OFFCURVE",
"826 118 CURVE",
"697 171 LINE",
"679 133 OFFCURVE",
"648 110 OFFCURVE",
"593 110 CURVE SMOOTH",
"530 110 OFFCURVE",
"493 154 OFFCURVE",
"493 223 CURVE SMOOTH",
"493 315 OFFCURVE",
"525 393 OFFCURVE",
"618 393 CURVE SMOOTH",
"659 393 OFFCURVE",
"694 365 OFFCURVE",
"694 310 CURVE SMOOTH",
"694 306 OFFCURVE",
"694 302 OFFCURVE",
"693 297 CURVE",
"488 297 LINE",
"478 220 LINE",
"835 220 LINE",
"843 248 OFFCURVE",
"847 276 OFFCURVE",
"847 301 CURVE SMOOTH",
"847 422 OFFCURVE",
"768 510 OFFCURVE",
"640 510 CURVE SMOOTH",
"539 510 OFFCURVE",
"474 467 OFFCURVE",
"428 404 CURVE",
"462 394 LINE",
"451 461 OFFCURVE",
"387 510 OFFCURVE",
"287 510 CURVE SMOOTH",
"157 510 OFFCURVE",
"81 450 OFFCURVE",
"49 368 CURVE",
"183 322 LINE",
"202 369 OFFCURVE",
"232 395 OFFCURVE",
"283 395 CURVE SMOOTH",
"342 395 OFFCURVE",
"367 355 OFFCURVE",
"354 300 CURVE SMOOTH",
"326 176 LINE SMOOTH",
"314 124 OFFCURVE",
"282 94 OFFCURVE",
"233 94 CURVE SMOOTH",
"188 94 OFFCURVE",
"167 119 OFFCURVE",
"167 153 CURVE SMOOTH",
"167 192 OFFCURVE",
"188 214 OFFCURVE",
"242 214 CURVE SMOOTH",
"361 214 LINE",
"374 292 LINE",
"201 292 LINE SMOOTH",
"87 292 OFFCURVE",
"17 234 OFFCURVE",
"17 140 CURVE SMOOTH",
"17 57 OFFCURVE",
"80 -10 OFFCURVE",
"198 -10 CURVE SMOOTH"
);
}
);
width = 869;
}
);
leftKerningGroup = a;
rightKerningGroup = e;
rightMetricsKey = "=e";
unicode = 00E6;
},
{
color = 5;
glyphname = b;
layers = (
{
anchors = (
{
name = bottom;
position = "{240, 0}";
},
{
name = ogonek;
position = "{367, 5}";
},
{
name = top;
position = "{207, 674}";
}
);
color = 4;
layerId = "DBFAC7D3-9CB2-48DD-9F53-AD59A4BD1301";
paths = (
{
closed = 1;
nodes = (
"273 508 OFFCURVE",
"205 462 OFFCURVE",
"178 401 CURVE",
"180 387 LINE",
"254 704 LINE",
"174 704 LINE",
"11 0 LINE",
"91 0 LINE",
"125 146 LINE",
"114 134 LINE",
"120 57 OFFCURVE",
"184 -10 OFFCURVE",
"286 -10 CURVE SMOOTH",
"431 -10 OFFCURVE",
"541 119 OFFCURVE",
"541 286 CURVE SMOOTH",
"541 427 OFFCURVE",
"460 508 OFFCURVE",
"352 508 CURVE SMOOTH"
);
},
{
closed = 1;
nodes = (
"196 59 OFFCURVE",
"149 118 OFFCURVE",
"149 205 CURVE SMOOTH",
"149 341 OFFCURVE",
"223 439 OFFCURVE",
"329 439 CURVE SMOOTH",
"405 439 OFFCURVE",
"462 389 OFFCURVE",
"462 288 CURVE SMOOTH",
"462 155 OFFCURVE",
"382 59 OFFCURVE",
"285 59 CURVE SMOOTH"
);
}
);
width = 576;
},
{
anchors = (
{
name = bottom;
position = "{258, 0}";
},
{
name = ogonek;
position = "{442, 0}";
},
{
name = top;
position = "{257, 700}";
}
);
color = 4;
layerId = "EA77C764-8343-414A-A941-E69667BA8F3A";
leftMetricsKey = "=n";
paths = (
{
closed = 1;
nodes = (
"364 510 OFFCURVE",
"310 448 OFFCURVE",
"276 348 CURVE",
"285 320 LINE",
"373 704 LINE",
"143 704 LINE",
"-20 0 LINE",
"202 0 LINE",
"258 197 LINE",
"233 214 LINE",
"202 34 OFFCURVE",
"286 -10 OFFCURVE",
"365 -10 CURVE SMOOTH",
"510 -10 OFFCURVE",
"604 149 OFFCURVE",
"604 325 CURVE SMOOTH",
"604 448 OFFCURVE",
"541 510 OFFCURVE",
"462 510 CURVE SMOOTH"
);
},
{
closed = 1;
nodes = (
"280 161 OFFCURVE",
"262 178 OFFCURVE",
"262 214 CURVE SMOOTH",
"262 263 OFFCURVE",
"285 338 OFFCURVE",
"334 338 CURVE SMOOTH",
"364 338 OFFCURVE",
"376 318 OFFCURVE",
"376 283 CURVE SMOOTH",
"376 242 OFFCURVE",
"358 161 OFFCURVE",
"306 161 CURVE SMOOTH"
);
}
);
width = 619;
},
{
anchors = (
{
name = bottom;
position = "{223, 0}";
},
{
name = ogonek;
position = "{345, 21}";
},
{
name = top;
position = "{171, 654}";
}
);
color = 4;
layerId = "F97236B5-7CBD-4FD1-81B0-6670342ADB4E";
rightMetricsKey = "=p";
paths = (
{
closed = 1;
nodes = (
"230 510 OFFCURVE",
"153 463 OFFCURVE",
"114 380 CURVE",
"114 378 LINE",
"190 704 LINE",
"174 704 LINE",
"12 0 LINE",
"28 0 LINE",
"75 202 LINE",
"73 200 LINE",
"75 78 OFFCURVE",
"148 -10 OFFCURVE",
"277 -10 CURVE SMOOTH",
"429 -10 OFFCURVE",
"519 126 OFFCURVE",
"519 285 CURVE SMOOTH",
"519 411 OFFCURVE",
"447 510 OFFCURVE",
"321 510 CURVE SMOOTH"
);
},
{
closed = 1;
nodes = (
"164 4 OFFCURVE",
"88 80 OFFCURVE",
"88 203 CURVE SMOOTH",
"88 369 OFFCURVE",
"174 496 OFFCURVE",
"320 496 CURVE SMOOTH",
"424 496 OFFCURVE",
"503 415 OFFCURVE",
"503 286 CURVE SMOOTH",
"503 127 OFFCURVE",
"413 4 OFFCURVE",
"278 4 CURVE SMOOTH"
);
}
);
width = 552;
},
{
anchors = (
{
name = bottom;
position = "{259, 0}";
},
{
name = ogonek;
position = "{416, 2}";
},
{
name = top;
position = "{243, 688}";
}
);
color = 4;
layerId = "91E16792-BB9C-4BE9-80DD-69B41C5E2CA7";
paths = (
{
closed = 1;
nodes = (
"327 509 OFFCURVE",
"268 454 OFFCURVE",
"240 377 CURVE",
"245 351 LINE",
"327 704 LINE",
"167 704 LINE",
"4 0 LINE",
"160 0 LINE",
"205 174 LINE",
"174 164 LINE",
"175 47 OFFCURVE",
"247 -10 OFFCURVE",
"345 -10 CURVE SMOOTH",
"482 -10 OFFCURVE",
"584 135 OFFCURVE",
"584 307 CURVE SMOOTH",
"584 438 OFFCURVE",
"510 509 OFFCURVE",
"417 509 CURVE SMOOTH"
);
},
{
closed = 1;
nodes = (
"253 123 OFFCURVE",
"222 162 OFFCURVE",
"222 223 CURVE SMOOTH",
"222 311 OFFCURVE",
"263 376 OFFCURVE",
"338 376 CURVE SMOOTH",
"395 376 OFFCURVE",
"426 335 OFFCURVE",
"423 269 CURVE SMOOTH",
"419 186 OFFCURVE",
"383 123 OFFCURVE",
"312 123 CURVE SMOOTH"
);
}
);
width = 616;
}
);
leftKerningGroup = h;
leftMetricsKey = n;
rightKerningGroup = o;
rightMetricsKey = p;
unicode = 0062;
},
{
color = 5;
glyphname = c;
layers = (
{
anchors = (
{
name = bottom;
position = "{215, 0}";
},
{
name = ogonek;
position = "{337, 17}";
},
{
name = top;
position = "{304, 500}";
}
);
layerId = "DBFAC7D3-9CB2-48DD-9F53-AD59A4BD1301";
paths = (
{
closed = 1;
nodes = (
"351 -9 OFFCURVE",
"430 34 OFFCURVE",
"465 111 CURVE",
"387 139 LINE",
"368 87 OFFCURVE",
"317 60 OFFCURVE",
"265 60 CURVE SMOOTH",
"169 60 OFFCURVE",
"118 130 OFFCURVE",
"118 218 CURVE SMOOTH",
"118 351 OFFCURVE",
"193 440 OFFCURVE",
"295 440 CURVE SMOOTH",
"373 440 OFFCURVE",
"413 393 OFFCURVE",
"419 335 CURVE",
"503 355 LINE",
"485 443 OFFCURVE",
"412 509 OFFCURVE",
"299 509 CURVE SMOOTH",
"142 509 OFFCURVE",
"37 388 OFFCURVE",
"37 217 CURVE SMOOTH",
"37 92 OFFCURVE",
"118 -9 OFFCURVE",
"257 -9 CURVE SMOOTH"
);
}
);
width = 511;
},
{
anchors = (
{
name = bottom;
position = "{264, 3}";
},
{
name = ogonek;
position = "{368, 10}";
},
{
name = top;
position = "{356, 500}";
}
);
color = 4;
layerId = "EA77C764-8343-414A-A941-E69667BA8F3A";
leftMetricsKey = "=o";
paths = (
{
closed = 1;
nodes = (
"442 -10 OFFCURVE",
"518 51 OFFCURVE",
"562 154 CURVE",
"349 215 LINE",
"344 181 OFFCURVE",
"324 153 OFFCURVE",
"293 153 CURVE SMOOTH",
"260 153 OFFCURVE",
"243 171 OFFCURVE",
"243 222 CURVE SMOOTH",
"243 280 OFFCURVE",
"266 347 OFFCURVE",
"316 347 CURVE SMOOTH",
"352 347 OFFCURVE",
"360 315 OFFCURVE",
"352 273 CURVE",
"569 301 LINE",
"573 426 OFFCURVE",
"477 510 OFFCURVE",
"322 510 CURVE SMOOTH",
"128 510 OFFCURVE",
"19 378 OFFCURVE",
"19 231 CURVE SMOOTH",
"19 86 OFFCURVE",
"122 -10 OFFCURVE",
"287 -10 CURVE SMOOTH"
);
}
);
width = 577;
},
{
anchors = (
{
name = bottom;
position = "{222, 0}";
},
{
name = ogonek;
position = "{359, 21}";
},
{
name = top;
position = "{291, 500}";
}
);
layerId = "F97236B5-7CBD-4FD1-81B0-6670342ADB4E";
paths = (
{
closed = 1;
nodes = (
"336 -10 OFFCURVE",
"405 43 OFFCURVE",
"441 118 CURVE",
"429 125 LINE",
"396 55 OFFCURVE",
"331 4 OFFCURVE",
"247 4 CURVE SMOOTH",
"135 4 OFFCURVE",
"48 83 OFFCURVE",
"48 217 CURVE SMOOTH",
"48 368 OFFCURVE",
"135 496 OFFCURVE",
"284 496 CURVE SMOOTH",
"374 496 OFFCURVE",
"434 445 OFFCURVE",
"453 360 CURVE",
"468 363 LINE",
"448 456 OFFCURVE",
"379 510 OFFCURVE",
"284 510 CURVE SMOOTH",
"127 510 OFFCURVE",
"32 378 OFFCURVE",
"32 214 CURVE SMOOTH",
"32 78 OFFCURVE",
"124 -10 OFFCURVE",
"244 -10 CURVE SMOOTH"
);
}
);
width = 486;
},
{
anchors = (
{
name = bottom;
position = "{248, 2}";
},
{
name = ogonek;
position = "{361, 13}";
},
{
name = top;
position = "{339, 500}";
}
);
color = 4;
layerId = "91E16792-BB9C-4BE9-80DD-69B41C5E2CA7";
paths = (
{
closed = 1;
nodes = (
"407 -10 OFFCURVE",
"484 43 OFFCURVE",
"524 134 CURVE",
"374 186 LINE",
"363 142 OFFCURVE",
"328 118 OFFCURVE",
"287 118 CURVE SMOOTH",
"233 118 OFFCURVE",
"196 154 OFFCURVE",
"196 224 CURVE SMOOTH",
"196 299 OFFCURVE",
"234 382 OFFCURVE",
"314 382 CURVE SMOOTH",
"369 382 OFFCURVE",
"392 347 OFFCURVE",
"395 296 CURVE",
"546 326 LINE",
"539 434 OFFCURVE",
"457 510 OFFCURVE",
"322 510 CURVE SMOOTH",
"142 510 OFFCURVE",
"35 383 OFFCURVE",
"35 224 CURVE SMOOTH",
"35 89 OFFCURVE",
"127 -10 OFFCURVE",
"280 -10 CURVE SMOOTH"
);
}
);
width = 560;
}
);
leftKerningGroup = o;
leftMetricsKey = o;
rightKerningGroup = c;
unicode = 0063;
},
{
color = 5;
glyphname = d;
layers = (
{
anchors = (
{
name = bottom;
position = "{220, 0}";
},
{
name = center;
position = "{293, 250}";
},
{
name = ogonek;
position = "{309, 10}";
},
{
name = top;
position = "{565, 674}";
},
{
name = topright;
position = "{691, 704}";
}
);
color = 4;
guideLines = (
{
angle = 77.0162;
position = "{394, 344}";
}
);
layerId = "DBFAC7D3-9CB2-48DD-9F53-AD59A4BD1301";
leftMetricsKey = "=o";
rightMetricsKey = "=u";
paths = (
{
closed = 1;
nodes = (
"300 -8 OFFCURVE",
"364 31 OFFCURVE",
"396 93 CURVE",
"379 0 LINE",
"449 0 LINE",
"612 704 LINE",
"532 704 LINE",
"459 387 LINE",
"441 462 OFFCURVE",
"378 510 OFFCURVE",
"290 510 CURVE SMOOTH",
"142 510 OFFCURVE",
"35 378 OFFCURVE",
"35 212 CURVE SMOOTH",
"35 82 OFFCURVE",
"115 -8 OFFCURVE",
"231 -8 CURVE SMOOTH"
);
},
{
closed = 1;
nodes = (
"163 60 OFFCURVE",
"114 115 OFFCURVE",
"114 213 CURVE SMOOTH",
"114 341 OFFCURVE",
"189 441 OFFCURVE",
"295 441 CURVE SMOOTH",
"375 441 OFFCURVE",
"427 383 OFFCURVE",
"427 293 CURVE SMOOTH",
"427 162 OFFCURVE",
"347 60 OFFCURVE",
"251 60 CURVE SMOOTH"
);
}
);
width = 576;
},
{
anchors = (
{
name = bottom;
position = "{265, 0}";
},
{
name = center;
position = "{303, 250}";
},
{
name = ogonek;
position = "{246, 2}";
},
{
name = top;
position = "{570, 700}";
},
{
name = topright;
position = "{740, 700}";
}
);
color = 4;
guideLines = (
{
angle = 77;
position = "{366, 313}";
},
{
angle = 77;
position = "{113, -70}";
}
);
layerId = "EA77C764-8343-414A-A941-E69667BA8F3A";
rightMetricsKey = "=u";
paths = (
{
closed = 1;
nodes = (
"246 -10 OFFCURVE",
"297 29 OFFCURVE",
"330 95 CURVE",
"313 0 LINE",
"523 0 LINE",
"686 704 LINE",
"456 704 LINE",
"385 396 LINE",
"374 473 OFFCURVE",
"324 510 OFFCURVE",
"255 510 CURVE SMOOTH",
"97 510 OFFCURVE",
"15 341 OFFCURVE",
"15 183 CURVE SMOOTH",
"15 56 OFFCURVE",
"78 -10 OFFCURVE",
"169 -10 CURVE SMOOTH"
);
},
{
closed = 1;
nodes = (
"256 162 OFFCURVE",
"243 182 OFFCURVE",
"243 213 CURVE SMOOTH",
"243 258 OFFCURVE",
"262 339 OFFCURVE",
"316 339 CURVE SMOOTH",
"343 339 OFFCURVE",
"357 322 OFFCURVE",
"357 293 CURVE SMOOTH",
"357 237 OFFCURVE",
"335 162 OFFCURVE",
"287 162 CURVE SMOOTH"
);
}
);
width = 619;
},
{
anchors = (
{
name = bottom;
position = "{237, 0}";
},
{
name = center;
position = "{294, 281}";
},
{
name = ogonek;
position = "{289, -5}";
},
{
name = top;
position = "{567, 654}";
},
{
name = topright;
position = "{676, 704}";
}
);
color = 4;
layerId = "F97236B5-7CBD-4FD1-81B0-6670342ADB4E";
leftMetricsKey = "=o";
rightMetricsKey = "=u";
paths = (
{
closed = 1;
nodes = (
"338 -10 OFFCURVE",
"402 50 OFFCURVE",
"438 126 CURVE",
"409 0 LINE",
"425 0 LINE",
"587 704 LINE",
"571 704 LINE",
"481 311 LINE",
"485 435 OFFCURVE",
"409 510 OFFCURVE",
"289 510 CURVE SMOOTH",
"131 510 OFFCURVE",
"33 381 OFFCURVE",
"33 217 CURVE SMOOTH",
"33 85 OFFCURVE",
"110 -10 OFFCURVE",
"238 -10 CURVE SMOOTH"
);
},
{
closed = 1;
nodes = (
"133 4 OFFCURVE",
"49 82 OFFCURVE",
"49 216 CURVE SMOOTH",
"49 380 OFFCURVE",
"145 496 OFFCURVE",
"288 496 CURVE SMOOTH",
"384 496 OFFCURVE",
"471 441 OFFCURVE",
"471 302 CURVE SMOOTH",
"471 159 OFFCURVE",
"383 4 OFFCURVE",
"242 4 CURVE SMOOTH"
);
}
);
width = 552;
},
{
anchors = (
{
name = bottom;
position = "{251, 0}";
},
{
name = center;
position = "{306, 250}";
},
{
name = ogonek;
position = "{283, 6}";
},
{
name = top;
position = "{575, 688}";
},
{
name = topright;
position = "{724, 702}";
}
);
color = 4;
layerId = "91E16792-BB9C-4BE9-80DD-69B41C5E2CA7";
paths = (
{
closed = 1;
nodes = (
"290 -9 OFFCURVE",
"335 20 OFFCURVE",
"364 72 CURVE",
"351 0 LINE",
"496 0 LINE",
"659 704 LINE",
"499 704 LINE",
"432 413 LINE",
"413 476 OFFCURVE",
"361 510 OFFCURVE",
"284 510 CURVE SMOOTH",
"121 510 OFFCURVE",
"32 369 OFFCURVE",
"32 209 CURVE SMOOTH",
"32 79 OFFCURVE",
"110 -9 OFFCURVE",
"223 -9 CURVE SMOOTH"
);
},
{
closed = 1;
nodes = (
"214 124 OFFCURVE",
"193 170 OFFCURVE",
"193 226 CURVE SMOOTH",
"193 315 OFFCURVE",
"237 377 OFFCURVE",
"308 377 CURVE SMOOTH",
"371 377 OFFCURVE",
"394 333 OFFCURVE",
"394 278 CURVE SMOOTH",
"394 198 OFFCURVE",
"354 124 OFFCURVE",
"284 124 CURVE SMOOTH"
);
}
);
width = 616;
}
);
leftKerningGroup = o;
rightKerningGroup = d;
rightMetricsKey = "=|n";
unicode = 0064;
},
{
color = 5;
glyphname = eth;
layers = (
{
anchors = (
{
name = bottom;
position = "{217, 0}";
},
{
name = ogonek;
position = "{333, 5}";
},
{
name = top;
position = "{386, 730}";
}
);
color = 4;
layerId = "DBFAC7D3-9CB2-48DD-9F53-AD59A4BD1301";
paths = (
{
closed = 1;
nodes = (
"434 -10 OFFCURVE",
"523 163 OFFCURVE",
"523 367 CURVE SMOOTH",
"523 507 OFFCURVE",
"473 631 OFFCURVE",
"378 704 CURVE",
"274 704 LINE",
"387 628 OFFCURVE",
"443 522 OFFCURVE",
"443 382 CURVE SMOOTH",
"443 369 OFFCURVE",
"443 356 OFFCURVE",
"442 343 CURVE",
"462 344 LINE",
"460 430 OFFCURVE",
"392 487 OFFCURVE",
"291 487 CURVE SMOOTH",
"144 487 OFFCURVE",
"34 368 OFFCURVE",
"34 214 CURVE SMOOTH",
"34 90 OFFCURVE",
"113 -10 OFFCURVE",
"249 -10 CURVE SMOOTH"
);
},
{
closed = 1;
nodes = (
"174 60 OFFCURVE",
"114 124 OFFCURVE",
"114 216 CURVE SMOOTH",
"114 318 OFFCURVE",
"182 417 OFFCURVE",
"293 417 CURVE SMOOTH",
"380 417 OFFCURVE",
"432 368 OFFCURVE",
"432 269 CURVE SMOOTH",
"432 163 OFFCURVE",
"368 60 OFFCURVE",
"263 60 CURVE SMOOTH"
);
},
{
closed = 1;
nodes = (
"446 588 LINE",
"411 635 LINE",
"222 593 LINE",
"235 536 LINE"
);
},
{
closed = 1;
nodes = (
"589 621 LINE",
"573 677 LINE",
"412 635 LINE",
"446 588 LINE"
);
}
);
width = 550;
},
{
anchors = (
{
name = bottom;
position = "{237, 0}";
},
{
name = ogonek;
position = "{375, 13}";
},
{
name = top;
position = "{399, 700}";
}
);
color = 4;
layerId = "EA77C764-8343-414A-A941-E69667BA8F3A";
paths = (
{
closed = 1;
nodes = (
"482 -10 OFFCURVE",
"590 171 OFFCURVE",
"590 409 CURVE SMOOTH",
"590 554 OFFCURVE",
"508 649 OFFCURVE",
"441 704 CURVE",
"249 704 LINE",
"354 622 OFFCURVE",
"427 539 OFFCURVE",
"427 415 CURVE SMOOTH",
"427 394 OFFCURVE",
"425 373 OFFCURVE",
"421 350 CURVE",
"470 372 LINE",
"470 459 OFFCURVE",
"410 506 OFFCURVE",
"284 506 CURVE SMOOTH",
"126 506 OFFCURVE",
"21 395 OFFCURVE",
"21 234 CURVE SMOOTH",
"21 91 OFFCURVE",
"116 -10 OFFCURVE",
"281 -10 CURVE SMOOTH"
);
},
{
closed = 1;
nodes = (
"252 155 OFFCURVE",
"239 170 OFFCURVE",
"239 200 CURVE SMOOTH",
"239 258 OFFCURVE",
"274 356 OFFCURVE",
"325 356 CURVE SMOOTH",
"352 356 OFFCURVE",
"363 340 OFFCURVE",
"363 308 CURVE SMOOTH",
"363 241 OFFCURVE",
"330 155 OFFCURVE",
"280 155 CURVE SMOOTH"
);
},
{
closed = 1;
nodes = (
"412 570 LINE",
"386 625 LINE",
"237 606 LINE",
"244 546 LINE"
);
},
{
closed = 1;
nodes = (
"646 603 LINE",
"638 662 LINE",
"472 637 LINE",
"485 581 LINE"
);
}
);
width = 592;
},
{
anchors = (
{
name = bottom;
position = "{224, 0}";
},
{
name = ogonek;
position = "{330, 8}";
},
{
name = top;
position = "{385, 704}";
}
);
color = 4;
guideLines = (
{
angle = 77;
position = "{171, 58}";
}
);
layerId = "F97236B5-7CBD-4FD1-81B0-6670342ADB4E";
paths = (
{
closed = 1;
nodes = (
"428 -10 OFFCURVE",
"515 188 OFFCURVE",
"515 376 CURVE SMOOTH",
"515 552 OFFCURVE",
"439 670 OFFCURVE",
"302 704 CURVE",
"268 704 LINE",
"423 667 OFFCURVE",
"499 557 OFFCURVE",
"499 373 CURVE SMOOTH",
"499 311 OFFCURVE",
"490 254 OFFCURVE",
"471 197 CURVE",
"480 212 LINE",
"503 393 OFFCURVE",
"407 487 OFFCURVE",
"284 487 CURVE SMOOTH",
"147 487 OFFCURVE",
"33 371 OFFCURVE",
"33 217 CURVE SMOOTH",
"33 102 OFFCURVE",
"104 -10 OFFCURVE",
"239 -10 CURVE SMOOTH"
);
},
{
closed = 1;
nodes = (
"126 4 OFFCURVE",
"49 98 OFFCURVE",
"49 216 CURVE SMOOTH",
"49 369 OFFCURVE",
"163 473 OFFCURVE",
"283 473 CURVE SMOOTH",
"400 473 OFFCURVE",
"470 389 OFFCURVE",
"470 252 CURVE SMOOTH",
"470 132 OFFCURVE",
"384 4 OFFCURVE",
"237 4 CURVE SMOOTH"
);
},
{
closed = 1;
nodes = (
"438 607 LINE",
"433 619 LINE",
"275 587 LINE",
"276 574 LINE"
);
},
{
closed = 1;
nodes = (
"587 638 LINE",
"586 651 LINE",
"433 619 LINE",
"438 607 LINE"
);
}
);
width = 535;
},
{
anchors = (
{
name = bottom;
position = "{236, 0}";
},
{
name = ogonek;
position = "{363, 9}";
},
{
name = top;
position = "{401, 714}";
}
);
layerId = "91E16792-BB9C-4BE9-80DD-69B41C5E2CA7";
paths = (
{
closed = 1;
nodes = (
"471 -10 OFFCURVE",
"567 167 OFFCURVE",
"567 389 CURVE SMOOTH",
"567 535 OFFCURVE",
"500 646 OFFCURVE",
"420 711 CURVE",
"274 711 LINE",
"377 630 OFFCURVE",
"443 534 OFFCURVE",
"443 400 CURVE SMOOTH",
"443 382 OFFCURVE",
"441 365 OFFCURVE",
"439 347 CURVE",
"494 359 LINE",
"473 445 OFFCURVE",
"410 497 OFFCURVE",
"305 497 CURVE SMOOTH",
"142 497 OFFCURVE",
"35 381 OFFCURVE",
"35 214 CURVE SMOOTH",
"35 90 OFFCURVE",
"116 -10 OFFCURVE",
"277 -10 CURVE SMOOTH"
);
},
{
closed = 1;
nodes = (
"226 118 OFFCURVE",
"188 153 OFFCURVE",
"188 211 CURVE SMOOTH",
"188 295 OFFCURVE",
"231 373 OFFCURVE",
"320 373 CURVE SMOOTH",
"375 373 OFFCURVE",
"409 341 OFFCURVE",
"409 278 CURVE SMOOTH",
"409 193 OFFCURVE",
"358 118 OFFCURVE",
"282 118 CURVE SMOOTH"
);
},
{
closed = 1;
nodes = (
"436 578 LINE",
"406 630 LINE",
"238 600 LINE",
"248 541 LINE"
);
},
{
closed = 1;
nodes = (
"627 611 LINE",
"616 669 LINE",
"452 636 LINE",
"475 584 LINE"
);
}
);
width = 591;
}
);
unicode = 00F0;
},
{
color = 5;
glyphname = dcroat;
layers = (
{
components = (
{
name = d;
}
);
guideLines = (
{
angle = 77;
position = "{282, 627}";
}
);
layerId = "DBFAC7D3-9CB2-48DD-9F53-AD59A4BD1301";
paths = (
{
closed = 1;
nodes = (
"337 627 LINE",
"322 562 LINE",
"662 562 LINE",
"677 627 LINE"
);
}
);
width = 585;
},
{
components = (
{
name = d;
}
);
guideLines = (
{
angle = 77;
position = "{336, 657}";
}
);
layerId = "EA77C764-8343-414A-A941-E69667BA8F3A";
paths = (
{
closed = 1;
nodes = (
"324 657 LINE",
"295 530 LINE",
"713 530 LINE",
"742 657 LINE"
);
}
);
width = 622;
},
{
components = (
{
alignment = -1;
name = d;
}
);
layerId = "F97236B5-7CBD-4FD1-81B0-6670342ADB4E";
paths = (
{
closed = 1;
nodes = (
"356 592 LINE",
"649 592 LINE",
"652 606 LINE",
"359 606 LINE"
);
}
);
width = 543;
},
{
components = (
{
alignment = -1;
name = d;
}
);
layerId = "91E16792-BB9C-4BE9-80DD-69B41C5E2CA7";
paths = (
{
closed = 1;
nodes = (
"339 643 LINE",
"317 545 LINE",
"699 545 LINE",
"721 643 LINE"
);
}
);
width = 623;
}
);
leftKerningGroup = o;
leftMetricsKey = d;
rightKerningGroup = d;
unicode = 0111;
},
{
color = 5;
glyphname = e;
layers = (
{
anchors = (
{
name = bottom;
position = "{246, 0}";
},
{
name = ogonek;
position = "{346, 5}";
},
{
name = top;
position = "{300, 500}";
}
);
layerId = "DBFAC7D3-9CB2-48DD-9F53-AD59A4BD1301";
leftMetricsKey = "=o";
paths = (
{
closed = 1;
nodes = (
"350 -9 OFFCURVE",
"422 31 OFFCURVE",
"466 95 CURVE",
"403 137 LINE",
"375 91 OFFCURVE",
"333 61 OFFCURVE",
"265 60 CURVE SMOOTH",
"175 60 OFFCURVE",
"117 123 OFFCURVE",
"117 213 CURVE SMOOTH",
"117 323 OFFCURVE",
"165 440 OFFCURVE",
"297 440 CURVE SMOOTH",
"373 440 OFFCURVE",
"418 392 OFFCURVE",
"418 320 CURVE SMOOTH",
"418 305 OFFCURVE",
"416 289 OFFCURVE",
"412 273 CURVE",
"447 301 LINE",
"75 301 LINE",
"75 231 LINE",
"482 231 LINE",
"491 261 OFFCURVE",
"496 290 OFFCURVE",
"496 317 CURVE SMOOTH",
"496 427 OFFCURVE",
"424 509 OFFCURVE",
"302 509 CURVE SMOOTH",
"131 509 OFFCURVE",
"36 372 OFFCURVE",
"36 216 CURVE SMOOTH",
"36 89 OFFCURVE",
"117 -9 OFFCURVE",
"256 -9 CURVE SMOOTH"
);
}
);
width = 524;
},
{
anchors = (
{
name = bottom;
position = "{270, 0}";
},
{
name = ogonek;
position = "{409, 9}";
},
{
name = top;
position = "{337, 500}";
}
);
color = 4;
hints = (
{
horizontal = 1;
place = "{-10, 153}";
type = Stem;
},
{
horizontal = 1;
place = "{510, 152}";
type = Stem;
}
);
layerId = "EA77C764-8343-414A-A941-E69667BA8F3A";
leftMetricsKey = "=o";
paths = (
{
closed = 1;
nodes = (
"415 -9 OFFCURVE",
"526 46 OFFCURVE",
"558 138 CURVE",
"370 200 LINE",
"361 168 OFFCURVE",
"333 153 OFFCURVE",
"297 153 CURVE SMOOTH",
"255 153 OFFCURVE",
"229 171 OFFCURVE",
"229 238 CURVE SMOOTH",
"229 325 OFFCURVE",
"257 352 OFFCURVE",
"304 352 CURVE SMOOTH",
"333 352 OFFCURVE",
"352 334 OFFCURVE",
"352 303 CURVE SMOOTH",
"352 293 OFFCURVE",
"351 284 OFFCURVE",
"346 270 CURVE",
"399 294 LINE",
"175 294 LINE",
"176 211 LINE",
"560 211 LINE",
"566 233 OFFCURVE",
"568 264 OFFCURVE",
"568 287 CURVE SMOOTH",
"568 418 OFFCURVE",
"475 510 OFFCURVE",
"313 510 CURVE SMOOTH",
"129 510 OFFCURVE",
"19 388 OFFCURVE",
"19 227 CURVE SMOOTH",
"19 75 OFFCURVE",
"135 -9 OFFCURVE",
"284 -9 CURVE SMOOTH"
);
}
);
width = 590;
},
{
anchors = (
{
name = bottom;
position = "{238, 0}";
},
{
name = ogonek;
position = "{311, 0}";
},
{
name = top;
position = "{284, 500}";
}
);
hints = (
{
horizontal = 1;
place = "{-25, -1}";
type = Stem;
},
{
horizontal = 1;
place = "{495, -29}";
type = Stem;
}
);
layerId = "F97236B5-7CBD-4FD1-81B0-6670342ADB4E";
paths = (
{
closed = 1;
nodes = (
"339 -9 OFFCURVE",
"407 41 OFFCURVE",
"447 106 CURVE",
"434 114 LINE",
"396 50 OFFCURVE",
"329 5 OFFCURVE",
"245 5 CURVE SMOOTH",
"123 5 OFFCURVE",
"48 95 OFFCURVE",
"48 217 CURVE SMOOTH",
"48 371 OFFCURVE",
"138 495 OFFCURVE",
"280 495 CURVE SMOOTH",
"391 495 OFFCURVE",
"453 408 OFFCURVE",
"453 302 CURVE SMOOTH",
"453 292 OFFCURVE",
"452 281 OFFCURVE",
"451 271 CURVE",
"456 274 LINE",
"43 274 LINE",
"43 260 LINE",
"466 260 LINE",
"468 275 OFFCURVE",
"469 291 OFFCURVE",
"469 305 CURVE SMOOTH",
"469 420 OFFCURVE",
"398 509 OFFCURVE",
"282 509 CURVE SMOOTH",
"124 509 OFFCURVE",
"32 373 OFFCURVE",
"32 217 CURVE SMOOTH",
"32 93 OFFCURVE",
"108 -9 OFFCURVE",
"245 -9 CURVE SMOOTH"
);
}
);
width = 497;
},
{
anchors = (
{
name = bottom;
position = "{268, 0}";
},
{
name = ogonek;
position = "{389, 7}";
},
{
name = top;
position = "{329, 500}";
}
);
color = 4;
hints = (
{
horizontal = 1;
place = "{-5.333, 81.6}";
type = Stem;
},
{
horizontal = 1;
place = "{272, 81.067}";
type = Stem;
}
);
layerId = "91E16792-BB9C-4BE9-80DD-69B41C5E2CA7";
paths = (
{
closed = 1;
nodes = (
"398 -9 OFFCURVE",
"489 37 OFFCURVE",
"527 109 CURVE",
"401 175 LINE",
"382 137 OFFCURVE",
"347 115 OFFCURVE",
"296 115 CURVE SMOOTH",
"230 115 OFFCURVE",
"188 152 OFFCURVE",
"188 226 CURVE SMOOTH",
"188 321 OFFCURVE",
"224 388 OFFCURVE",
"310 388 CURVE SMOOTH",
"362 388 OFFCURVE",
"394 358 OFFCURVE",
"394 311 CURVE SMOOTH",
"394 299 OFFCURVE",
"393 286 OFFCURVE",
"388 271 CURVE",
"433 301 LINE",
"138 301 LINE",
"138 208 LINE",
"533 208 LINE",
"540 238 OFFCURVE",
"544 270 OFFCURVE",
"544 299 CURVE SMOOTH",
"544 420 OFFCURVE",
"465 510 OFFCURVE",
"321 510 CURVE SMOOTH",
"143 510 OFFCURVE",
"36 382 OFFCURVE",
"36 231 CURVE SMOOTH",
"36 83 OFFCURVE",
"128 -9 OFFCURVE",
"285 -9 CURVE SMOOTH"
);
}
);
width = 573;
}
);
leftKerningGroup = o;
leftMetricsKey = o;
rightKerningGroup = e;
unicode = 0065;
},
{
color = 5;
glyphname = f;
layers = (
{
anchors = (
{
name = bottom;
position = "{90, 0}";
},
{
name = ogonek;
position = "{130, 0}";
},
{
name = top;
position = "{342, 730}";
}
);
color = 4;
guideLines = (
{
angle = 90;
position = "{296, 500}";
},
{
angle = 77;
position = "{132, 593}";
},
{
angle = 77;
position = "{75, 0}";
}
);
hints = (
{
horizontal = 1;
place = "{-20, 21}";
target = up;
type = BottomGhost;
},
{
horizontal = 1;
place = "{480, 49}";
type = Stem;
},
{
horizontal = 1;
place = "{642, 53}";
type = Stem;
},
{
place = "{112, 60}";
type = Stem;
}
);
layerId = "DBFAC7D3-9CB2-48DD-9F53-AD59A4BD1301";
paths = (
{
closed = 1;
nodes = (
"130 0 LINE",
"240 474 LINE",
"245 500 LINE",
"256 546 LINE SMOOTH",
"272 612 OFFCURVE",
"298 637 OFFCURVE",
"354 637 CURVE SMOOTH",
"379 637 OFFCURVE",
"402 628 OFFCURVE",
"416 620 CURVE",
"443 685 LINE",
"425 698 OFFCURVE",
"391 709 OFFCURVE",
"354 709 CURVE SMOOTH",
"262 709 OFFCURVE",
"204 666 OFFCURVE",
"181 567 CURVE SMOOTH",
"50 0 LINE"
);
},
{
closed = 1;
nodes = (
"384 431 LINE",
"400 500 LINE",
"64 500 LINE",
"48 431 LINE"
);
}
);
width = 345;
},
{
anchors = (
{
name = bottom;
position = "{140, 0}";
},
{
name = ogonek;
position = "{255, 0}";
},
{
name = top;
position = "{369, 700}";
}
);
color = 4;
guideLines = (
{
angle = 90;
position = "{438, 500}";
},
{
angle = 76.9244;
position = "{25, 345}";
},
{
angle = 72.0611;
position = "{545, 695}";
},
{
angle = 76.1713;
position = "{363, 515}";
}
);
hints = (
{
horizontal = 1;
place = "{0, 21}";
target = up;
type = BottomGhost;
},
{
horizontal = 1;
place = "{500, 155}";
type = Stem;
},
{
horizontal = 1;
place = "{566, 154}";
type = Stem;
},
{
place = "{24, 230}";
type = Stem;
}
);
layerId = "EA77C764-8343-414A-A941-E69667BA8F3A";
paths = (
{
closed = 1;
nodes = (
"255 0 LINE",
"352 421 LINE",
"347 450 LINE",
"360 504 LINE SMOOTH",
"367 533 OFFCURVE",
"395 546 OFFCURVE",
"437 546 CURVE SMOOTH",
"459 546 OFFCURVE",
"476 542 OFFCURVE",
"494 536 CURVE",
"545 694 LINE",
"515 706 OFFCURVE",
"473 716 OFFCURVE",
"418 716 CURVE SMOOTH",
"264 716 OFFCURVE",
"173 641 OFFCURVE",
"145 520 CURVE SMOOTH",
"25 0 LINE"
);
},
{
closed = 1;
nodes = (
"449 335 LINE",
"487 500 LINE",
"61 500 LINE",
"23 335 LINE"
);
}
);
width = 440;
},
{
anchors = (
{
name = bottom;
position = "{45, 0}";
},
{
name = ogonek;
position = "{53, 0}";
},
{
name = top;
position = "{309, 730}";
}
);
color = 4;
guideLines = (
{
angle = 77;
position = "{119, 590}";
}
);
hints = (
{
horizontal = 1;
place = "{-15, 21}";
target = up;
type = BottomGhost;
},
{
horizontal = 1;
place = "{485, -1}";
type = Stem;
},
{
horizontal = 1;
place = "{720, -1}";
type = Stem;
},
{
place = "{37, 1}";
type = Stem;
}
);
layerId = "F97236B5-7CBD-4FD1-81B0-6670342ADB4E";
paths = (
{
closed = 1;
nodes = (
"53 0 LINE",
"167 491 LINE",
"169 500 LINE",
"182 555 LINE SMOOTH",
"204 648 OFFCURVE",
"238 698 OFFCURVE",
"313 698 CURVE SMOOTH",
"344 698 OFFCURVE",
"372 690 OFFCURVE",
"392 675 CURVE",
"399 689 LINE",
"378 704 OFFCURVE",
"347 712 OFFCURVE",
"313 712 CURVE SMOOTH",
"231 712 OFFCURVE",
"190 657 OFFCURVE",
"169 567 CURVE SMOOTH",
"37 0 LINE"
);
},
{
closed = 1;
nodes = (
"340 486 LINE",
"344 500 LINE",
"52 500 LINE",
"48 486 LINE"
);
}
);
width = 284;
},
{
anchors = (
{
name = bottom;
position = "{129, 0}";
},
{
name = ogonek;
position = "{209, 0}";
},
{
name = top;
position = "{369, 714}";
}
);
color = 4;
guideLines = (
{
angle = 77;
position = "{75, 500}";
},
{
angle = 77;
position = "{312, 473}";
}
);
hints = (
{
horizontal = 1;
place = "{0, 21}";
target = up;
type = BottomGhost;
},
{
horizontal = 1;
place = "{500, 114.867}";
type = Stem;
},
{
horizontal = 1;
place = "{610.8, 116.2}";
type = Stem;
},
{
place = "{74.4, 160}";
type = Stem;
}
);
layerId = "91E16792-BB9C-4BE9-80DD-69B41C5E2CA7";
paths = (
{
closed = 1;
nodes = (
"209 0 LINE",
"312 446 LINE",
"312 473 LINE",
"321 514 LINE SMOOTH",
"331 559 OFFCURVE",
"360 578 OFFCURVE",
"408 578 CURVE SMOOTH",
"431 578 OFFCURVE",
"451 572 OFFCURVE",
"467 565 CURVE",
"510 690 LINE",
"486 702 OFFCURVE",
"450 713 OFFCURVE",
"399 713 CURVE SMOOTH",
"278 713 OFFCURVE",
"203 662 OFFCURVE",
"177 549 CURVE SMOOTH",
"49 0 LINE"
);
},
{
closed = 1;
nodes = (
"429 372 LINE",
"459 500 LINE",
"75 500 LINE",
"45 372 LINE"
);
}
);
width = 413;
}
);
leftKerningGroup = f;
rightKerningGroup = f;
unicode = 0066;
},
{
color = 5;
glyphname = g;
layers = (
{
anchors = (
{
name = bottom;
position = "{173, -210}";
},
{
name = ogonek;
position = "{280, -203}";
},
{
name = top;
position = "{309, 500}";
}
);
color = 4;
guideLines = (
{
angle = 77.0054;
position = "{430, 500}";
},
{
angle = 77;
position = "{-94, -54}";
},
{
angle = 77;
position = "{510, 500}";
},
{
position = "{102, -199}";
}
);
layerId = "DBFAC7D3-9CB2-48DD-9F53-AD59A4BD1301";
paths = (
{
closed = 1;
nodes = (
"325 -205 OFFCURVE",
"418 -143 OFFCURVE",
"453 10 CURVE SMOOTH",
"565 500 LINE",
"487 500 LINE",
"451 354 LINE",
"463 364 LINE",
"453 452 OFFCURVE",
"387 510 OFFCURVE",
"290 510 CURVE SMOOTH",
"142 510 OFFCURVE",
"35 378 OFFCURVE",
"35 212 CURVE SMOOTH",
"35 82 OFFCURVE",
"115 -8 OFFCURVE",
"231 -8 CURVE SMOOTH",
"308 -8 OFFCURVE",
"379 40 OFFCURVE",
"399 115 CURVE",
"399 126 LINE",
"373 13 LINE SMOOTH",
"347 -98 OFFCURVE",
"295 -137 OFFCURVE",
"211 -137 CURVE SMOOTH",
"121 -137 OFFCURVE",
"76 -97 OFFCURVE",
"57 -19 CURVE",
"-20 -44 LINE",
"-3 -131 OFFCURVE",
"75 -205 OFFCURVE",
"204 -205 CURVE SMOOTH"
);
},
{
closed = 1;
nodes = (
"163 60 OFFCURVE",
"114 115 OFFCURVE",
"114 213 CURVE SMOOTH",
"114 341 OFFCURVE",
"189 441 OFFCURVE",
"295 441 CURVE SMOOTH",
"375 441 OFFCURVE",
"427 383 OFFCURVE",
"427 293 CURVE SMOOTH",
"427 162 OFFCURVE",
"347 60 OFFCURVE",
"251 60 CURVE SMOOTH"
);
}
);
width = 577;
},
{
anchors = (
{
name = bottom;
position = "{192, -205}";
},
{
name = ogonek;
position = "{319, -197}";
},
{
name = top;
position = "{368, 500}";
}
);
color = 4;
guideLines = (
{
angle = 77;
position = "{-39, -13}";
}
);
layerId = "EA77C764-8343-414A-A941-E69667BA8F3A";
paths = (
{
closed = 1;
nodes = (
"392 -207 OFFCURVE",
"493 -134 OFFCURVE",
"529 22 CURVE SMOOTH",
"639 500 LINE",
"415 500 LINE",
"356 297 LINE",
"381 297 LINE",
"407 442 OFFCURVE",
"349 510 OFFCURVE",
"255 510 CURVE SMOOTH",
"97 510 OFFCURVE",
"15 341 OFFCURVE",
"15 183 CURVE SMOOTH",
"15 63 OFFCURVE",
"82 0 OFFCURVE",
"179 0 CURVE SMOOTH",
"282 0 OFFCURVE",
"299 70 OFFCURVE",
"353 130 CURVE",
"334 175 LINE",
"293 -2 LINE SMOOTH",
"284 -39 OFFCURVE",
"264 -50 OFFCURVE",
"233 -50 CURVE SMOOTH",
"206 -50 OFFCURVE",
"186 -44 OFFCURVE",
"183 -19 CURVE",
"-47 -47 LINE",
"-27 -155 OFFCURVE",
"86 -207 OFFCURVE",
"222 -207 CURVE SMOOTH"
);
},
{
closed = 1;
nodes = (
"260 172 OFFCURVE",
"247 192 OFFCURVE",
"247 223 CURVE SMOOTH",
"247 268 OFFCURVE",
"262 339 OFFCURVE",
"316 339 CURVE SMOOTH",
"343 339 OFFCURVE",
"357 322 OFFCURVE",
"357 293 CURVE SMOOTH",
"357 237 OFFCURVE",
"339 172 OFFCURVE",
"291 172 CURVE SMOOTH"
);
}
);
width = 620;
},
{
anchors = (
{
name = bottom;
position = "{175, -194}";
},
{
name = ogonek;
position = "{267, -191}";
},
{
name = top;
position = "{293, 500}";
}
);
guideLines = (
{
position = "{113, 11}";
},
{
angle = 77;
position = "{-97, -54}";
},
{
position = "{344, -199}";
},
{
angle = 77;
position = "{368, -13}";
}
);
layerId = "F97236B5-7CBD-4FD1-81B0-6670342ADB4E";
paths = (
{
closed = 1;
nodes = (
"319 -199 OFFCURVE",
"394 -140 OFFCURVE",
"427 3 CURVE SMOOTH",
"541 500 LINE",
"525 500 LINE",
"480 304 LINE",
"482 305 LINE",
"488 433 OFFCURVE",
"412 510 OFFCURVE",
"290 510 CURVE SMOOTH",
"132 510 OFFCURVE",
"34 381 OFFCURVE",
"34 217 CURVE SMOOTH",
"34 85 OFFCURVE",
"111 -10 OFFCURVE",
"239 -10 CURVE SMOOTH",
"341 -10 OFFCURVE",
"405 52 OFFCURVE",
"441 130 CURVE",
"441 133 LINE",
"412 8 LINE SMOOTH",
"381 -128 OFFCURVE",
"309 -185 OFFCURVE",
"201 -185 CURVE SMOOTH",
"98 -185 OFFCURVE",
"14 -139 OFFCURVE",
"-3 -29 CURVE",
"-18 -34 LINE",
"-1 -145 OFFCURVE",
"85 -199 OFFCURVE",
"198 -199 CURVE SMOOTH"
);
},
{
closed = 1;
nodes = (
"134 4 OFFCURVE",
"50 82 OFFCURVE",
"50 216 CURVE SMOOTH",
"50 380 OFFCURVE",
"146 496 OFFCURVE",
"289 496 CURVE SMOOTH",
"385 496 OFFCURVE",
"472 441 OFFCURVE",
"472 302 CURVE SMOOTH",
"472 159 OFFCURVE",
"384 4 OFFCURVE",
"243 4 CURVE SMOOTH"
);
}
);
width = 553;
},
{
anchors = (
{
name = bottom;
position = "{189, -207}";
},
{
name = ogonek;
position = "{307, -200}";
},
{
name = top;
position = "{346, 500}";
}
);
layerId = "91E16792-BB9C-4BE9-80DD-69B41C5E2CA7";
paths = (
{
closed = 1;
nodes = (
"365 -206 OFFCURVE",
"464 -138 OFFCURVE",
"499 16 CURVE SMOOTH",
"610 500 LINE",
"456 500 LINE",
"410 323 LINE",
"439 334 LINE",
"449 457 OFFCURVE",
"379 510 OFFCURVE",
"289 510 CURVE SMOOTH",
"113 510 OFFCURVE",
"33 363 OFFCURVE",
"33 216 CURVE SMOOTH",
"33 74 OFFCURVE",
"114 0 OFFCURVE",
"222 0 CURVE SMOOTH",
"330 0 OFFCURVE",
"362 62 OFFCURVE",
"390 130 CURVE",
"370 154 LINE",
"336 6 LINE SMOOTH",
"322 -54 OFFCURVE",
"289 -86 OFFCURVE",
"226 -86 CURVE SMOOTH",
"168 -86 OFFCURVE",
"137 -66 OFFCURVE",
"125 -28 CURVE",
"-43 -53 LINE",
"-14 -158 OFFCURVE",
"83 -206 OFFCURVE",
"213 -206 CURVE SMOOTH"
);
},
{
closed = 1;
nodes = (
"215 133 OFFCURVE",
"194 176 OFFCURVE",
"194 230 CURVE SMOOTH",
"194 319 OFFCURVE",
"238 377 OFFCURVE",
"309 377 CURVE SMOOTH",
"372 377 OFFCURVE",
"395 335 OFFCURVE",
"395 282 CURVE SMOOTH",
"395 204 OFFCURVE",
"355 133 OFFCURVE",
"285 133 CURVE SMOOTH"
);
}
);
width = 615;
},
{
anchors = (
{
name = bottom;
position = "{184, -208}";
},
{
name = ogonek;
position = "{298, -201}";
},
{
name = top;
position = "{334, 500}";
}
);
associatedMasterId = "91E16792-BB9C-4BE9-80DD-69B41C5E2CA7";
background = {
paths = (
{
closed = 1;
nodes = (
"352 -206 OFFCURVE",
"449 -140 OFFCURVE",
"484 14 CURVE SMOOTH",
"595 500 LINE",
"466 500 LINE",
"423 333 LINE",
"447 344 LINE",
"450 455 OFFCURVE",
"382 510 OFFCURVE",
"289 510 CURVE SMOOTH",
"122 510 OFFCURVE",
"34 368 OFFCURVE",
"34 215 CURVE SMOOTH",
"34 77 OFFCURVE",
"114 -3 OFFCURVE",
"225 -3 CURVE SMOOTH",
"323 -3 OFFCURVE",
"368 55 OFFCURVE",
"393 125 CURVE",
"379 145 LINE",
"348 8 LINE SMOOTH",
"330 -68 OFFCURVE",
"291 -103 OFFCURVE",
"221 -103 CURVE SMOOTH",
"153 -103 OFFCURVE",
"117 -76 OFFCURVE",
"103 -25 CURVE",
"-36 -50 LINE",
"-10 -149 OFFCURVE",
"80 -206 OFFCURVE",
"210 -206 CURVE SMOOTH"
);
},
{
closed = 1;
nodes = (
"198 109 OFFCURVE",
"168 156 OFFCURVE",
"168 224 CURVE SMOOTH",
"168 326 OFFCURVE",
"222 398 OFFCURVE",
"304 398 CURVE SMOOTH",
"373 398 OFFCURVE",
"405 351 OFFCURVE",
"405 286 CURVE SMOOTH",
"405 190 OFFCURVE",
"352 109 OFFCURVE",
"274 109 CURVE SMOOTH"
);
}
);
};
layerId = "D05B76ED-70AD-424D-BBB8-5954AB605B9C";
name = "{134}";
paths = (
{
closed = 1;
nodes = (
"352 -206 OFFCURVE",
"449 -140 OFFCURVE",
"484 14 CURVE SMOOTH",
"595 500 LINE",
"466 500 LINE",
"423 333 LINE",
"447 344 LINE",
"450 455 OFFCURVE",
"382 510 OFFCURVE",
"289 510 CURVE SMOOTH",
"122 510 OFFCURVE",
"34 368 OFFCURVE",
"34 215 CURVE SMOOTH",
"34 77 OFFCURVE",
"114 -3 OFFCURVE",
"225 -3 CURVE SMOOTH",
"323 -3 OFFCURVE",
"368 55 OFFCURVE",
"393 125 CURVE",
"379 145 LINE",
"348 8 LINE SMOOTH",
"331 -68 OFFCURVE",
"291 -103 OFFCURVE",
"221 -103 CURVE SMOOTH",
"153 -103 OFFCURVE",
"110 -77 OFFCURVE",
"98 -25 CURVE",
"-36 -50 LINE",
"-17 -143 OFFCURVE",
"80 -206 OFFCURVE",
"210 -206 CURVE SMOOTH"
);
},
{
closed = 1;
nodes = (
"198 109 OFFCURVE",
"168 156 OFFCURVE",
"168 224 CURVE SMOOTH",
"168 326 OFFCURVE",
"222 398 OFFCURVE",
"304 398 CURVE SMOOTH",
"373 398 OFFCURVE",
"405 351 OFFCURVE",
"405 286 CURVE SMOOTH",
"405 190 OFFCURVE",
"352 109 OFFCURVE",
"274 109 CURVE SMOOTH"
);
}
);
width = 602;
}
);
leftKerningGroup = g;
rightKerningGroup = g;
rightMetricsKey = u;
unicode = 0067;
},
{
color = 5;
glyphname = h;
layers = (
{
anchors = (
{
name = bottom;
position = "{233, 0}";
},
{
name = ogonek;
position = "{441, 0}";
},
{
name = top;
position = "{209, 684}";
}
);
color = 4;
layerId = "DBFAC7D3-9CB2-48DD-9F53-AD59A4BD1301";
leftMetricsKey = "=n";
rightMetricsKey = "=n";
paths = (
{
closed = 1;
nodes = (
"91 0 LINE",
"152 263 LINE SMOOTH",
"179 378 OFFCURVE",
"239 440 OFFCURVE",
"332 440 CURVE SMOOTH",
"410 440 OFFCURVE",
"451 388 OFFCURVE",
"431 302 CURVE SMOOTH",
"361 0 LINE",
"441 0 LINE",
"511 301 LINE SMOOTH",
"541 432 OFFCURVE",
"466 510 OFFCURVE",
"355 510 CURVE SMOOTH",
"273 510 OFFCURVE",
"195 471 OFFCURVE",
"168 393 CURVE",
"184 400 LINE",
"254 704 LINE",
"174 704 LINE",
"11 0 LINE"
);
}
);
width = 560;
},
{
anchors = (
{
name = bottom;
position = "{249, 0}";
},
{
name = ogonek;
position = "{523, 0}";
},
{
name = top;
position = "{258, 704}";
}
);
color = 4;
guideLines = (
{
angle = 77;
position = "{210, 0}";
}
);
layerId = "EA77C764-8343-414A-A941-E69667BA8F3A";
leftMetricsKey = "=n";
rightMetricsKey = "=n";
paths = (
{
closed = 1;
nodes = (
"210 0 LINE",
"272 269 LINE SMOOTH",
"280 304 OFFCURVE",
"296 329 OFFCURVE",
"327 329 CURVE SMOOTH",
"355 329 OFFCURVE",
"366 311 OFFCURVE",
"359 281 CURVE SMOOTH",
"293 0 LINE",
"523 0 LINE",
"601 336 LINE SMOOTH",
"625 440 OFFCURVE",
"567 510 OFFCURVE",
"477 510 CURVE SMOOTH",
"362 510 OFFCURVE",
"303 427 OFFCURVE",
"280 342 CURVE",
"297 376 LINE",
"373 704 LINE",
"143 704 LINE",
"-20 0 LINE"
);
}
);
width = 618;
},
{
anchors = (
{
name = bottom;
position = "{220, 0}";
},
{
name = ogonek;
position = "{412, 0}";
},
{
name = top;
position = "{171, 654}";
}
);
color = 4;
layerId = "F97236B5-7CBD-4FD1-81B0-6670342ADB4E";
leftMetricsKey = "=n";
rightMetricsKey = "=n";
paths = (
{
closed = 1;
nodes = (
"27 0 LINE",
"97 301 LINE SMOOTH",
"121 405 OFFCURVE",
"197 496 OFFCURVE",
"329 496 CURVE SMOOTH",
"435 496 OFFCURVE",
"494 424 OFFCURVE",
"464 292 CURVE SMOOTH",
"397 0 LINE",
"413 0 LINE",
"481 294 LINE SMOOTH",
"512 428 OFFCURVE",
"447 510 OFFCURVE",
"330 510 CURVE SMOOTH",
"213 510 OFFCURVE",
"137 445 OFFCURVE",
"106 361 CURVE",
"110 360 LINE",
"191 704 LINE",
"175 704 LINE",
"11 0 LINE"
);
}
);
width = 532;
},
{
anchors = (
{
name = bottom;
position = "{251, 0}";
},
{
name = ogonek;
position = "{494, 0}";
},
{
name = top;
position = "{244, 695}";
}
);
color = 4;
layerId = "91E16792-BB9C-4BE9-80DD-69B41C5E2CA7";
paths = (
{
closed = 1;
nodes = (
"164 0 LINE",
"223 256 LINE SMOOTH",
"240 329 OFFCURVE",
"276 371 OFFCURVE",
"341 371 CURVE SMOOTH",
"393 371 OFFCURVE",
"414 339 OFFCURVE",
"398 273 CURVE SMOOTH",
"334 0 LINE",
"494 0 LINE",
"565 305 LINE SMOOTH",
"595 435 OFFCURVE",
"522 510 OFFCURVE",
"424 510 CURVE SMOOTH",
"336 510 OFFCURVE",
"264 457 OFFCURVE",
"235 359 CURVE",
"254 387 LINE",
"327 704 LINE",
"167 704 LINE",
"4 0 LINE"
);
}
);
width = 609.6;
}
);
leftKerningGroup = h;
rightKerningGroup = n;
unicode = 0068;
},
{
color = 10;
glyphname = idotless;
layers = (
{
anchors = (
{
name = bottom;
position = "{51, 0}";
},
{
name = ogonek;
position = "{91, 0}";
},
{
name = top;
position = "{167, 500}";
}
);
layerId = "DBFAC7D3-9CB2-48DD-9F53-AD59A4BD1301";
paths = (
{
closed = 1;
nodes = (
"127 500 LINE",
"11 0 LINE",
"91 0 LINE",
"207 500 LINE"
);
}
);
width = 218;
},
{
anchors = (
{
name = bottom;
position = "{96, 0}";
},
{
name = ogonek;
position = "{211, 0}";
},
{
name = top;
position = "{212, 500}";
}
);
layerId = "EA77C764-8343-414A-A941-E69667BA8F3A";
paths = (
{
closed = 1;
nodes = (
"97 500 LINE",
"-19 0 LINE",
"211 0 LINE",
"327 500 LINE"
);
}
);
width = 308;
},
{
anchors = (
{
name = bottom;
position = "{19, 0}";
},
{
name = ogonek;
position = "{27, 0}";
},
{
name = top;
position = "{135, 500}";
}
);
hints = (
{
horizontal = 1;
place = "{-15, 21}";
target = up;
type = BottomGhost;
},
{
horizontal = 1;
place = "{485, -20}";
target = down;
type = TopGhost;
},
{
place = "{10, 1}";
type = Stem;
}
);
layerId = "F97236B5-7CBD-4FD1-81B0-6670342ADB4E";
paths = (
{
closed = 1;
nodes = (
"127 500 LINE",
"11 0 LINE",
"27 0 LINE",
"143 500 LINE"
);
}
);
width = 154;
},
{
anchors = (
{
name = bottom;
position = "{84, 0}";
},
{
name = ogonek;
position = "{164, 0}";
},
{
name = top;
position = "{200, 500}";
}
);
hints = (
{
horizontal = 1;
place = "{0, 21}";
target = up;
type = BottomGhost;
},
{
horizontal = 1;
place = "{0, -20}";
target = down;
type = TopGhost;
},
{
place = "{0, 0}";
type = Stem;
}
);
layerId = "91E16792-BB9C-4BE9-80DD-69B41C5E2CA7";
paths = (
{
closed = 1;
nodes = (
"120 500 LINE",
"4 0 LINE",
"164 0 LINE",
"280 500 LINE"
);
}
);
width = 284.66667;
}
);
leftKerningGroup = i;
rightKerningGroup = i;
unicode = 0131;
},
{
color = 10;
glyphname = jdotless;
layers = (
{
anchors = (
{
name = bottom;
position = "{-77, -194}";
},
{
name = ogonek;
position = "{-44, -188}";
},
{
name = top;
position = "{167, 500}";
}
);
color = 4;
guideLines = (
{
position = "{1, -199}";
}
);
layerId = "DBFAC7D3-9CB2-48DD-9F53-AD59A4BD1301";
paths = (
{
closed = 1;
nodes = (
"3 -199 OFFCURVE",
"57 -147 OFFCURVE",
"77 -62 CURVE SMOOTH",
"207 500 LINE",
"127 500 LINE",
"0 -41 LINE SMOOTH",
"-15 -103 OFFCURVE",
"-40 -121 OFFCURVE",
"-77 -121 CURVE SMOOTH",
"-103 -121 OFFCURVE",
"-129 -111 OFFCURVE",
"-147 -99 CURVE",
"-175 -171 LINE",
"-150 -187 OFFCURVE",
"-114 -199 OFFCURVE",
"-78 -199 CURVE SMOOTH"
);
}
);
width = 218;
},
{
anchors = (
{
name = bottom;
position = "{-19, -194}";
},
{
name = ogonek;
position = "{45, -188}";
},
{
name = top;
position = "{212, 500}";
}
);
color = 4;
layerId = "EA77C764-8343-414A-A941-E69667BA8F3A";
paths = (
{
closed = 1;
nodes = (
"111 -199 OFFCURVE",
"179 -139 OFFCURVE",
"210 -6 CURVE SMOOTH",
"327 500 LINE",
"97 500 LINE",
"-11 33 LINE SMOOTH",
"-22 -13 OFFCURVE",
"-38 -29 OFFCURVE",
"-70 -29 CURVE SMOOTH",
"-85 -29 OFFCURVE",
"-97 -27 OFFCURVE",
"-107 -23 CURVE",
"-151 -171 LINE",
"-112 -192 OFFCURVE",
"-72 -199 OFFCURVE",
"-13 -199 CURVE SMOOTH"
);
}
);
width = 308;
},
{
anchors = (
{
name = bottom;
position = "{-117, -194}";
},
{
name = ogonek;
position = "{-92, -188}";
},
{
name = top;
position = "{135, 500}";
}
);
guideLines = (
{
angle = 77;
position = "{-34, -65}";
}
);
layerId = "F97236B5-7CBD-4FD1-81B0-6670342ADB4E";
paths = (
{
closed = 1;
nodes = (
"-43 -199 OFFCURVE",
"-6 -145 OFFCURVE",
"14 -57 CURVE SMOOTH",
"143 500 LINE",
"127 500 LINE",
"0 -49 LINE SMOOTH",
"-22 -143 OFFCURVE",
"-57 -185 OFFCURVE",
"-126 -185 CURVE SMOOTH",
"-148 -185 OFFCURVE",
"-171 -179 OFFCURVE",
"-186 -168 CURVE",
"-194 -182 LINE",
"-179 -192 OFFCURVE",
"-151 -199 OFFCURVE",
"-124 -199 CURVE SMOOTH"
);
}
);
width = 154;
},
{
anchors = (
{
name = bottom;
position = "{-37, -194}";
},
{
name = ogonek;
position = "{13, -188}";
},
{
name = top;
position = "{200, 500}";
}
);
color = 4;
guideLines = (
{
angle = 77;
position = "{3, -2}";
}
);
layerId = "91E16792-BB9C-4BE9-80DD-69B41C5E2CA7";
paths = (
{
closed = 1;
nodes = (
"70 -199 OFFCURVE",
"131 -143 OFFCURVE",
"157 -32 CURVE SMOOTH",
"280 500 LINE",
"120 500 LINE",
"4 2 LINE SMOOTH",
"-8 -51 OFFCURVE",
"-29 -68 OFFCURVE",
"-63 -68 CURVE SMOOTH",
"-83 -68 OFFCURVE",
"-102 -62 OFFCURVE",
"-115 -54 CURVE",
"-153 -171 LINE",
"-120 -190 OFFCURVE",
"-82 -199 OFFCURVE",
"-34 -199 CURVE SMOOTH"
);
}
);
width = 284.66667;
}
);
leftKerningGroup = n;
rightKerningGroup = u;
rightMetricsKey = "=idotless";
unicode = 0237;
},
{
color = 5;
glyphname = k;
layers = (
{
anchors = (
{
name = bottom;
position = "{224, 0}";
},
{
name = top;
position = "{207, 674}";
}
);
layerId = "DBFAC7D3-9CB2-48DD-9F53-AD59A4BD1301";
paths = (
{
closed = 1;
nodes = (
"436 500 LINE",
"91 212 LINE",
"76 110 LINE",
"270 272 LINE",
"287 283 LINE",
"548 500 LINE"
);
},
{
closed = 1;
nodes = (
"174 704 LINE",
"11 0 LINE",
"91 0 LINE",
"254 704 LINE"
);
},
{
closed = 1;
nodes = (
"237 282 LINE",
"357 0 LINE",
"444 0 LINE",
"302 325 LINE"
);
}
);
width = 490;
},
{
anchors = (
{
name = bottom;
position = "{278, 0}";
},
{
name = top;
position = "{257, 700}";
}
);
color = 4;
layerId = "EA77C764-8343-414A-A941-E69667BA8F3A";
leftMetricsKey = "=n";
paths = (
{
closed = 1;
nodes = (
"454 500 LINE",
"224 293 LINE",
"209 65 LINE",
"381 220 LINE",
"407 228 LINE",
"708 500 LINE"
);
},
{
closed = 1;
nodes = (
"142 700 LINE",
"-20 0 LINE",
"210 0 LINE",
"372 700 LINE"
);
},
{
closed = 1;
nodes = (
"287 234 LINE",
"371 0 LINE",
"618 0 LINE",
"466 366 LINE"
);
}
);
width = 657;
},
{
anchors = (
{
name = bottom;
position = "{231, 0}";
},
{
name = top;
position = "{170, 654}";
}
);
color = 4;
layerId = "F97236B5-7CBD-4FD1-81B0-6670342ADB4E";
paths = (
{
closed = 1;
nodes = (
"474 500 LINE",
"59 179 LINE",
"53 155 LINE",
"227 290 LINE",
"234 295 LINE",
"499 500 LINE"
);
},
{
closed = 1;
nodes = (
"174 704 LINE",
"11 0 LINE",
"27 0 LINE",
"190 704 LINE"
);
},
{
closed = 1;
nodes = (
"217 295 LINE",
"370 0 LINE",
"388 0 LINE",
"232 302 LINE"
);
}
);
width = 444;
},
{
anchors = (
{
name = bottom;
position = "{262, 0}";
},
{
name = top;
position = "{243, 688}";
}
);
color = 4;
layerId = "91E16792-BB9C-4BE9-80DD-69B41C5E2CA7";
paths = (
{
closed = 1;
nodes = (
"445 500 LINE",
"158 259 LINE",
"153 98 LINE",
"336 256 LINE",
"360 254 LINE",
"643 500 LINE"
);
},
{
closed = 1;
nodes = (
"166 702 LINE",
"4 0 LINE",
"161 0 LINE",
"323 702 LINE"
);
},
{
closed = 1;
nodes = (
"273 256 LINE",
"372 0 LINE",
"546 0 LINE",
"399 347 LINE"
);
}
);
width = 592;
}
);
leftKerningGroup = h;
leftMetricsKey = n;
rightKerningGroup = k;
unicode = 006B;
},
{
color = 5;
glyphname = l;
layers = (
{
anchors = (
{
name = bottom;
position = "{124, 0}";
},
{
name = center;
position = "{265, 366}";
},
{
name = ogonek;
position = "{198, 0}";
},
{
name = top;
position = "{211, 704}";
},
{
name = topright;
position = "{339, 704}";
}
);
color = 4;
layerId = "DBFAC7D3-9CB2-48DD-9F53-AD59A4BD1301";
paths = (
{
closed = 1;
nodes = (
"172 -7 OFFCURVE",
"186 -5 OFFCURVE",
"208 3 CURVE",
"228 67 LINE",
"215 64 OFFCURVE",
"201 63 OFFCURVE",
"181 63 CURVE SMOOTH",
"129 63 OFFCURVE",
"107 85 OFFCURVE",
"120 140 CURVE SMOOTH",
"251 704 LINE",
"171 704 LINE",
"41 143 LINE SMOOTH",
"20 54 OFFCURVE",
"56 -7 OFFCURVE",
"148 -7 CURVE SMOOTH"
);
}
);
width = 263;
},
{
anchors = (
{
name = bottom;
position = "{133, 0}";
},
{
name = center;
position = "{334, 352}";
},
{
name = ogonek;
position = "{219, 0}";
},
{
name = top;
position = "{258, 704}";
},
{
name = topright;
position = "{428, 704}";
}
);
color = 4;
guideLines = (
{
angle = 76.9557;
position = "{373, 704}";
}
);
layerId = "EA77C764-8343-414A-A941-E69667BA8F3A";
paths = (
{
closed = 1;
nodes = (
"232 -10 OFFCURVE",
"266 -4 OFFCURVE",
"285 3 CURVE",
"329 175 LINE",
"321 175 OFFCURVE",
"315 175 OFFCURVE",
"301 175 CURVE SMOOTH",
"267 175 OFFCURVE",
"255 195 OFFCURVE",
"264 234 CURVE SMOOTH",
"373 704 LINE",
"143 704 LINE",
"25 202 LINE SMOOTH",
"-4 77 OFFCURVE",
"57 -10 OFFCURVE",
"184 -10 CURVE SMOOTH"
);
}
);
width = 347;
},
{
anchors = (
{
name = bottom;
position = "{78, 0}";
},
{
name = center;
position = "{222, 360}";
},
{
name = ogonek;
position = "{143, 0}";
},
{
name = top;
position = "{177, 704}";
},
{
name = topright;
position = "{274, 704}";
}
);
layerId = "F97236B5-7CBD-4FD1-81B0-6670342ADB4E";
paths = (
{
closed = 1;
nodes = (
"122 -9 OFFCURVE",
"142 -5 OFFCURVE",
"151 0 CURVE",
"154 14 LINE",
"139 8 OFFCURVE",
"125 5 OFFCURVE",
"101 5 CURVE SMOOTH",
"46 5 OFFCURVE",
"32 43 OFFCURVE",
"49 116 CURVE SMOOTH",
"185 704 LINE",
"169 704 LINE",
"34 120 LINE SMOOTH",
"15 36 OFFCURVE",
"35 -9 OFFCURVE",
"99 -9 CURVE SMOOTH"
);
}
);
width = 202;
},
{
anchors = (
{
name = bottom;
position = "{138, 0}";
},
{
name = center;
position = "{311, 359}";
},
{
name = ogonek;
position = "{219, 0}";
},
{
name = top;
position = "{245, 704}";
},
{
name = topright;
position = "{396, 704}";
}
);
color = 4;
guideLines = (
{
angle = 77;
position = "{206, 190}";
},
{
position = "{62, 131}";
}
);
layerId = "91E16792-BB9C-4BE9-80DD-69B41C5E2CA7";
paths = (
{
closed = 1;
nodes = (
"224 -9 OFFCURVE",
"251 -4 OFFCURVE",
"272 4 CURVE",
"286 130 LINE",
"278 128 OFFCURVE",
"269 128 OFFCURVE",
"255 128 CURVE SMOOTH",
"213 128 OFFCURVE",
"196 149 OFFCURVE",
"207 195 CURVE SMOOTH",
"325 704 LINE",
"165 704 LINE",
"48 200 LINE SMOOTH",
"17 66 OFFCURVE",
"69 -9 OFFCURVE",
"186 -9 CURVE SMOOTH"
);
}
);
width = 325.4;
}
);
leftKerningGroup = l;
rightKerningGroup = l;
unicode = 006C;
},
{
color = 5;
glyphname = lslash;
layers = (
{
components = (
{
name = l;
transform = "{1, 0, 0, 1, 40, 0}";
}
);
layerId = "DBFAC7D3-9CB2-48DD-9F53-AD59A4BD1301";
paths = (
{
closed = 1;
nodes = (
"161 318 LINE",
"174 320 LINE",
"326 411 LINE",
"347 500 LINE",
"186 404 LINE",
"153 389 LINE",
"29 317 LINE",
"8 228 LINE"
);
}
);
width = 314;
},
{
components = (
{
alignment = -1;
name = l;
transform = "{1, 0, 0, 1, 53, 0}";
}
);
layerId = "EA77C764-8343-414A-A941-E69667BA8F3A";
paths = (
{
closed = 1;
nodes = (
"181 255 LINE",
"293 291 LINE",
"435 360 LINE",
"469 507 LINE",
"274 410 LINE",
"167 381 LINE",
"26 318 LINE",
"-8 170 LINE"
);
}
);
width = 428;
},
{
components = (
{
alignment = -1;
name = l;
transform = "{1, 0, 0, 1, 30, 0}";
}
);
layerId = "F97236B5-7CBD-4FD1-81B0-6670342ADB4E";
paths = (
{
closed = 1;
nodes = (
"123 342 LINE",
"126 342 LINE",
"270 433 LINE",
"275 454 LINE",
"130 361 LINE",
"127 361 LINE",
"13 288 LINE",
"8 268 LINE"
);
}
);
width = 244;
},
{
components = (
{
alignment = -1;
name = l;
transform = "{1, 0, 0, 1, 47, 0}";
}
);
layerId = "91E16792-BB9C-4BE9-80DD-69B41C5E2CA7";
paths = (
{
closed = 1;
nodes = (
"181 284 LINE",
"247 305 LINE",
"393 384 LINE",
"421 504 LINE",
"242 407 LINE",
"170 385 LINE",
"37 318 LINE",
"9 197 LINE"
);
}
);
width = 393.46667;
}
);
unicode = 0142;
},
{
color = 5;
glyphname = m;
layers = (
{
anchors = (
{
name = bottom;
position = "{390, 0}";
},
{
name = ogonek;
position = "{770, 0}";
},
{
name = top;
position = "{503, 500}";
}
);
guideLines = (
{
position = "{118, 423}";
}
);
layerId = "DBFAC7D3-9CB2-48DD-9F53-AD59A4BD1301";
paths = (
{
closed = 1;
nodes = (
"91 0 LINE",
"152 263 LINE SMOOTH",
"179 378 OFFCURVE",
"237 440 OFFCURVE",
"330 440 CURVE SMOOTH",
"403 440 OFFCURVE",
"441 388 OFFCURVE",
"420 300 CURVE SMOOTH",
"350 0 LINE",
"430 0 LINE",
"494 274 LINE SMOOTH",
"519 383 OFFCURVE",
"582 440 OFFCURVE",
"669 440 CURVE SMOOTH",
"742 440 OFFCURVE",
"779 388 OFFCURVE",
"759 300 CURVE SMOOTH",
"690 0 LINE",
"770 0 LINE",
"839 299 LINE SMOOTH",
"870 432 OFFCURVE",
"799 510 OFFCURVE",
"692 510 CURVE SMOOTH",
"615 510 OFFCURVE",
"544 476 OFFCURVE",
"501 408 CURVE",
"482 474 OFFCURVE",
"426 510 OFFCURVE",
"353 510 CURVE SMOOTH",
"284 510 OFFCURVE",
"220 483 OFFCURVE",
"185 428 CURVE",
"197 500 LINE",
"127 500 LINE",
"11 0 LINE"
);
}
);
width = 894;
},
{
anchors = (
{
name = bottom;
position = "{409, 0}";
},
{
name = ogonek;
position = "{833, 0}";
},
{
name = top;
position = "{525, 500}";
}
);
color = 4;
guideLines = (
{
position = "{187, 423}";
}
);
layerId = "EA77C764-8343-414A-A941-E69667BA8F3A";
leftMetricsKey = "=n";
rightMetricsKey = "=n";
paths = (
{
closed = 1;
nodes = (
"210 0 LINE",
"272 269 LINE SMOOTH",
"280 304 OFFCURVE",
"296 329 OFFCURVE",
"327 329 CURVE SMOOTH",
"355 329 OFFCURVE",
"366 311 OFFCURVE",
"359 281 CURVE SMOOTH",
"293 0 LINE",
"524 0 LINE",
"586 269 LINE SMOOTH",
"594 304 OFFCURVE",
"610 329 OFFCURVE",
"641 329 CURVE SMOOTH",
"669 329 OFFCURVE",
"680 311 OFFCURVE",
"673 281 CURVE SMOOTH",
"607 0 LINE",
"837 0 LINE",
"913 326 LINE SMOOTH",
"940 440 OFFCURVE",
"881 510 OFFCURVE",
"776 510 CURVE SMOOTH",
"700 510 OFFCURVE",
"641 472 OFFCURVE",
"604 402 CURVE",
"595 470 OFFCURVE",
"543 510 OFFCURVE",
"467 510 CURVE SMOOTH",
"383 510 OFFCURVE",
"320 467 OFFCURVE",
"284 389 CURVE",
"301 500 LINE",
"96 500 LINE",
"-20 0 LINE"
);
}
);
width = 932;
},
{
anchors = (
{
name = bottom;
position = "{404, 0}";
},
{
name = ogonek;
position = "{799, 2}";
},
{
name = top;
position = "{520, 500}";
}
);
layerId = "F97236B5-7CBD-4FD1-81B0-6670342ADB4E";
paths = (
{
closed = 1;
nodes = (
"27 0 LINE",
"97 301 LINE SMOOTH",
"121 405 OFFCURVE",
"197 496 OFFCURVE",
"329 496 CURVE SMOOTH",
"435 496 OFFCURVE",
"486 424 OFFCURVE",
"456 292 CURVE SMOOTH",
"389 0 LINE",
"405 0 LINE",
"473 294 LINE SMOOTH",
"503 425 OFFCURVE",
"593 496 OFFCURVE",
"707 496 CURVE SMOOTH",
"813 496 OFFCURVE",
"864 424 OFFCURVE",
"834 292 CURVE SMOOTH",
"767 0 LINE",
"783 0 LINE",
"851 294 LINE SMOOTH",
"882 429 OFFCURVE",
"828 510 OFFCURVE",
"708 510 CURVE SMOOTH",
"594 510 OFFCURVE",
"521 452 OFFCURVE",
"482 363 CURVE",
"482 456 OFFCURVE",
"428 510 OFFCURVE",
"330 510 CURVE SMOOTH",
"224 510 OFFCURVE",
"151 456 OFFCURVE",
"115 383 CURVE",
"143 500 LINE",
"127 500 LINE",
"11 0 LINE"
);
}
);
width = 906;
},
{
anchors = (
{
name = bottom;
position = "{409, 0}";
},
{
name = ogonek;
position = "{813, 0}";
},
{
name = top;
position = "{524, 500}";
}
);
color = 4;
guideLines = (
{
angle = 77;
position = "{164, 0}";
},
{
position = "{337, 371}";
},
{
angle = 77;
position = "{489, 0}";
}
);
layerId = "91E16792-BB9C-4BE9-80DD-69B41C5E2CA7";
paths = (
{
closed = 1;
nodes = (
"164 0 LINE",
"223 256 LINE SMOOTH",
"240 329 OFFCURVE",
"276 371 OFFCURVE",
"337 371 CURVE SMOOTH",
"387 371 OFFCURVE",
"408 337 OFFCURVE",
"395 280 CURVE SMOOTH",
"329 0 LINE",
"489 0 LINE",
"550 261 LINE SMOOTH",
"566 331 OFFCURVE",
"604 371 OFFCURVE",
"661 371 CURVE SMOOTH",
"713 371 OFFCURVE",
"733 337 OFFCURVE",
"720 280 CURVE SMOOTH",
"655 0 LINE",
"815 0 LINE",
"884 299 LINE SMOOTH",
"916 437 OFFCURVE",
"842 510 OFFCURVE",
"742 510 CURVE SMOOTH",
"670 510 OFFCURVE",
"605 474 OFFCURVE",
"562 403 CURVE",
"547 464 OFFCURVE",
"502 510 OFFCURVE",
"418 510 CURVE SMOOTH",
"346 510 OFFCURVE",
"283 474 OFFCURVE",
"247 407 CURVE",
"262 500 LINE",
"120 500 LINE",
"4 0 LINE"
);
}
);
width = 932.93333;
}
);
leftKerningGroup = n;
leftMetricsKey = n;
rightKerningGroup = n;
unicode = 006D;
},
{
color = 5;
glyphname = n;
layers = (
{
anchors = (
{
name = bottom;
position = "{240, 0}";
},
{
name = ogonek;
position = "{441, 0}";
},
{
name = top;
position = "{340, 500}";
}
);
layerId = "DBFAC7D3-9CB2-48DD-9F53-AD59A4BD1301";
paths = (
{
closed = 1;
nodes = (
"91 0 LINE",
"152 263 LINE SMOOTH",
"179 378 OFFCURVE",
"239 440 OFFCURVE",
"332 440 CURVE SMOOTH",
"410 440 OFFCURVE",
"451 388 OFFCURVE",
"431 302 CURVE SMOOTH",
"361 0 LINE",
"441 0 LINE",
"511 301 LINE SMOOTH",
"541 432 OFFCURVE",
"470 510 OFFCURVE",
"355 510 CURVE SMOOTH",
"273 510 OFFCURVE",
"195 471 OFFCURVE",
"168 393 CURVE",
"178 388 LINE",
"197 500 LINE",
"127 500 LINE",
"11 0 LINE"
);
}
);
width = 560;
},
{
anchors = (
{
name = bottom;
position = "{254, 0}";
},
{
name = ogonek;
position = "{523, 0}";
},
{
name = top;
position = "{366, 500}";
}
);
color = 4;
guideLines = (
{
position = "{153, 329}";
}
);
layerId = "EA77C764-8343-414A-A941-E69667BA8F3A";
paths = (
{
closed = 1;
nodes = (
"210 0 LINE",
"272 269 LINE SMOOTH",
"280 304 OFFCURVE",
"296 329 OFFCURVE",
"327 329 CURVE SMOOTH",
"355 329 OFFCURVE",
"366 311 OFFCURVE",
"359 281 CURVE SMOOTH",
"293 0 LINE",
"523 0 LINE",
"599 326 LINE SMOOTH",
"626 440 OFFCURVE",
"568 510 OFFCURVE",
"467 510 CURVE SMOOTH",
"364 510 OFFCURVE",
"291 444 OFFCURVE",
"263 329 CURVE",
"271 309 LINE",
"301 500 LINE",
"96 500 LINE",
"-20 0 LINE"
);
}
);
width = 618;
},
{
anchors = (
{
name = bottom;
position = "{237, 0}";
},
{
name = ogonek;
position = "{413, 0}";
},
{
name = top;
position = "{317, 500}";
}
);
layerId = "F97236B5-7CBD-4FD1-81B0-6670342ADB4E";
paths = (
{
closed = 1;
nodes = (
"27 0 LINE",
"97 301 LINE SMOOTH",
"121 405 OFFCURVE",
"197 496 OFFCURVE",
"329 496 CURVE SMOOTH",
"435 496 OFFCURVE",
"495 424 OFFCURVE",
"464 292 CURVE SMOOTH",
"397 0 LINE",
"413 0 LINE",
"481 294 LINE SMOOTH",
"512 428 OFFCURVE",
"450 510 OFFCURVE",
"330 510 CURVE SMOOTH",
"213 510 OFFCURVE",
"137 445 OFFCURVE",
"106 361 CURVE",
"110 360 LINE",
"143 500 LINE",
"127 500 LINE",
"11 0 LINE"
);
}
);
width = 532;
},
{
anchors = (
{
name = bottom;
position = "{257, 0}";
},
{
name = ogonek;
position = "{494, 0}";
},
{
name = top;
position = "{363, 500}";
}
);
color = 4;
guideLines = (
{
position = "{348, 371}";
},
{
angle = 77;
position = "{164, 0}";
}
);
layerId = "91E16792-BB9C-4BE9-80DD-69B41C5E2CA7";
paths = (
{
closed = 1;
nodes = (
"164 0 LINE",
"223 256 LINE SMOOTH",
"240 329 OFFCURVE",
"276 371 OFFCURVE",
"340 371 CURVE SMOOTH",
"395 371 OFFCURVE",
"413 337 OFFCURVE",
"398 272 CURVE SMOOTH",
"334 0 LINE",
"494 0 LINE",
"565 305 LINE SMOOTH",
"595 436 OFFCURVE",
"523 510 OFFCURVE",
"420 510 CURVE SMOOTH",
"331 510 OFFCURVE",
"256 457 OFFCURVE",
"225 359 CURVE",
"237 346 LINE",
"262 500 LINE",
"120 500 LINE",
"4 0 LINE"
);
}
);
width = 609.6;
}
);
leftKerningGroup = n;
rightKerningGroup = n;
unicode = 006E;
},
{
color = 5;
glyphname = o;
layers = (
{
anchors = (
{
name = bottom;
position = "{244, 0}";
},
{
name = center;
position = "{278, 250}";
},
{
name = ogonek;
position = "{346, 5}";
},
{
name = top;
position = "{303, 500}";
},
{
name = topright;
position = "{483, 500}";
}
);
guideLines = (
{
angle = 77;
position = "{223, 250}";
}
);
layerId = "DBFAC7D3-9CB2-48DD-9F53-AD59A4BD1301";
paths = (
{
closed = 1;
nodes = (
"414 -9 OFFCURVE",
"519 114 OFFCURVE",
"519 285 CURVE SMOOTH",
"519 408 OFFCURVE",
"439 509 OFFCURVE",
"294 509 CURVE SMOOTH",
"142 509 OFFCURVE",
"36 387 OFFCURVE",
"36 216 CURVE SMOOTH",
"36 93 OFFCURVE",
"117 -9 OFFCURVE",
"262 -9 CURVE SMOOTH"
);
},
{
closed = 1;
nodes = (
"164 60 OFFCURVE",
"117 132 OFFCURVE",
"117 219 CURVE SMOOTH",
"117 353 OFFCURVE",
"194 440 OFFCURVE",
"291 440 CURVE SMOOTH",
"392 440 OFFCURVE",
"438 369 OFFCURVE",
"438 282 CURVE SMOOTH",
"438 148 OFFCURVE",
"362 60 OFFCURVE",
"265 60 CURVE SMOOTH"
);
}
);
width = 555;
},
{
anchors = (
{
name = bottom;
position = "{243, 0}";
},
{
name = center;
position = "{302, 250}";
},
{
name = ogonek;
position = "{383, 0}";
},
{
name = top;
position = "{355, 500}";
},
{
name = topright;
position = "{641, 500}";
}
);
color = 4;
guideLines = (
{
position = "{177, 345}";
},
{
position = "{139, 155}";
}
);
layerId = "EA77C764-8343-414A-A941-E69667BA8F3A";
paths = (
{
closed = 1;
nodes = (
"482 -10 OFFCURVE",
"584 127 OFFCURVE",
"584 282 CURVE SMOOTH",
"584 416 OFFCURVE",
"481 510 OFFCURVE",
"323 510 CURVE SMOOTH",
"120 510 OFFCURVE",
"18 373 OFFCURVE",
"18 218 CURVE SMOOTH",
"18 84 OFFCURVE",
"121 -10 OFFCURVE",
"279 -10 CURVE SMOOTH"
);
},
{
closed = 1;
nodes = (
"262 153 OFFCURVE",
"244 163 OFFCURVE",
"244 200 CURVE SMOOTH",
"244 261 OFFCURVE",
"266 347 OFFCURVE",
"316 347 CURVE SMOOTH",
"340 347 OFFCURVE",
"358 337 OFFCURVE",
"358 300 CURVE SMOOTH",
"358 239 OFFCURVE",
"336 153 OFFCURVE",
"286 153 CURVE SMOOTH"
);
}
);
width = 603;
},
{
anchors = (
{
name = bottom;
position = "{245, 0}";
},
{
name = center;
position = "{265, 250}";
},
{
name = ogonek;
position = "{301, -3}";
},
{
name = top;
position = "{298, 500}";
},
{
name = topright;
position = "{430, 500}";
}
);
layerId = "F97236B5-7CBD-4FD1-81B0-6670342ADB4E";
paths = (
{
closed = 1;
nodes = (
"398 -9 OFFCURVE",
"498 114 OFFCURVE",
"498 285 CURVE SMOOTH",
"498 408 OFFCURVE",
"423 509 OFFCURVE",
"284 509 CURVE SMOOTH",
"134 509 OFFCURVE",
"33 387 OFFCURVE",
"33 216 CURVE SMOOTH",
"33 93 OFFCURVE",
"109 -9 OFFCURVE",
"248 -9 CURVE SMOOTH"
);
},
{
closed = 1;
nodes = (
"129 5 OFFCURVE",
"49 89 OFFCURVE",
"49 216 CURVE SMOOTH",
"49 381 OFFCURVE",
"144 495 OFFCURVE",
"284 495 CURVE SMOOTH",
"403 495 OFFCURVE",
"482 412 OFFCURVE",
"482 285 CURVE SMOOTH",
"482 119 OFFCURVE",
"387 5 OFFCURVE",
"248 5 CURVE SMOOTH"
);
}
);
width = 531;
},
{
anchors = (
{
name = bottom;
position = "{251, 0}";
},
{
name = center;
position = "{298, 250}";
},
{
name = ogonek;
position = "{373, 2}";
},
{
name = top;
position = "{338, 500}";
},
{
name = topright;
position = "{575, 500}";
}
);
color = 4;
layerId = "91E16792-BB9C-4BE9-80DD-69B41C5E2CA7";
paths = (
{
closed = 1;
nodes = (
"454 -10 OFFCURVE",
"561 121 OFFCURVE",
"561 283 CURVE SMOOTH",
"561 412 OFFCURVE",
"473 510 OFFCURVE",
"321 510 CURVE SMOOTH",
"142 510 OFFCURVE",
"34 380 OFFCURVE",
"34 217 CURVE SMOOTH",
"34 88 OFFCURVE",
"122 -10 OFFCURVE",
"274 -10 CURVE SMOOTH"
);
},
{
closed = 1;
nodes = (
"224 118 OFFCURVE",
"194 157 OFFCURVE",
"194 217 CURVE SMOOTH",
"194 312 OFFCURVE",
"240 382 OFFCURVE",
"312 382 CURVE SMOOTH",
"372 382 OFFCURVE",
"401 344 OFFCURVE",
"401 284 CURVE SMOOTH",
"401 189 OFFCURVE",
"355 118 OFFCURVE",
"284 118 CURVE SMOOTH"
);
}
);
width = 595;
}
);
leftKerningGroup = o;
rightKerningGroup = o;
unicode = 006F;
},
{
color = 5;
glyphname = oe;
layers = (
{
anchors = (
{
name = bottom;
position = "{407, 0}";
},
{
name = top;
position = "{523, 500}";
}
);
color = 4;
layerId = "DBFAC7D3-9CB2-48DD-9F53-AD59A4BD1301";
paths = (
{
closed = 1;
nodes = (
"346 -9 OFFCURVE",
"415 30 OFFCURVE",
"460 101 CURVE",
"495 31 OFFCURVE",
"560 -9 OFFCURVE",
"651 -9 CURVE SMOOTH",
"745 -9 OFFCURVE",
"817 31 OFFCURVE",
"861 95 CURVE",
"798 137 LINE",
"770 90 OFFCURVE",
"727 60 OFFCURVE",
"658 60 CURVE SMOOTH",
"569 60 OFFCURVE",
"512 120 OFFCURVE",
"512 209 CURVE SMOOTH",
"512 216 OFFCURVE",
"512 224 OFFCURVE",
"513 231 CURVE",
"877 231 LINE",
"886 261 OFFCURVE",
"891 290 OFFCURVE",
"891 317 CURVE SMOOTH",
"891 427 OFFCURVE",
"819 509 OFFCURVE",
"697 509 CURVE SMOOTH",
"603 509 OFFCURVE",
"534 467 OFFCURVE",
"489 394 CURVE",
"455 467 OFFCURVE",
"391 509 OFFCURVE",
"297 509 CURVE SMOOTH",
"141 509 OFFCURVE",
"36 386 OFFCURVE",
"36 215 CURVE SMOOTH",
"36 90 OFFCURVE",
"115 -9 OFFCURVE",
"258 -9 CURVE SMOOTH"
);
},
{
closed = 1;
nodes = (
"164 60 OFFCURVE",
"117 130 OFFCURVE",
"117 218 CURVE SMOOTH",
"117 351 OFFCURVE",
"192 440 OFFCURVE",
"293 440 CURVE SMOOTH",
"391 440 OFFCURVE",
"438 370 OFFCURVE",
"438 282 CURVE SMOOTH",
"438 149 OFFCURVE",
"363 60 OFFCURVE",
"262 60 CURVE SMOOTH"
);
},
{
closed = 1;
nodes = (
"545 377 OFFCURVE",
"597 440 OFFCURVE",
"692 440 CURVE SMOOTH",
"774 440 OFFCURVE",
"825 377 OFFCURVE",
"812 301 CURVE",
"524 301 LINE"
);
}
);
width = 919;
},
{
anchors = (
{
name = bottom;
position = "{407, 0}";
},
{
name = top;
position = "{523, 500}";
}
);
color = 4;
hints = (
{
horizontal = 1;
place = "{-10, 153}";
type = Stem;
},
{
horizontal = 1;
place = "{510, 152}";
type = Stem;
}
);
layerId = "EA77C764-8343-414A-A941-E69667BA8F3A";
leftMetricsKey = "=o";
rightMetricsKey = "=e";
paths = (
{
closed = 1;
nodes = (
"356 -10 OFFCURVE",
"418 12 OFFCURVE",
"463 55 CURVE",
"508 11 OFFCURVE",
"568 -9 OFFCURVE",
"653 -9 CURVE SMOOTH",
"752 -9 OFFCURVE",
"869 40 OFFCURVE",
"904 138 CURVE",
"716 200 LINE",
"704 162 OFFCURVE",
"674 153 OFFCURVE",
"639 153 CURVE SMOOTH",
"600 153 OFFCURVE",
"579 178 OFFCURVE",
"579 209 CURVE SMOOTH",
"579 210 OFFCURVE",
"579 210 OFFCURVE",
"579 211 CURVE",
"904 211 LINE",
"912 233 OFFCURVE",
"914 262 OFFCURVE",
"914 287 CURVE SMOOTH",
"914 418 OFFCURVE",
"822 510 OFFCURVE",
"666 510 CURVE SMOOTH",
"599 510 OFFCURVE",
"535 491 OFFCURVE",
"487 452 CURVE",
"446 491 OFFCURVE",
"389 510 OFFCURVE",
"322 510 CURVE SMOOTH",
"120 510 OFFCURVE",
"18 373 OFFCURVE",
"18 218 CURVE SMOOTH",
"18 84 OFFCURVE",
"121 -10 OFFCURVE",
"279 -10 CURVE SMOOTH"
);
},
{
closed = 1;
nodes = (
"261 153 OFFCURVE",
"244 164 OFFCURVE",
"244 201 CURVE SMOOTH",
"244 257 OFFCURVE",
"264 347 OFFCURVE",
"317 347 CURVE SMOOTH",
"342 347 OFFCURVE",
"358 335 OFFCURVE",
"358 298 CURVE SMOOTH",
"358 241 OFFCURVE",
"338 153 OFFCURVE",
"285 153 CURVE SMOOTH"
);
},
{
closed = 1;
nodes = (
"589 325 OFFCURVE",
"603 352 OFFCURVE",
"649 352 CURVE SMOOTH",
"681 352 OFFCURVE",
"701 334 OFFCURVE",
"697 294 CURVE",
"580 294 LINE"
);
}
);
width = 936;
},
{
anchors = (
{
name = bottom;
position = "{417, 0}";
},
{
name = top;
position = "{533, 500}";
}
);
hints = (
{
horizontal = 1;
place = "{495, -1}";
type = Stem;
},
{
horizontal = 1;
place = "{401, 65}";
type = Stem;
},
{
horizontal = 1;
place = "{-25, -1}";
type = Stem;
},
{
horizontal = 1;
place = "{495, -29}";
type = Stem;
}
);
layerId = "F97236B5-7CBD-4FD1-81B0-6670342ADB4E";
paths = (
{
closed = 1;
nodes = (
"349 -9 OFFCURVE",
"437 65 OFFCURVE",
"469 177 CURVE",
"483 72 OFFCURVE",
"551 -9 OFFCURVE",
"667 -9 CURVE SMOOTH",
"755 -9 OFFCURVE",
"823 41 OFFCURVE",
"863 106 CURVE",
"850 114 LINE",
"812 50 OFFCURVE",
"745 5 OFFCURVE",
"667 5 CURVE SMOOTH",
"551 5 OFFCURVE",
"482 95 OFFCURVE",
"482 217 CURVE SMOOTH",
"482 232 OFFCURVE",
"483 246 OFFCURVE",
"484 260 CURVE",
"881 260 LINE",
"883 276 OFFCURVE",
"885 291 OFFCURVE",
"885 306 CURVE SMOOTH",
"885 420 OFFCURVE",
"815 509 OFFCURVE",
"695 509 CURVE SMOOTH",
"584 509 OFFCURVE",
"512 429 OFFCURVE",
"481 321 CURVE",
"469 427 OFFCURVE",
"400 509 OFFCURVE",
"283 509 CURVE SMOOTH",
"126 509 OFFCURVE",
"34 387 OFFCURVE",
"34 216 CURVE SMOOTH",
"34 93 OFFCURVE",
"101 -9 OFFCURVE",
"242 -9 CURVE SMOOTH"
);
},
{
closed = 1;
nodes = (
"121 5 OFFCURVE",
"50 89 OFFCURVE",
"50 216 CURVE SMOOTH",
"50 381 OFFCURVE",
"136 495 OFFCURVE",
"283 495 CURVE SMOOTH",
"394 495 OFFCURVE",
"469 412 OFFCURVE",
"469 285 CURVE SMOOTH",
"469 119 OFFCURVE",
"371 5 OFFCURVE",
"242 5 CURVE SMOOTH"
);
},
{
closed = 1;
nodes = (
"503 400 OFFCURVE",
"580 495 OFFCURVE",
"693 495 CURVE SMOOTH",
"811 495 OFFCURVE",
"880 403 OFFCURVE",
"867 274 CURVE",
"486 274 LINE"
);
}
);
width = 913;
},
{
anchors = (
{
name = bottom;
position = "{414, 0}";
},
{
name = top;
position = "{530, 500}";
}
);
hints = (
{
horizontal = 1;
place = "{-5.333, 81.6}";
type = Stem;
},
{
horizontal = 1;
place = "{272, 81.067}";
type = Stem;
}
);
layerId = "91E16792-BB9C-4BE9-80DD-69B41C5E2CA7";
paths = (
{
closed = 1;
nodes = (
"359 -10 OFFCURVE",
"424 20 OFFCURVE",
"469 76 CURVE",
"509 20 OFFCURVE",
"572 -9 OFFCURVE",
"659 -9 CURVE SMOOTH",
"756 -9 OFFCURVE",
"852 36 OFFCURVE",
"891 118 CURVE",
"762 171 LINE",
"742 128 OFFCURVE",
"706 110 OFFCURVE",
"655 110 CURVE SMOOTH",
"593 110 OFFCURVE",
"555 151 OFFCURVE",
"555 209 CURVE SMOOTH",
"555 213 OFFCURVE",
"555 217 OFFCURVE",
"556 220 CURVE",
"899 220 LINE",
"907 246 OFFCURVE",
"911 275 OFFCURVE",
"911 301 CURVE SMOOTH",
"911 422 OFFCURVE",
"828 510 OFFCURVE",
"688 510 CURVE SMOOTH",
"608 510 OFFCURVE",
"542 480 OFFCURVE",
"495 425 CURVE",
"458 480 OFFCURVE",
"397 510 OFFCURVE",
"318 510 CURVE SMOOTH",
"137 510 OFFCURVE",
"34 379 OFFCURVE",
"34 217 CURVE SMOOTH",
"34 87 OFFCURVE",
"126 -10 OFFCURVE",
"277 -10 CURVE SMOOTH"
);
},
{
closed = 1;
nodes = (
"223 110 OFFCURVE",
"192 148 OFFCURVE",
"192 209 CURVE SMOOTH",
"192 301 OFFCURVE",
"238 390 OFFCURVE",
"313 390 CURVE SMOOTH",
"372 390 OFFCURVE",
"403 351 OFFCURVE",
"403 291 CURVE SMOOTH",
"403 198 OFFCURVE",
"357 110 OFFCURVE",
"282 110 CURVE SMOOTH"
);
},
{
closed = 1;
nodes = (
"576 349 OFFCURVE",
"608 393 OFFCURVE",
"676 393 CURVE SMOOTH",
"732 393 OFFCURVE",
"766 354 OFFCURVE",
"758 297 CURVE",
"561 297 LINE"
);
}
);
width = 934;
}
);
leftKerningGroup = o;
leftMetricsKey = o;
rightKerningGroup = e;
rightMetricsKey = e;
unicode = 0153;
},
{
color = 5;
glyphname = p;
layers = (
{
anchors = (
{
name = bottom;
position = "{7, -194}";
},
{
name = ogonek;
position = "{367, 17}";
},
{
name = top;
position = "{356, 500}";
}
);
color = 4;
guideLines = (
{
angle = 77;
position = "{-12, -210}";
}
);
layerId = "DBFAC7D3-9CB2-48DD-9F53-AD59A4BD1301";
rightMetricsKey = "=o";
paths = (
{
closed = 1;
nodes = (
"47 -194 LINE",
"127 156 LINE",
"112 148 LINE",
"117 53 OFFCURVE",
"186 -10 OFFCURVE",
"284 -10 CURVE SMOOTH",
"430 -10 OFFCURVE",
"541 118 OFFCURVE",
"541 290 CURVE SMOOTH",
"541 426 OFFCURVE",
"461 508 OFFCURVE",
"355 508 CURVE SMOOTH",
"262 508 OFFCURVE",
"185 454 OFFCURVE",
"162 365 CURVE",
"175 377 LINE",
"197 500 LINE",
"127 500 LINE",
"-33 -194 LINE"
);
},
{
closed = 1;
nodes = (
"196 59 OFFCURVE",
"149 118 OFFCURVE",
"149 205 CURVE SMOOTH",
"149 341 OFFCURVE",
"225 439 OFFCURVE",
"328 439 CURVE SMOOTH",
"407 439 OFFCURVE",
"462 386 OFFCURVE",
"462 290 CURVE SMOOTH",
"462 157 OFFCURVE",
"382 59 OFFCURVE",
"285 59 CURVE SMOOTH"
);
}
);
width = 576;
},
{
anchors = (
{
name = bottom;
position = "{51, -194}";
},
{
name = ogonek;
position = "{437, 10}";
},
{
name = top;
position = "{374, 500}";
}
);
color = 4;
layerId = "EA77C764-8343-414A-A941-E69667BA8F3A";
paths = (
{
closed = 1;
nodes = (
"166 -194 LINE",
"253 187 LINE",
"225 135 LINE",
"227 19 OFFCURVE",
"304 -10 OFFCURVE",
"365 -10 CURVE SMOOTH",
"523 -10 OFFCURVE",
"604 169 OFFCURVE",
"604 325 CURVE SMOOTH",
"604 448 OFFCURVE",
"545 510 OFFCURVE",
"456 510 CURVE SMOOTH",
"363 510 OFFCURVE",
"282 436 OFFCURVE",
"261 317 CURVE",
"270 298 LINE",
"306 500 LINE",
"96 500 LINE",
"-64 -194 LINE"
);
},
{
closed = 1;
nodes = (
"280 161 OFFCURVE",
"262 178 OFFCURVE",
"262 214 CURVE SMOOTH",
"262 263 OFFCURVE",
"285 338 OFFCURVE",
"334 338 CURVE SMOOTH",
"364 338 OFFCURVE",
"376 318 OFFCURVE",
"376 283 CURVE SMOOTH",
"376 242 OFFCURVE",
"357 161 OFFCURVE",
"306 161 CURVE SMOOTH"
);
}
);
width = 619;
},
{
anchors = (
{
name = bottom;
position = "{-25, -194}";
},
{
name = ogonek;
position = "{347, 21}";
},
{
name = top;
position = "{340, 500}";
}
);
layerId = "F97236B5-7CBD-4FD1-81B0-6670342ADB4E";
rightMetricsKey = "=o";
paths = (
{
closed = 1;
nodes = (
"-17 -194 LINE",
"85 248 LINE",
"73 218 LINE",
"68 86 OFFCURVE",
"142 -10 OFFCURVE",
"277 -10 CURVE SMOOTH",
"429 -10 OFFCURVE",
"519 126 OFFCURVE",
"519 285 CURVE SMOOTH",
"519 411 OFFCURVE",
"447 510 OFFCURVE",
"321 510 CURVE SMOOTH",
"220 510 OFFCURVE",
"135 452 OFFCURVE",
"102 350 CURVE",
"106 341 LINE",
"143 500 LINE",
"127 500 LINE",
"-33 -194 LINE"
);
},
{
closed = 1;
nodes = (
"164 4 OFFCURVE",
"88 80 OFFCURVE",
"88 203 CURVE SMOOTH",
"88 369 OFFCURVE",
"174 496 OFFCURVE",
"320 496 CURVE SMOOTH",
"424 496 OFFCURVE",
"503 415 OFFCURVE",
"503 286 CURVE SMOOTH",
"503 127 OFFCURVE",
"413 4 OFFCURVE",
"278 4 CURVE SMOOTH"
);
}
);
width = 552;
},
{
anchors = (
{
name = bottom;
position = "{40, -194}";
},
{
name = ogonek;
position = "{414, 13}";
},
{
name = top;
position = "{375, 500}";
}
);
layerId = "91E16792-BB9C-4BE9-80DD-69B41C5E2CA7";
paths = (
{
closed = 1;
nodes = (
"120 -194 LINE",
"204 173 LINE",
"175 143 LINE",
"178 51 OFFCURVE",
"243 -10 OFFCURVE",
"342 -10 CURVE SMOOTH",
"495 -10 OFFCURVE",
"584 145 OFFCURVE",
"584 309 CURVE SMOOTH",
"584 438 OFFCURVE",
"506 509 OFFCURVE",
"410 509 CURVE SMOOTH",
"311 509 OFFCURVE",
"240 437 OFFCURVE",
"224 339 CURVE",
"235 335 LINE",
"264 500 LINE",
"120 500 LINE",
"-40 -194 LINE"
);
},
{
closed = 1;
nodes = (
"253 123 OFFCURVE",
"222 162 OFFCURVE",
"222 223 CURVE SMOOTH",
"222 311 OFFCURVE",
"263 376 OFFCURVE",
"338 376 CURVE SMOOTH",
"395 376 OFFCURVE",
"426 335 OFFCURVE",
"423 269 CURVE SMOOTH",
"419 186 OFFCURVE",
"383 123 OFFCURVE",
"312 123 CURVE SMOOTH"
);
}
);
width = 616;
}
);
leftKerningGroup = n;
leftMetricsKey = n;
rightKerningGroup = o;
unicode = 0070;
},
{
color = 5;
glyphname = thorn;
layers = (
{
anchors = (
{
name = bottom;
position = "{9, -194}";
},
{
name = ogonek;
position = "{363, 17}";
},
{
name = top;
position = "{216, 704}";
}
);
layerId = "DBFAC7D3-9CB2-48DD-9F53-AD59A4BD1301";
paths = (
{
closed = 1;
nodes = (
"47 -194 LINE",
"127 156 LINE",
"112 148 LINE",
"117 53 OFFCURVE",
"186 -10 OFFCURVE",
"284 -10 CURVE SMOOTH",
"430 -10 OFFCURVE",
"541 118 OFFCURVE",
"541 290 CURVE SMOOTH",
"541 426 OFFCURVE",
"457 508 OFFCURVE",
"358 508 CURVE SMOOTH",
"262 508 OFFCURVE",
"188 454 OFFCURVE",
"165 365 CURVE",
"181 391 LINE",
"254 704 LINE",
"174 704 LINE",
"-33 -194 LINE"
);
},
{
closed = 1;
nodes = (
"196 59 OFFCURVE",
"149 118 OFFCURVE",
"149 205 CURVE SMOOTH",
"149 341 OFFCURVE",
"225 439 OFFCURVE",
"328 439 CURVE SMOOTH",
"407 439 OFFCURVE",
"462 386 OFFCURVE",
"462 290 CURVE SMOOTH",
"462 157 OFFCURVE",
"382 59 OFFCURVE",
"285 59 CURVE SMOOTH"
);
}
);
width = 576;
},
{
anchors = (
{
name = bottom;
position = "{51, -194}";
},
{
name = ogonek;
position = "{437, 10}";
},
{
name = top;
position = "{258, 704}";
}
);
layerId = "EA77C764-8343-414A-A941-E69667BA8F3A";
rightMetricsKey = "=b";
paths = (
{
closed = 1;
nodes = (
"166 -194 LINE",
"253 187 LINE",
"229 138 LINE",
"229 21 OFFCURVE",
"311 -10 OFFCURVE",
"380 -10 CURVE SMOOTH",
"520 -10 OFFCURVE",
"604 169 OFFCURVE",
"604 325 CURVE SMOOTH",
"604 448 OFFCURVE",
"545 510 OFFCURVE",
"456 510 CURVE SMOOTH",
"363 510 OFFCURVE",
"292 436 OFFCURVE",
"271 317 CURVE",
"283 313 LINE",
"373 704 LINE",
"143 704 LINE",
"-64 -194 LINE"
);
},
{
closed = 1;
nodes = (
"274 153 OFFCURVE",
"261 172 OFFCURVE",
"261 205 CURVE SMOOTH",
"261 257 OFFCURVE",
"286 348 OFFCURVE",
"335 348 CURVE SMOOTH",
"365 348 OFFCURVE",
"377 326 OFFCURVE",
"377 291 CURVE SMOOTH",
"377 250 OFFCURVE",
"355 153 OFFCURVE",
"300 153 CURVE SMOOTH"
);
}
);
width = 619;
},
{
anchors = (
{
name = bottom;
position = "{-25, -194}";
},
{
name = ogonek;
position = "{349, 21}";
},
{
name = top;
position = "{182, 704}";
}
);
color = 4;
layerId = "F97236B5-7CBD-4FD1-81B0-6670342ADB4E";
paths = (
{
closed = 1;
nodes = (
"-17 -194 LINE",
"85 248 LINE",
"73 218 LINE",
"68 86 OFFCURVE",
"142 -10 OFFCURVE",
"277 -10 CURVE SMOOTH",
"429 -10 OFFCURVE",
"519 126 OFFCURVE",
"519 285 CURVE SMOOTH",
"519 411 OFFCURVE",
"447 510 OFFCURVE",
"321 510 CURVE SMOOTH",
"220 510 OFFCURVE",
"135 452 OFFCURVE",
"102 350 CURVE",
"106 341 LINE",
"190 704 LINE",
"174 704 LINE",
"-33 -194 LINE"
);
},
{
closed = 1;
nodes = (
"164 4 OFFCURVE",
"88 80 OFFCURVE",
"88 203 CURVE SMOOTH",
"88 369 OFFCURVE",
"174 496 OFFCURVE",
"320 496 CURVE SMOOTH",
"424 496 OFFCURVE",
"503 415 OFFCURVE",
"503 286 CURVE SMOOTH",
"503 127 OFFCURVE",
"413 4 OFFCURVE",
"278 4 CURVE SMOOTH"
);
}
);
width = 552;
},
{
anchors = (
{
name = bottom;
position = "{41, -194}";
},
{
name = ogonek;
position = "{412, 13}";
},
{
name = top;
position = "{248, 704}";
}
);
layerId = "91E16792-BB9C-4BE9-80DD-69B41C5E2CA7";
paths = (
{
closed = 1;
nodes = (
"120 -194 LINE",
"204 173 LINE",
"184 143 LINE",
"186 36 OFFCURVE",
"262 -10 OFFCURVE",
"345 -10 CURVE SMOOTH",
"487 -10 OFFCURVE",
"584 145 OFFCURVE",
"584 309 CURVE SMOOTH",
"584 438 OFFCURVE",
"513 509 OFFCURVE",
"420 509 CURVE SMOOTH",
"325 509 OFFCURVE",
"253 444 OFFCURVE",
"231 339 CURVE",
"245 349 LINE",
"327 704 LINE",
"167 704 LINE",
"-40 -194 LINE"
);
},
{
closed = 1;
nodes = (
"247 109 OFFCURVE",
"218 147 OFFCURVE",
"218 205 CURVE SMOOTH",
"218 296 OFFCURVE",
"267 390 OFFCURVE",
"341 390 CURVE SMOOTH",
"394 390 OFFCURVE",
"426 354 OFFCURVE",
"426 291 CURVE SMOOTH",
"426 207 OFFCURVE",
"377 109 OFFCURVE",
"302 109 CURVE SMOOTH"
);
}
);
width = 615;
}
);
leftKerningGroup = h;
leftMetricsKey = h;
rightKerningGroup = o;
rightMetricsKey = p;
unicode = 00FE;
},
{
color = 5;
glyphname = q;
layers = (
{
anchors = (
{
name = bottom;
position = "{365, -194}";
},
{
name = ogonek;
position = "{308, 17}";
},
{
name = top;
position = "{335, 500}";
}
);
layerId = "DBFAC7D3-9CB2-48DD-9F53-AD59A4BD1301";
leftMetricsKey = "=o";
paths = (
{
closed = 1;
nodes = (
"405 -194 LINE",
"565 500 LINE",
"487 500 LINE",
"451 354 LINE",
"462 365 LINE",
"455 446 OFFCURVE",
"391 510 OFFCURVE",
"290 510 CURVE SMOOTH",
"145 510 OFFCURVE",
"35 381 OFFCURVE",
"35 212 CURVE SMOOTH",
"35 80 OFFCURVE",
"118 -8 OFFCURVE",
"231 -8 CURVE SMOOTH",
"306 -8 OFFCURVE",
"373 39 OFFCURVE",
"401 113 CURVE",
"395 110 LINE",
"325 -194 LINE"
);
},
{
closed = 1;
nodes = (
"165 60 OFFCURVE",
"114 115 OFFCURVE",
"114 213 CURVE SMOOTH",
"114 341 OFFCURVE",
"189 441 OFFCURVE",
"295 441 CURVE SMOOTH",
"375 441 OFFCURVE",
"427 383 OFFCURVE",
"427 293 CURVE SMOOTH",
"427 162 OFFCURVE",
"349 60 OFFCURVE",
"251 60 CURVE SMOOTH"
);
}
);
width = 577;
},
{
anchors = (
{
name = bottom;
position = "{371, -194}";
},
{
name = ogonek;
position = "{233, 10}";
},
{
name = top;
position = "{368, 500}";
}
);
color = 4;
layerId = "EA77C764-8343-414A-A941-E69667BA8F3A";
paths = (
{
closed = 1;
nodes = (
"478 -194 LINE",
"639 500 LINE",
"414 500 LINE",
"367 332 LINE",
"381 297 LINE",
"407 442 OFFCURVE",
"349 510 OFFCURVE",
"255 510 CURVE SMOOTH",
"97 510 OFFCURVE",
"15 341 OFFCURVE",
"15 183 CURVE SMOOTH",
"15 56 OFFCURVE",
"78 -10 OFFCURVE",
"169 -10 CURVE SMOOTH",
"268 -10 OFFCURVE",
"322 57 OFFCURVE",
"351 165 CURVE",
"345 194 LINE",
"256 -194 LINE"
);
},
{
closed = 1;
nodes = (
"256 162 OFFCURVE",
"243 182 OFFCURVE",
"243 213 CURVE SMOOTH",
"243 258 OFFCURVE",
"262 339 OFFCURVE",
"316 339 CURVE SMOOTH",
"343 339 OFFCURVE",
"357 322 OFFCURVE",
"357 293 CURVE SMOOTH",
"357 237 OFFCURVE",
"335 162 OFFCURVE",
"287 162 CURVE SMOOTH"
);
}
);
width = 619;
},
{
anchors = (
{
name = bottom;
position = "{373, -194}";
},
{
name = ogonek;
position = "{325, 21}";
},
{
name = top;
position = "{327, 500}";
}
);
layerId = "F97236B5-7CBD-4FD1-81B0-6670342ADB4E";
leftMetricsKey = "=o";
paths = (
{
closed = 1;
nodes = (
"381 -194 LINE",
"541 500 LINE",
"525 500 LINE",
"467 252 LINE",
"470 240 LINE",
"500 379 OFFCURVE",
"434 510 OFFCURVE",
"282 510 CURVE SMOOTH",
"127 510 OFFCURVE",
"33 381 OFFCURVE",
"33 217 CURVE SMOOTH",
"33 89 OFFCURVE",
"107 -10 OFFCURVE",
"242 -10 CURVE SMOOTH",
"344 -10 OFFCURVE",
"406 46 OFFCURVE",
"440 123 CURVE",
"446 159 LINE",
"365 -194 LINE"
);
},
{
closed = 1;
nodes = (
"129 4 OFFCURVE",
"49 87 OFFCURVE",
"49 216 CURVE SMOOTH",
"49 380 OFFCURVE",
"145 496 OFFCURVE",
"281 496 CURVE SMOOTH",
"375 496 OFFCURVE",
"464 438 OFFCURVE",
"464 289 CURVE SMOOTH",
"464 123 OFFCURVE",
"377 4 OFFCURVE",
"239 4 CURVE SMOOTH"
);
}
);
width = 553;
},
{
anchors = (
{
name = bottom;
position = "{377, -194}";
},
{
name = ogonek;
position = "{276, 13}";
},
{
name = top;
position = "{361, 500}";
}
);
color = 4;
layerId = "91E16792-BB9C-4BE9-80DD-69B41C5E2CA7";
paths = (
{
closed = 1;
nodes = (
"452 -194 LINE",
"613 500 LINE",
"456 500 LINE",
"415 342 LINE",
"438 329 LINE",
"451 444 OFFCURVE",
"390 510 OFFCURVE",
"290 510 CURVE SMOOTH",
"111 510 OFFCURVE",
"33 362 OFFCURVE",
"33 209 CURVE SMOOTH",
"33 67 OFFCURVE",
"122 -9 OFFCURVE",
"223 -9 CURVE SMOOTH",
"311 -9 OFFCURVE",
"354 37 OFFCURVE",
"383 111 CURVE",
"377 155 LINE",
"297 -194 LINE"
);
},
{
closed = 1;
nodes = (
"215 124 OFFCURVE",
"194 170 OFFCURVE",
"194 226 CURVE SMOOTH",
"194 315 OFFCURVE",
"238 377 OFFCURVE",
"309 377 CURVE SMOOTH",
"372 377 OFFCURVE",
"395 333 OFFCURVE",
"395 278 CURVE SMOOTH",
"395 198 OFFCURVE",
"355 124 OFFCURVE",
"285 124 CURVE SMOOTH"
);
}
);
width = 617;
}
);
leftKerningGroup = o;
leftMetricsKey = d;
rightKerningGroup = u;
rightMetricsKey = u;
unicode = 0071;
},
{
color = 5;
glyphname = r;
layers = (
{
anchors = (
{
name = bottom;
position = "{57, 0}";
},
{
name = ogonek;
position = "{91, 0}";
},
{
name = top;
position = "{258, 500}";
}
);
layerId = "DBFAC7D3-9CB2-48DD-9F53-AD59A4BD1301";
paths = (
{
closed = 1;
nodes = (
"91 0 LINE",
"154 271 LINE SMOOTH",
"180 384 OFFCURVE",
"246 435 OFFCURVE",
"322 435 CURVE SMOOTH",
"345 435 OFFCURVE",
"361 431 OFFCURVE",
"374 425 CURVE",
"398 501 LINE",
"385 507 OFFCURVE",
"368 510 OFFCURVE",
"347 510 CURVE SMOOTH",
"276 510 OFFCURVE",
"200 466 OFFCURVE",
"169 392 CURVE",
"181 385 LINE",
"192 500 LINE",
"127 500 LINE",
"11 0 LINE"
);
}
);
width = 350;
},
{
anchors = (
{
name = bottom;
position = "{95, 0}";
},
{
name = ogonek;
position = "{210, 0}";
},
{
name = top;
position = "{304, 500}";
}
);
color = 4;
layerId = "EA77C764-8343-414A-A941-E69667BA8F3A";
leftMetricsKey = "=n";
paths = (
{
closed = 1;
nodes = (
"210 0 LINE",
"253 184 LINE SMOOTH",
"265 235 OFFCURVE",
"300 276 OFFCURVE",
"380 276 CURVE SMOOTH",
"406 276 OFFCURVE",
"421 271 OFFCURVE",
"433 265 CURVE",
"499 501 LINE",
"491 506 OFFCURVE",
"478 510 OFFCURVE",
"457 510 CURVE SMOOTH",
"342 510 OFFCURVE",
"288 422 OFFCURVE",
"257 297 CURVE",
"260 274 LINE",
"303 500 LINE",
"96 500 LINE",
"-20 0 LINE"
);
}
);
width = 438;
},
{
anchors = (
{
name = bottom;
position = "{19, 0}";
},
{
name = ogonek;
position = "{27, 0}";
},
{
name = top;
position = "{237, 500}";
}
);
guideLines = (
{
angle = 76.9384;
position = "{-28, 0}";
}
);
hints = (
{
horizontal = 1;
place = "{-15, 21}";
target = up;
type = BottomGhost;
},
{
horizontal = 1;
place = "{495, -25}";
type = Stem;
},
{
place = "{11, 1}";
type = Stem;
}
);
layerId = "F97236B5-7CBD-4FD1-81B0-6670342ADB4E";
paths = (
{
closed = 1;
nodes = (
"27 0 LINE",
"97 300 LINE SMOOTH",
"121 406 OFFCURVE",
"190 496 OFFCURVE",
"293 496 CURVE SMOOTH",
"316 496 OFFCURVE",
"336 492 OFFCURVE",
"350 482 CURVE",
"357 495 LINE",
"342 505 OFFCURVE",
"319 510 OFFCURVE",
"295 510 CURVE SMOOTH",
"197 510 OFFCURVE",
"141 442 OFFCURVE",
"103 356 CURVE",
"108 349 LINE",
"143 500 LINE",
"127 500 LINE",
"11 0 LINE"
);
}
);
width = 308;
},
{
anchors = (
{
name = bottom;
position = "{87, 0}";
},
{
name = ogonek;
position = "{164, 0}";
},
{
name = top;
position = "{292, 500}";
}
);
color = 4;
hints = (
{
horizontal = 1;
place = "{0, 21}";
target = up;
type = BottomGhost;
},
{
horizontal = 1;
place = "{0, 0}";
type = Stem;
},
{
place = "{0, 0}";
type = Stem;
}
);
layerId = "91E16792-BB9C-4BE9-80DD-69B41C5E2CA7";
paths = (
{
closed = 1;
nodes = (
"164 0 LINE",
"218 231 LINE SMOOTH",
"235 305 OFFCURVE",
"285 353 OFFCURVE",
"363 353 CURVE SMOOTH",
"388 353 OFFCURVE",
"403 349 OFFCURVE",
"416 343 CURVE",
"461 501 LINE",
"451 506 OFFCURVE",
"436 510 OFFCURVE",
"415 510 CURVE SMOOTH",
"320 510 OFFCURVE",
"253 443 OFFCURVE",
"222 341 CURVE",
"232 326 LINE",
"261 500 LINE",
"120 500 LINE",
"4 0 LINE"
);
}
);
width = 417.33333;
}
);
leftKerningGroup = n;
leftMetricsKey = n;
rightKerningGroup = r;
unicode = 0072;
},
